<svg width="120" height="79" viewBox="0 0 120 79" fill="none" xmlns="http://www.w3.org/2000/svg">
<path d="M11.8733 40.0124C7.97211 47.8148 2.75633 50.6136 0.424072 51.0376C0.565421 51.179 1.14495 52.2249 5.72466 55.2781C20.1423 53.4123 28.1285 60.8614 30.1074 64.8191L31.1675 63.547C31.3795 63.2643 31.8036 62.4445 31.8036 61.4268C30.4466 53.9635 27.2804 48.8467 25.8669 47.2212C25.7256 47.0092 25.3156 46.4155 24.8068 45.737C26.3334 41.1573 26.8563 37.1854 26.927 35.7719V32.8036C27.0966 25.8492 24.7361 23.1212 23.5346 22.6264C23.1813 22.4851 22.3049 22.2024 21.6264 22.2024C19.0821 22.2024 17.1739 25.8775 16.5379 27.715L12.9335 37.8921L11.8733 40.0124Z" fill="#393744"/>
<path d="M21.5 22.1392L21.7219 26.57M17.25 24.464L16 27L27 26.366L25.75 23.6186C24.3333 22.2801 20.65 20.4063 17.25 24.464Z" stroke="#81CB72" stroke-width="2"/>
<path d="M29.5346 65.3495C24.1068 56.1901 11.5833 55.4551 6 56.2325C6.21202 56.4445 8.28985 58.4376 13.2088 62.1692C23.0467 68.7843 28.1918 67.1164 29.7466 65.7736C29.7466 65.7029 29.7042 65.5192 29.5346 65.3495Z" stroke="#81CB72" stroke-width="2"/>
<path d="M3 32C5 44.5 1.69619 49.2138 0 50.9807C3.039 50.4153 10.0923 46.401 13.9936 34.8669C15.8594 29.4391 16.6085 27.3754 16.7499 27.022C17.598 24.9724 19.9726 21.1702 22.6865 22.3575C23.1954 22.5271 23.6053 22.7109 23.7466 22.7815C24.7361 23.2056 26.7574 25.4954 26.927 31.2625C27.0966 37.0295 26.2203 41.1569 25.6549 42.4997L24.8068 45.6801C26.4323 47.659 29.5137 52.5496 30.5314 56.2813C31.3795 58.9952 31.7329 60.9458 31.8035 61.5819C31.8035 62.9953 30.6586 65.9071 26.0789 66.2464C21.4992 65.9071 15.9724 62.854 13.7815 61.3698L0 50.9807C4.24047 61.3274 15.6624 73 20.3543 75.3634C37.5 84 44 70.9055 44 67C43.9293 66.1519 44.0161 63.7445 42.8288 60.5217C39.4364 53.0585 29.4006 47.5176 24.8068 45.6801L32.4396 25.3258C33.0757 23.6296 33.9662 19.1347 32.4396 14.7246C30.913 10.3145 27.8458 9.07067 26.503 9C25.3015 9 22.3473 9.59367 20.1422 11.9683C17.9372 14.343 14.7003 14.0886 13.3575 13.6645C7.42083 12.8164 6.14868 14.3006 4.66452 18.329C3.18035 22.3575 2.5 25 3 32Z" fill="#81CB72"/>
<path d="M60.871 30.5193L60.4469 29.2472L79.741 15.8394M60.871 30.5193C58.8214 30.8727 54.8071 32.2155 55.1463 34.7598C55.9944 37.3041 58.468 44.1595 59.5988 47.2692C60.0935 48.612 62.2703 50.5343 67.0196 47.4812M60.871 30.5193L67.0196 47.4812M67.0196 47.4812C67.3588 47.8204 67.585 48.3293 67.6557 48.5413L67.8677 48.9654L71.2601 48.5413M71.2601 48.5413C71.5428 50.1668 72.405 53.3331 73.5923 52.9938C75.2885 52.8242 76.1366 52.7818 76.3486 52.7818M71.2601 48.5413L89.0701 46.6331M76.3486 52.7818L82.4973 71.4399L92.6745 71.8639L86.1017 51.9337M76.3486 52.7818L86.1017 51.9337M86.1017 51.9337C87.5152 51.7217 90.215 50.8312 89.7061 48.9654C89.1973 47.6084 89.0701 46.8451 89.0701 46.6331M89.0701 46.6331L91.1903 46.5399M108.364 45.785C110.908 46.7038 116.336 47.0996 117.693 41.3325C118.541 36.4136 118.471 34.053 118.329 33.4876C118.047 27.0563 115.064 12.2853 105.396 4.65243C102.512 2.27776 100.095 1.82545 99.2472 1.89612C98.2578 1.6841 95.8548 2.06574 94.1586 5.2885M108.364 45.785L91.1903 46.5399M108.364 45.785C91.0631 31.537 91.685 12.8507 94.1586 5.2885M94.1586 5.2885C92.2928 6.64546 87.5859 10.2357 85.4657 11.8612L79.741 15.8394M79.741 15.8394C79.5997 22.084 81.6916 36.9667 91.1903 46.5399" stroke="#81CB72" stroke-width="3"/>
</svg>
