<svg width="108" height="85" viewBox="0 0 108 85" fill="none" xmlns="http://www.w3.org/2000/svg">
<rect x="2.5" y="2.5" width="103" height="65.4348" rx="7.5" stroke="#81CB72" stroke-width="5"/>
<path d="M1.40869 55.8782H106.591" stroke="#81CB72" stroke-width="5"/>
<path d="M45.3131 69.7305C46.0174 71.3739 44.5148 81.6105 36.6261 82.1739" stroke="#81CB72" stroke-width="5"/>
<path d="M63.926 69.9652C63.5347 73.8783 64.6592 81.6104 72.5479 82.1739" stroke="#81CB72" stroke-width="5"/>
<path d="M36.3912 82.1738H72.7825" stroke="#81CB72" stroke-width="5"/>
<path d="M54.6413 33.4209L38.0535 28.3524C38.0535 29.1204 38.3876 35.4468 38.3876 41.5289C54.7911 51.113 62.9929 46.3249 71.2291 41.7375V28.3524L54.6413 33.4209Z" fill="#81CB72"/>
<path d="M24 19.3674L54.6413 9L85.5131 19.3674L54.6413 29.9651L36.9016 24.2055C35.9801 24.8966 34.137 27.4309 34.137 32.0386C35.0585 32.5915 35.5193 33.5745 35.7497 34.1121C35.9033 34.88 35.9801 36.9689 34.137 38.259C35.2428 42.8667 35.5193 48.1656 35.5193 50.2391H29.2989C29.4525 47.6281 29.8979 41.5766 30.4508 38.259C29.345 36.6002 28.9149 35.7248 28.8381 35.4944C28.6077 34.7264 28.6999 32.8219 30.9116 31.3474C30.7273 27.1083 32.6779 23.7447 33.6762 22.5928L24 19.3674Z" fill="#81CB72"/>
</svg>
