<svg width="104" height="87" viewBox="0 0 104 87" fill="none" xmlns="http://www.w3.org/2000/svg">
<path d="M76.5576 29.1234C91.6268 35.6417 93.8171 51.5812 93.0286 58.7362C86.6038 61.6858 72.7552 67.9705 68.7601 69.5124C64.0291 70.5638 62.8901 70.0381 59.7361 69.5124C45.7883 65.1669 38.8553 58.1813 37.1323 55.2317C36.665 54.4724 35.7305 52.5508 35.7305 50.9387C35.9407 46.5231 42.7686 45.5944 46.1563 45.682C47.8793 46.1201 53.0075 47.5043 59.7361 49.5369C67.446 47.7146 65.0512 42.9952 62.8901 40.8633L40.6367 33.8544L41.9509 32.5402C47.2076 28.6853 61.4884 22.605 76.5576 29.1234Z" fill="#81CB72"/>
<path d="M2 83.9684V65.1319V49.9751C12.2331 50.3255 14.3533 48.6609 16.1055 47.2591C18.3086 45.4966 17.5647 45.9449 21.8879 41.3015C25.6727 37.2363 29.0721 31.8394 35.4677 33.1536C41.8634 34.4678 49.7835 36.7457 62.8902 41.3015C66.9204 43.8422 64.9929 51.3768 58.5096 49.1866C57.1955 48.7426 57.8613 48.1527 45.8059 45.4193C32.6992 45.9099 34.2996 52.5158 38.5341 57.2468C39.3811 57.7433 38.6743 57.8251 43.7909 61.8903C56.0565 71.3524 66.716 70.6223 70.5125 69.0744C73.4329 67.7603 82.4277 64.3259 93.2915 58.9991C101.089 55.8451 104.243 65.7742 100.3 68.2859C96.6792 70.5931 86.9309 76.4163 76.9081 81.2525C66.8853 86.0887 67.4461 85.8083 59.999 85.0198C54.4211 83.472 40.006 79.5178 35.3801 78.1861C30.9995 76.2586 11.9878 82.041 2 83.9684Z" stroke="#81CB72" stroke-width="3"/>
<path d="M62.6506 10.3745L62.6506 26.2322H64.4904V18.61C65.6294 18.2303 67.8723 17.033 67.7321 15.2807C65.5593 14.9303 64.6657 16.3029 64.4904 17.033V10.6373C68.3454 10.2869 72.9888 9.93641 73.9525 6.08149C71.9375 4.94253 67.9949 4.24164 63.7895 9.67357C63.9648 7.30805 60.8107 1 54.9407 1C54.5202 8.3594 59.9054 10.5497 62.6506 10.3745Z" fill="#81CB72" stroke="#81CB72"/>
</svg>
