<svg width="119" height="121" viewBox="0 0 119 121" fill="none" xmlns="http://www.w3.org/2000/svg">
<path d="M64.975 58.9414H22.4826C22.9299 86.8969 18.6807 99.421 4.36743 118.431H86.2212C64.5724 96.782 65.6459 72.3601 64.975 58.9414Z" stroke="#DAEFD0" stroke-width="3"/>
<rect y="116" width="118.084" height="4.92017" rx="2" fill="#81CB72"/>
<path d="M43.7287 39.0371C36.3932 41.7208 39.7777 48.3556 42.3869 51.3375H89.7995C93.3032 49.9211 99.4609 42.7048 92.4832 41.2735C95.5397 40.6771 101.608 38.0531 101.429 32.3278C108.586 39.0371 115.966 22.2637 109.257 21.3691C119.321 17.5672 113.953 -0.547975 104.56 5.71406C99.8635 -2.78441 88.234 5.71407 89.7995 7.50322C79.9591 -0.547992 74.5917 3.4776 73.0262 9.29235C62.5149 2.13574 54.911 13.3179 56.0292 19.3563C47.6202 20.2509 47.7544 28.3767 48.8726 32.3278C46.6362 30.315 40.3741 32.7751 43.7287 39.0371Z" stroke="#81CB72" stroke-width="3"/>
<path d="M90.0365 51.3374H42.2036C42.7071 82.8662 37.9238 96.9911 21.8116 118.431H113.953C89.5834 94.0148 90.7918 66.4712 90.0365 51.3374Z" stroke="#A0D98A" stroke-width="3"/>
</svg>
