<svg width="1446" height="644" viewBox="0 0 1446 644" fill="none" xmlns="http://www.w3.org/2000/svg">
<g clip-path="url(#clip0)">
<path d="M-196 140.216L1542 18.9998V641H1497.58V272.991C1471.79 112.328 1274.5 119.638 1274.5 241.5V641H1151L1143 241.5C1083.54 108.726 969.895 163.08 957 250.384V641H844.221V272.991C802.669 180.837 629.776 161.261 609 250.384V641H513.958V299.667C486.018 204.482 293.938 191.489 275.312 275.761L272.898 641H138.561V281.479C74.4933 239.103 -20.6525 228.924 -42.4267 272.991V641H-196V140.216Z" fill="#191826"/>
<path d="M-278 120.962L1474.18 23V608.41H1414.42V228.183C1369 99.509 1253.57 130.507 1222.5 228.461V608.41H1097.69L1089.32 228.461C1040.32 121.24 901.896 153.058 889.126 238.037V608.41H752.111V238.037C710.963 148.337 558.905 151.287 538.331 238.037V608.41H388.929V249.627C351.008 163.705 229.368 189.349 207.259 258.462V608.41H77V272.605C77 263.358 74.7664 253.954 68.2922 247.351C30.0435 208.346 -57.7242 215.854 -97.3717 246.713C-105.921 253.367 -109.153 264.32 -109.153 275.154V608.41H-278V120.962Z" fill="#44B5C5"/>
<path d="M77 608.41H205.464L272.5 641.5H134L77 608.41Z" fill="#21393F"/>
<path d="M388.929 608.41H538.331L609 641H450L388.929 608.41Z" fill="#21393F"/>
<path d="M752.055 608.41H889.126L957.5 641H805.5L752.055 608.41Z" fill="#21393F"/>
<path d="M1097.69 608.41H1222.5L1276 642.481L1146 641L1097.69 608.41Z" fill="#21393F"/>
<path d="M1414.42 608.41H1525.2L1534.76 643.514H1426L1414.42 608.41Z" fill="#21393F"/>
<path d="M-0.5 87L1446 6.00001" stroke="#44B5C5" stroke-width="10"/>
</g>
<defs>
<clipPath id="clip0">
<rect width="1446" height="644" fill="white"/>
</clipPath>
</defs>
</svg>
