<svg width="220" height="509" viewBox="0 0 220 509" fill="none" xmlns="http://www.w3.org/2000/svg">
<g clip-path="url(#clip0)">
<path d="M13.5596 494.79L-132.265 570.733L-249.591 498.685V476.74L-70.0405 377.313V447.385L13.5596 494.79Z" fill="#383744"/>
<path d="M-99.205 393.653V459.564L-11.4345 509.04L42.0601 480.692L-41.54 432.461V361.163L-99.205 393.653Z" fill="#181726"/>
<path d="M-70.0401 308.124L-249.59 409.242V476.74L-70.0401 377.313V447.385L43.96 391.24V42.913L-70.0401 112.101V308.124Z" fill="#D66440"/>
<path d="M43.9599 391.24L193.11 451.09L80.0599 509.04L-70.0401 447.385L43.9599 391.24Z" fill="#383744"/>
<path d="M196.91 111.94L43.9596 42.913V391.24L193.11 451.09L193.176 451.204L196.91 111.94Z" fill="#181726"/>
<path d="M215.91 105.29L39.5231 25.49L-80.2814 105.29V77.265L39.2096 -0.160034L215.91 77.265V105.29Z" fill="white"/>
<path d="M215.91 105.29L196.91 111.94L43.9596 42.913L-70.0404 112.101L-80.2814 105.29L39.5231 25.49L215.91 105.29Z" fill="#383744"/>
<path d="M219.709 221.19L204.509 224.99L1.70349 164.294L-80.4905 239.24L-217.29 179.39V85.3399L-208.74 80.6279L-174.54 109.09L-88.0905 148.99L-54.147 131.348L219.709 221.19Z" fill="#E9A98E"/>
<path d="M201.659 202.921L193.242 200.29V139.756H203.293L201.659 202.921Z" fill="#383744"/>
<path d="M201.66 144.24L193.243 149.389L19.2597 116.69V109.84L201.66 144.24Z" fill="#383744"/>
<path d="M-208.74 80.5901L-80.4905 141.39L1.70349 98.5546L219.709 133.79V221.19L3.1095 154.69L-80.2815 227.907L-208.74 171.79V80.5901ZM23.1545 143.29L201.659 200.29V144.24L23.1545 112.102V143.29Z" fill="white"/>
<path d="M43.96 167.752V176.939L1.70395 164.294L-70.04 229.712V218.91L3.10996 154.69L43.96 167.752Z" fill="#383744"/>
<path d="M43.96 115.844V121.336L23.1549 117.421V112.101L43.96 115.844Z" fill="#383744"/>
<path d="M131.692 259.703L175.801 277.24L160.81 287.69L131.692 276.67V259.703Z" fill="#E9A98E"/>
<path d="M175.801 277.24V383.963L160.81 376.99V287.69L175.801 277.24Z" fill="#D66440"/>
<path d="M131.692 276.67L160.81 287.69V376.99L131.692 364.212" fill="#363541"/>
<path d="M65.8099 235.962L112.151 253.49L96.3999 263.94L65.8099 252.92V235.962Z" fill="#E9A98E"/>
<path d="M112.151 253.49V360.213L96.3999 353.24V263.94L112.151 253.49Z" fill="#D66440"/>
<path d="M65.8099 252.92L96.3999 263.94V353.24L65.8099 340.462" fill="#363541"/>
</g>
<defs>
<clipPath id="clip0">
<rect width="220" height="509" fill="white"/>
</clipPath>
</defs>
</svg>
