<svg width="402" height="740" viewBox="0 0 402 740" fill="none" xmlns="http://www.w3.org/2000/svg">
<path d="M325.496 201.044L289.814 158.475L91.5867 106.15V259.665L162.104 273.225L325.496 201.044Z" fill="#E9A98E"/>
<path d="M250.499 188.545L325.496 201.044L205.531 265.328L138.768 242.88L250.499 188.545Z" fill="#181726"/>
<path d="M0.202393 304.102L67.3019 318.234L162.104 273.225L91.5867 259.665L0.202393 304.102Z" fill="#181726"/>
<path d="M0.202271 304.102V165.444L91.5867 106.15V259.665L0.202271 304.102Z" fill="#D66440"/>
<path d="M472.43 119.415V76.5593L250.499 0.847778V188.545L336.72 205.126L472.43 119.415Z" fill="#E9A98E"/>
<path d="M33.6704 335.223L516.305 91.3546V226.043L320.394 324.621V579.602L151.013 660.211V409.843L33.6704 468.892V335.223Z" fill="#D66440"/>
<path d="M516.306 226.044L649.974 285.735L457.124 383.691L320.395 324.621L516.306 226.044Z" fill="#383744"/>
<path d="M320.395 324.621V579.602L506.102 669.394V549.185L457.124 520.42V383.691L320.395 324.621Z" fill="#181726"/>
<path d="M506.102 669.394L320.395 579.602L151.013 660.211L320.395 739.79L506.102 669.394Z" fill="#181726"/>
<path d="M138.768 242.88V73.3451L250.499 0.847778V188.545L138.768 242.88Z" fill="#D66440"/>
<path d="M289.783 337.774V555.113L211.215 592.867V383.691L289.783 337.774Z" fill="#383744"/>
<path d="M289.783 337.774L211.215 383.691L242.132 397.976L289.783 372.365V337.774Z" fill="#181726"/>
<path d="M242.132 397.976L211.215 383.691V592.867L242.132 578.01V397.976Z" fill="#181726"/>
<path d="M45.813 158.189V256.43L10.304 273.491V178.943L45.813 158.189Z" fill="#383744"/>
<path d="M45.813 158.189L10.304 178.943L24.2729 185.402L45.813 173.821V158.189Z" fill="#181726"/>
<path d="M24.2726 185.402L10.3037 178.943V273.491L24.2726 266.777V185.402Z" fill="#181726"/>
<path d="M198.399 66.3555V184.586L155.666 205.126V91.3342L198.399 66.3555Z" fill="#383744"/>
<path d="M198.399 66.3555L155.666 91.3342L172.482 99.1095L198.399 85.1712V66.3555Z" fill="#181726"/>
<path d="M172.481 99.1094L155.666 91.3342V205.126L172.481 197.045V99.1094Z" fill="#181726"/>
<path d="M33.6704 468.892L151.013 532.675V409.843L33.6704 468.892Z" fill="#383744"/>
</svg>
