<svg width="468" height="361" viewBox="0 0 468 361" fill="none" xmlns="http://www.w3.org/2000/svg">
<path d="M158.637 262.644L141.281 283.35L44.866 308.8V234.132L79.165 227.536L158.637 262.644Z" fill="#272727"/>
<path d="M122.159 268.724L158.637 262.644L100.287 231.378L67.8147 242.296L122.159 268.724Z" fill="#D66440"/>
<path d="M0.417786 212.519L33.0543 205.645L79.1652 227.536L44.8661 234.132L0.417786 212.519Z" fill="#D66440"/>
<path d="M0.417755 212.518V279.96L44.8661 308.8V234.132L0.417755 212.518Z" fill="#E9A98E"/>
<path d="M230.104 302.348V323.193L122.159 360.018V268.724L164.096 260.659L230.104 302.348Z" fill="#272727"/>
<path d="M16.6964 197.381L251.444 315.996V250.485L156.156 202.538V78.5185L73.7704 39.3111V161.087L16.6964 132.367V197.381Z" fill="#E9A98E"/>
<path d="M251.445 250.485L316.459 221.452L222.659 173.807L156.156 202.538L251.445 250.485Z" fill="#383744"/>
<path d="M360.133 97.8741L283.952 58.2002L222.659 95.8393V107.304L316.459 159.246V122.639L360.133 97.8741Z" fill="#383744"/>
<path d="M301.223 150.71V116.277L347.076 90.4296L375.022 105.239L331.348 130.436V167.683L301.223 150.71Z" fill="#181726"/>
<path d="M156.155 202.538V78.5185L246.481 34.8445V93.3131L222.659 107.304V173.807L156.155 202.538Z" fill="#D66440"/>
<path d="M316.459 195.391L222.659 142.566V107.304L316.459 159.246V122.639L376.015 151.97V333.942L316.459 297.797V195.391Z" fill="#E9A98E"/>
<path d="M222.659 173.807L316.459 221.452V195.391L222.659 142.566V173.807Z" fill="#181726"/>
<path d="M316.459 288.452L251.444 315.996V250.485L316.459 221.452V288.452Z" fill="#D66440"/>
<path d="M376.015 151.97L453.933 120.704L394.874 90.4296L316.459 122.639L376.015 151.97Z" fill="#383744"/>
<path d="M455.918 297.881L376.015 333.942V151.97L453.933 120.704L453.968 120.644L455.918 297.881Z" fill="#D66440"/>
<path d="M465.844 301.356L373.697 343.044L311.109 301.356V315.996L373.533 356.444L465.844 315.996V301.356Z" fill="white"/>
<path d="M465.844 301.356L455.918 297.881L376.015 333.942L316.459 297.797L311.109 301.356L373.697 343.044L465.844 301.356Z" fill="#383744"/>
<path d="M246.481 34.8445L156.156 78.5186L73.7703 39.3111L156.156 0.605011L246.481 34.8445Z" fill="#181726"/>
<path d="M467.83 240.807L459.889 238.822L353.94 270.531L311 231.378L239.533 262.644V311.778L244 314.239L261.867 299.37L307.03 278.526L324.762 287.742L467.83 240.807Z" fill="#272727"/>
<path d="M458.4 250.351L454.003 251.726V283.35H459.254L458.4 250.351Z" fill="#383744"/>
<path d="M458.4 281.007L454.003 278.317L363.111 295.4V298.978L458.4 281.007Z" fill="#383744"/>
<path d="M244 314.259L311 282.496L353.94 304.874L467.83 286.467V240.807L354.674 275.548L311.109 237.298L244 266.615V314.259ZM365.146 281.504L458.4 251.726V281.007L365.146 297.797V281.504Z" fill="white"/>
<path d="M67.8148 242.296V324.756L122.159 360.018V268.724L67.8148 242.296Z" fill="#E9A98E"/>
<path d="M376.015 268.724V263.925L353.94 270.531L316.459 236.356V241.998L354.674 275.548L376.015 268.724Z" fill="#383744"/>
<path d="M376.015 295.842V292.973L365.146 295.018V297.797L376.015 295.842Z" fill="#383744"/>
<path d="M113.226 338.503V310.408L102.556 304.904V331.238L113.226 338.503Z" fill="white"/>
<path d="M421.848 220.688L444.891 211.526L437.059 206.067L421.848 211.824V220.688Z" fill="#272727"/>
<path d="M444.891 211.526V155.772L437.059 159.415V206.067L444.891 211.526Z" fill="#E9A98E"/>
<path d="M421.848 211.824L437.059 206.067V159.415L421.848 166.09" fill="#363541"/>
<path d="M387.43 233.09L411.639 223.933L403.41 218.474L387.43 224.231V233.09Z" fill="#272727"/>
<path d="M411.639 223.933V168.179L403.41 171.822V218.474L411.639 223.933Z" fill="#E9A98E"/>
<path d="M387.43 224.231L403.41 218.474V171.822L387.43 178.497" fill="#363541"/>
<path d="M141.267 196.141V90.4296L103.052 72.0667V173.807L141.267 196.141Z" fill="#383744"/>
<path d="M141.267 196.141L103.052 173.807L118.09 166.859L141.267 179.316V196.141Z" fill="#181726"/>
<path d="M118.09 166.859L103.052 173.807V72.0667L118.09 79.2928V166.859Z" fill="#D66440"/>
<path d="M22.6023 283.489V235.705L5.33099 227.407V273.394L22.6023 283.489Z" fill="#383744"/>
<path d="M22.6023 283.489L5.33099 273.394L12.1254 270.253L22.6023 275.886V283.489Z" fill="#181726"/>
<path d="M12.1254 270.253L5.33121 273.394V227.407L12.1254 230.673V270.253Z" fill="#D66440"/>
<path d="M96.8183 328.156V270.65L76.0335 260.659V316.006L96.8183 328.156Z" fill="#383744"/>
<path d="M96.8183 328.156L76.0335 316.006L84.2124 312.224L96.8183 319.004V328.156Z" fill="#181726"/>
<path d="M84.2123 312.224L76.0334 316.006V260.659L84.2123 264.59V312.224Z" fill="#D66440"/>
<path d="M16.6963 132.367L73.7703 101.343V161.087L16.6963 132.367Z" fill="#383744"/>
</svg>
