<svg width="334" height="759" viewBox="0 0 334 759" fill="none" xmlns="http://www.w3.org/2000/svg">
<g clip-path="url(#clip0)">
<path d="M76.7308 106.485L53.8381 114.883L76.7308 92.7666V106.485Z" fill="#474646"/>
<path d="M222.566 154.864L76.7308 106.411V92.7666L154.303 116.993V105.854L200.282 115.879L222.566 154.864Z" fill="#474646"/>
<path d="M33.7591 83.368L54.5599 116.039L77.0918 94.634L154.586 118.867V106.463L132.055 69.0039L33.7591 83.368Z" fill="#393744"/>
<path d="M83.3293 2.81649L80.5128 0V12.6742L83.3293 13.8008V2.81649Z" fill="#7D5845"/>
<path d="M68.1202 1.68989V18.0255L72.9396 13.6013L80.5128 16.6642V0L68.1202 1.68989Z" fill="#C5937A"/>
<path d="M33.1958 48.162L33.7591 83.3681L132.055 69.004L128.675 35.2061L73.1899 12.3926L33.1958 48.162Z" fill="#E9A98D"/>
<path d="M128.675 35.2061L129.801 35.7694L133.744 32.9529L159.938 77.1718L155.431 78.8617L128.675 35.2061Z" fill="#AAAAAA"/>
<path d="M30.9433 50.1335L28.1262 46.1904L72.6274 7.88635L133.744 32.9529L129.802 35.7696L73.1981 12.7436L30.9433 50.1335Z" fill="#E6E5E5"/>
<path d="M131.88 68.4104L154.736 105.526V76.7824L128.451 34.9224L131.88 68.4104Z" fill="#D66440"/>
<path d="M246.807 349.059V229.721L142.017 305.185V819.832H218.369V368.803L246.807 349.059Z" fill="#81CB72"/>
<path d="M258.493 350.376L246.417 348.621V229.721L334.066 246.393V365.732L321.6 363.977V299.481L258.493 285.88V350.376Z" fill="#A0D98A"/>
<path d="M334.066 365.732L321.6 363.538L294.721 382.843H306.408L334.066 365.732Z" fill="#4C8241"/>
<path d="M218.369 820.019H294.721L294.332 383.282L321.99 363.538V299.043L258.883 285.88V350.376L246.807 348.621L218.369 368.803V820.019Z" fill="#A0D98A"/>
<path d="M227.653 492.659V428.773L285.309 439.743V503.63L227.653 492.659Z" fill="#44B5C5"/>
<path d="M227.653 461.215V427.922L285.309 439.02V473.007L227.653 461.215Z" fill="#6AD8D7"/>
<path d="M227.227 588.432V524.545L284.883 535.516V599.403L227.227 588.432Z" fill="#44B5C5"/>
<path d="M227.227 556.988V523.695L284.883 534.793V568.779L227.227 556.988Z" fill="#6AD8D7"/>
<path d="M226.227 684.205V620.318L283.883 631.289V695.175L226.227 684.205Z" fill="#44B5C5"/>
<path d="M226.227 652.761V619.468L283.883 630.566V664.552L226.227 652.761Z" fill="#6AD8D7"/>
<path d="M294.721 382.843L218.369 368.803L246.417 348.621L258.493 350.376V285.88L321.99 299.043V363.538L294.721 382.843Z" fill="#4C8241"/>
<path d="M251.954 129.694L251.954 794.415L77.6033 794.415L77.6033 90.7449L251.954 129.694Z" fill="#A0D98A"/>
<path d="M77.7181 795.638L77.7175 90.5607L-0.354635 168.689L-0.354638 795.638L77.7181 795.638Z" fill="#81CB72"/>
</g>
<defs>
<clipPath id="clip0">
<rect width="334" height="759" fill="white"/>
</clipPath>
</defs>
</svg>
