<svg width="299" height="413" viewBox="0 0 299 413" fill="none" xmlns="http://www.w3.org/2000/svg">
<g clip-path="url(#clip0)">
<path d="M-323.815 220.324L0.277832 56.5649V147.009L-131.278 213.205V384.426L-245.018 438.556V270.432L-323.815 310.083V220.324Z" fill="#A0D98A"/>
<path d="M0.277888 147.009L90.0371 187.093L-39.4628 252.87L-131.278 213.205L0.277888 147.009Z" fill="#383744"/>
<path d="M150.333 357.704L45.1575 412.477L-39.4629 360.513V344.685L90.0372 272.974V323.513L150.333 357.704Z" fill="#383744"/>
<path d="M69.0016 284.759V332.297L132.306 367.982L170.889 347.536L110.592 312.749V261.326L69.0016 284.759Z" fill="#181726"/>
<path d="M90.037 223.072L-39.463 296.003V344.685L90.037 272.974V323.513L172.259 283.019V31.7886L90.037 81.6906V223.072Z" fill="#A0D98A"/>
<path d="M-39.4629 252.87L90.0371 187.093V223.072L-39.4629 296.003V252.87Z" fill="#181726"/>
<path d="M90.0371 94.5927L0.277865 56.5649V147.009L90.0371 187.093V94.5927Z" fill="#81CB72"/>
<path d="M172.259 283.018L279.833 326.185L198.296 367.981L90.0372 323.513L172.259 283.018Z" fill="#383744"/>
<path d="M282.574 81.5741L172.259 31.7886V283.019L279.833 326.185L279.881 326.267L282.574 81.5741Z" fill="#81CB72"/>
<path d="M296.278 76.7778L169.06 19.2223L82.6508 76.7778V56.5649L168.833 0.72229L296.278 56.5649V76.7778Z" fill="white"/>
<path d="M296.278 76.7776L282.574 81.5739L172.259 31.7883L90.0371 81.6904L82.6508 76.7776L169.06 19.222L296.278 76.7776Z" fill="#383744"/>
<path d="M299.019 160.37L288.056 163.111L141.782 119.335L82.5001 173.389L-16.1666 130.222V62.389L-9.99994 58.9905L14.6667 79.5186L77.0186 108.296L101.5 95.5725L299.019 160.37Z" fill="#272727"/>
<path d="M286 147.194L279.929 145.297V101.636H287.178L286 147.194Z" fill="#383744"/>
<path d="M286 104.87L279.929 108.584L154.444 85V80.0598L286 104.87Z" fill="#383744"/>
<path d="M-9.99997 58.9631L82.5 102.815L141.782 71.92L299.019 97.3335V160.371L142.796 112.408L82.6508 165.215L-9.99997 124.741V58.9631ZM157.254 104.185L286 145.297V104.871L157.254 81.6908V104.185Z" fill="white"/>
<path d="M172.259 121.829V128.455L141.782 119.335L90.0371 166.517V158.726L142.796 112.407L172.259 121.829Z" fill="#383744"/>
<path d="M172.259 84.3903V88.3507L157.254 85.5277V81.6907L172.259 84.3903Z" fill="#383744"/>
<path d="M235.536 188.148L267.349 200.796L256.537 208.333L235.536 200.385V188.148Z" fill="#272727"/>
<path d="M267.349 200.796V277.77L256.537 272.741V208.333L267.349 200.796Z" fill="#A0D98A"/>
<path d="M235.536 200.385L256.537 208.333V272.741L235.536 263.525" fill="#363541"/>
<path d="M188.019 171.025L221.442 183.667L210.082 191.204L188.019 183.256V171.025Z" fill="#272727"/>
<path d="M221.442 183.667V260.64L210.082 255.611V191.204L221.442 183.667Z" fill="#A0D98A"/>
<path d="M188.019 183.255L210.082 191.203V255.611L188.019 246.395" fill="#363541"/>
</g>
<defs>
<clipPath id="clip0">
<rect width="299" height="413" fill="white"/>
</clipPath>
</defs>
</svg>
