<svg width="326" height="250" viewBox="0 0 326 250" fill="none" xmlns="http://www.w3.org/2000/svg">
<path d="M215.245 67.9333L227.29 53.5631L294.205 35.9V87.7216L270.4 92.2993L215.245 67.9333Z" fill="#272727"/>
<path d="M240.561 63.7139L215.245 67.9333L255.741 89.6333L278.278 82.0555L240.561 63.7139Z" fill="#D66440"/>
<path d="M325.053 102.722L302.403 107.493L270.4 92.2993L294.205 87.7216L325.053 102.722Z" fill="#D66440"/>
<path d="M325.053 102.722V55.9156L294.205 35.9V87.7216L325.053 102.722Z" fill="#E9A98E"/>
<path d="M165.644 40.3778V25.9111L240.561 0.353333V63.7139L211.456 69.3111L165.644 40.3778Z" fill="#272727"/>
<path d="M313.756 113.228L150.833 30.9055V76.3722L216.967 109.649V195.722L274.144 222.933V138.417L313.756 158.35V113.228Z" fill="#E9A98E"/>
<path d="M150.833 76.3722L105.711 96.5222L170.811 129.589L216.967 109.649L150.833 76.3722Z" fill="#383744"/>
<path d="M75.4 182.289L128.272 209.824L170.811 183.701V175.744L105.711 139.695V165.101L75.4 182.289Z" fill="#383744"/>
<path d="M116.286 145.619V169.517L84.4623 187.456L65.0667 177.177L95.3778 159.69V133.839L116.286 145.619Z" fill="#181726"/>
<path d="M216.967 109.649V195.722L154.278 226.033V185.454L170.811 175.744V129.589L216.967 109.649Z" fill="#D66440"/>
<path d="M105.711 114.609L170.811 151.272V175.744L105.711 139.695V165.101L64.3778 144.744V18.4504L105.711 43.5363V114.609Z" fill="#E9A98E"/>
<path d="M170.811 129.589L105.711 96.5222V114.609L170.811 151.272V129.589Z" fill="#181726"/>
<path d="M105.711 50.0222L150.833 30.9055V76.3722L105.711 96.5222V50.0222Z" fill="#D66440"/>
<path d="M64.3778 144.744L10.3 166.444L51.2889 187.456L105.711 165.101L64.3778 144.744Z" fill="#383744"/>
<path d="M8.92224 43.4777L64.3778 18.4504V144.744L10.3 166.444L10.2759 166.486L8.92224 43.4777Z" fill="#D66440"/>
<path d="M2.03333 41.0667L65.9863 12.1333L109.424 41.0667V30.9055L66.1 2.83331L2.03333 30.9055V41.0667Z" fill="white"/>
<path d="M2.03333 41.0666L8.92221 43.4777L64.3778 18.4504L105.711 43.5363L109.424 41.0666L65.9863 12.1333L2.03333 41.0666Z" fill="#383744"/>
<path d="M154.278 226.033L216.967 195.722L274.144 222.933L216.967 249.797L154.278 226.033Z" fill="#181726"/>
<path d="M0.655518 83.0888L6.16663 84.4666L79.6986 62.46L109.5 89.6333L159.1 67.9333V33.8333L156 32.1248L143.6 42.4444L112.255 56.9111L99.9485 50.5147L0.655518 83.0888Z" fill="#272727"/>
<path d="M7.19999 76.4652L10.2518 75.5111V53.5631H6.60754L7.19999 76.4652Z" fill="#383744"/>
<path d="M7.19995 55.1889L10.2517 57.0558L73.3333 45.2V42.7166L7.19995 55.1889Z" fill="#383744"/>
<path d="M156 32.1111L109.5 54.1555L79.6986 38.6245L0.655518 51.4V83.0889L79.1888 58.9778L109.424 85.5241L156 65.1778V32.1111ZM71.9211 54.8444L7.19996 75.5111V55.1889L71.9211 43.5363V54.8444Z" fill="white"/>
<path d="M278.278 82.0555V24.8261L240.561 0.353333V63.7139L278.278 82.0555Z" fill="#E9A98E"/>
<path d="M64.3778 63.7138V67.0446L79.6987 62.4601L105.711 86.1786V82.2622L79.1889 58.9777L64.3778 63.7138Z" fill="#383744"/>
<path d="M64.3778 44.8934V46.8843L71.9212 45.4652V43.5363L64.3778 44.8934Z" fill="#383744"/>
<path d="M246.761 15.285V34.784L254.167 38.6039V20.3276L246.761 15.285Z" fill="white"/>
<path d="M32.5684 97.0526L16.5758 103.411L22.0111 107.2L32.5684 103.204V97.0526Z" fill="#272727"/>
<path d="M16.5758 103.411V142.106L22.0111 139.578V107.2L16.5758 103.411Z" fill="#E9A98E"/>
<path d="M32.5683 103.204L22.0111 107.2V139.578L32.5683 134.945" fill="#363541"/>
<path d="M56.4555 88.445L39.6536 94.8L45.3644 98.5889L56.4555 94.5933V88.445Z" fill="#272727"/>
<path d="M39.6536 94.8V133.495L45.3645 130.967V98.5888L39.6536 94.8Z" fill="#E9A98E"/>
<path d="M56.4555 94.5933L45.3644 98.5889V130.967L56.4555 126.334" fill="#363541"/>
<path d="M227.3 114.089V187.456L253.822 200.2V129.589L227.3 114.089Z" fill="#383744"/>
<path d="M227.3 114.089L253.822 129.589L243.386 134.411L227.3 125.766V114.089Z" fill="#181726"/>
<path d="M243.386 134.411L253.822 129.589V200.2L243.386 195.185V134.411Z" fill="#D66440"/>
<path d="M309.656 53.4666V86.6297L321.643 92.3888V60.4726L309.656 53.4666Z" fill="#383744"/>
<path d="M309.656 53.4666L321.643 60.4726L316.928 62.653L309.656 58.7435V53.4666Z" fill="#181726"/>
<path d="M316.928 62.653L321.643 60.4726V92.3888L316.928 90.1224V62.653Z" fill="#D66440"/>
<path d="M258.149 22.4666V62.3774L272.574 69.3111V30.8987L258.149 22.4666Z" fill="#383744"/>
<path d="M258.149 22.4666L272.574 30.8987L266.897 33.5233L258.149 28.8182V22.4666Z" fill="#181726"/>
<path d="M266.897 33.5233L272.574 30.8986V69.3111L266.897 66.5831V33.5233Z" fill="#D66440"/>
<path d="M313.756 158.35L274.145 179.881V138.417L313.756 158.35Z" fill="#383744"/>
</svg>
