<svg width="616" height="460" viewBox="0 0 616 460" fill="none" xmlns="http://www.w3.org/2000/svg">
<g clip-path="url(#clip0_3_10)">
<path fill-rule="evenodd" clip-rule="evenodd" d="M0 253.071L164.557 132.051L213.498 168.044L80.8599 265.591L93.6272 274.98L226.266 177.433L329.114 253.071L164.557 374.092L0 253.071ZM239.033 233.771L106.395 331.318L119.162 340.707L251.8 243.16L239.033 233.771Z" fill="#C4C4C4"/>
<mask id="mask0_3_10" style="mask-type:alpha" maskUnits="userSpaceOnUse" x="0" y="132" width="330" height="243">
<path fill-rule="evenodd" clip-rule="evenodd" d="M0 253.071L164.557 132.051L213.498 168.044L80.8599 265.591L93.6272 274.98L226.266 177.433L329.114 253.071L164.557 374.092L0 253.071ZM239.033 233.771L106.395 331.318L119.162 340.707L251.8 243.16L239.033 233.771Z" fill="#C4C4C4"/>
</mask>
<g mask="url(#mask0_3_10)">
<path d="M-24.0742 256.724L165.01 126.887V208.773L93.7897 260.413V351.889L-24.0742 256.724Z" fill="#D66440"/>
<path d="M80.7494 265.577L225.195 175.944L226.198 257.093L80.2478 353.364L80.7494 265.577Z" fill="#6AD8D7"/>
<path d="M291.901 221.683L164.508 127.624V309.471L223.691 270.003L291.901 221.683Z" fill="#E9A98D"/>
<path d="M225.697 258.568V158.977L341.555 264.101L286.886 300.987L225.697 341.192V258.568Z" fill="#6AD8D7"/>
<path d="M93.7896 274.798L226.198 175.576V253.773L93.7896 349.307V274.798Z" fill="#44B5C5"/>
<path d="M113.35 345.25L251.777 243.076V316.11L113.35 406.111V345.25Z" fill="#393744"/>
</g>
<path fill-rule="evenodd" clip-rule="evenodd" d="M346.117 -4.95911e-05L181.561 121.021L346.117 242.042L510.674 121.021L346.117 -4.95911e-05ZM361.722 99.1119L256.746 176.315L270.223 186.226L375.199 109.023L361.722 99.1119Z" fill="#E9A98D"/>
<mask id="mask1_3_10" style="mask-type:alpha" maskUnits="userSpaceOnUse" x="181" y="0" width="330" height="243">
<path fill-rule="evenodd" clip-rule="evenodd" d="M346.117 -4.95911e-05L181.561 121.021L346.117 242.042L510.674 121.021L346.117 -4.95911e-05ZM361.722 99.1119L256.746 176.315L270.223 186.226L375.199 109.023L361.722 99.1119Z" fill="#C4C4C4"/>
</mask>
<g mask="url(#mask1_3_10)">
<path d="M258.297 189.592L375.158 109.181V232.38L345.065 243.076L258.297 189.592Z" fill="#44B5C5"/>
<path d="M180.056 120.616L346.068 -3.68863V113.608L256.793 175.944L180.056 120.616Z" fill="#D66440"/>
</g>
<path d="M243.6 424.757L257.803 414.311L234.523 397.191L262.341 376.733L285.62 393.853L299.739 383.47L240.91 340.205L226.791 350.588L248.894 366.844L221.076 387.302L198.974 371.046L184.771 381.492L243.6 424.757Z" fill="#191826"/>
<path d="M310.614 375.349L325.069 364.718L311.706 345.001L327.59 333.32L355.156 342.591L369.611 331.96L288.09 305.259L273.047 316.323L310.614 375.349ZM316.58 326.83L302.714 337.028L296.999 324.914C295.906 322.875 292.713 321.268 290.528 319.661L292.797 317.992C294.982 319.599 297.167 321.947 300.024 322.689L316.58 326.83Z" fill="#191826"/>
<path d="M411.406 303.2C431.24 288.614 430.736 276.87 418.13 265.498L404.095 275.82C406.196 278.972 410.23 283.793 397.203 293.373C387.791 300.295 375.352 302.891 362.914 293.744C350.392 284.534 354.09 275.387 363.587 268.403C375.689 259.502 382.076 262.469 386.362 264.138L400.397 253.816C388.715 246.214 370.478 243.062 349.468 258.514C331.399 271.802 331.231 291.209 348.627 304.127C366.276 316.983 393.001 316.736 411.406 303.2Z" fill="#191826"/>
<path d="M430.813 225.884C430.477 228.48 432.578 231.385 433.755 233.734L430.729 234.599C429.469 232.189 428.628 228.975 426.107 227.12L410.391 215.562L396.776 225.575L455.606 268.84L469.22 258.827L447.117 242.572L448.378 232.621L496.03 239.111L513.594 226.193L451.235 218.776L452.412 184.659L434.259 198.009L430.813 225.884Z" fill="#191826"/>
<path d="M526.38 140.52C510.496 142.683 501.084 147.01 492.848 153.067C476.544 165.057 473.35 178.408 482.006 184.774C500.496 198.371 536.801 171.423 545.374 177.728C548.483 180.015 546.971 184.218 540.751 188.791C530.162 196.579 524.447 197.197 515.455 197.877L514.867 211.413C532.599 210.98 541.088 207.828 551.341 200.287C570.166 186.443 574.116 172.042 563.779 164.439C541.928 148.369 504.109 177.913 496.966 172.66C494.529 170.867 496.209 167.282 500.243 164.316C508.227 158.444 515.875 155.045 526.38 154.117V140.52Z" fill="#191826"/>
<path d="M288.005 448.153L282.635 452.154L278.568 455.218L257.755 437.753L267.315 430.55C273.384 425.976 282.161 425.945 288.216 431.026C294.271 436.107 294.104 443.604 288.005 448.153ZM279.045 448.368L283.112 445.304C287.269 442.171 287.279 437.249 283.874 434.391C280.468 431.533 274.817 431.48 270.659 434.613L266.441 437.792L279.045 448.368ZM310.924 431.578C304.49 436.427 297.537 436.102 293.2 432.463C288.862 428.824 289.336 423.228 294.677 419.203C300.201 415.041 307.18 415.484 311.196 418.902C311.516 419.17 312.245 419.734 312.448 419.952L299.671 429.58C301.097 430.777 304.21 431.213 307.093 429.041C308.944 427.646 309.428 426.215 309.178 425.522L314.064 421.84C315.123 423.453 315.901 427.828 310.924 431.578ZM297.139 427.455L304.908 421.6C303.045 420.037 300.25 419.964 297.913 421.725C295.546 423.509 295.45 426.038 297.139 427.455ZM313.53 417.143C308.669 413.063 309.181 408.273 314.189 404.5C319.378 400.589 325.171 400.907 328.589 403.291L324.007 406.745C324.007 406.745 320.885 405.527 317.91 407.815C315.573 409.576 315.304 411.912 317.72 413.939C320.076 415.965 323.255 416.119 325.714 414.267C328.656 412.096 327.416 409.461 327.416 409.461L331.999 406.007C334.772 409.156 334.714 413.651 329.737 417.401C324.639 421.243 318.392 421.222 313.53 417.143ZM349.54 402.478C343.107 407.327 336.154 407.003 331.816 403.363C327.479 399.724 327.953 394.128 333.294 390.103C338.817 385.941 345.797 386.384 349.813 389.802C350.133 390.071 350.862 390.634 351.065 390.852L338.288 400.48C339.714 401.677 342.827 402.113 345.71 399.941C347.561 398.546 348.045 397.115 347.795 396.422L352.681 392.74C353.74 394.353 354.517 398.728 349.54 402.478ZM335.755 398.355L343.525 392.5C341.662 390.937 338.867 390.864 336.53 392.625C334.163 394.409 334.067 396.938 335.755 398.355ZM360.477 371.706C360.719 370.41 361.382 368.937 362.93 367.771C366.147 365.346 370.293 364.911 373.612 367.695L383.597 376.073L379.348 379.275L371.75 372.9C368.897 370.506 366.737 370.095 364.916 371.467C362.943 372.953 363.374 374.668 366.227 377.062L373.824 383.437L369.576 386.639L361.978 380.264C359.125 377.87 356.964 377.458 355.113 378.853C353.08 380.386 353.268 382.284 356.121 384.677L363.719 391.053L359.47 394.254L344.915 382.041L349.164 378.84L349.338 378.986C350.619 380.061 351.584 381.837 352.412 383.161L353.344 382.783C352.516 381.459 350.863 379.831 350.961 378.366C350.993 377.136 351.732 376.209 353.219 375.089C354.554 374.082 355.91 373.432 357.339 373.374C359.215 373.305 360.534 375.186 361.574 376.396L362.449 375.922C361.41 374.712 360.171 373.141 360.477 371.706ZM369.821 352.842L377.506 359.291C378.379 360.023 378.851 361.29 379.363 362.203L380.294 361.872C379.782 360.959 378.741 359.844 378.767 358.85C378.783 357.076 379.545 355.25 381.548 353.741C385.888 350.471 392.623 351.144 396.878 354.521C401.338 358.022 401.527 363.304 397.005 366.711C394.972 368.243 392.724 368.871 390.497 368.741C389.248 368.709 387.934 367.751 386.816 367.296L386.32 368.04C387.439 368.496 389.004 368.939 389.877 369.672L390.925 370.551L386.647 373.728L365.543 356.019L369.821 352.842ZM392.553 364.039C395.103 362.118 394.929 359.652 392.717 357.796C390.505 355.939 387.214 355.498 384.665 357.419C382.115 359.34 382.462 362 384.675 363.856C386.887 365.712 390.004 365.96 392.553 364.039ZM416.075 352.341C409.641 357.189 402.688 356.865 398.351 353.226C394.014 349.586 394.488 343.99 399.829 339.965C405.352 335.803 412.332 336.246 416.348 339.664C416.668 339.933 417.397 340.496 417.599 340.715L404.823 350.342C406.249 351.539 409.361 351.976 412.244 349.803C414.096 348.408 414.579 346.977 414.33 346.285L419.216 342.603C420.274 344.216 421.052 348.59 416.075 352.341ZM402.29 348.217L410.059 342.363C408.196 340.8 405.402 340.727 403.065 342.487C400.698 344.271 400.602 346.801 402.29 348.217ZM418.27 328.202C418.833 326.016 420.421 324.448 423.243 322.321L427.028 325.497C423.143 328.424 420.385 332.635 424.431 336.03L430.253 340.915L426.005 344.117L411.45 331.904L415.698 328.702L415.873 328.849C417.154 329.923 417.941 331.695 418.559 333.084L419.517 332.825C418.899 331.436 417.905 329.635 418.27 328.202ZM443.969 314.214C444.095 313.933 444.37 313.68 444.643 313.474C445.189 313.063 445.882 312.726 446.368 312.36L445.67 311.726C444.912 312.298 444.114 313.224 443.125 313.506C440.218 314.305 437.515 314.163 435.331 312.331C432.304 309.791 433.371 305.417 437.771 302.101C442.172 298.785 447.72 298.221 450.776 300.786C452.93 302.593 453.021 304.796 451.711 307.128C451.555 307.384 451.281 307.638 450.978 307.866C450.431 308.278 449.767 308.639 449.282 309.005L450.04 309.593C450.556 309.204 451.077 308.626 451.653 308.192C451.896 308.009 452.198 307.827 452.469 307.716C455.742 306.548 458.358 306.616 461.211 309.01C464.879 312.087 463.968 316.205 458.809 320.092C453.71 323.934 448.639 324.464 445.117 321.509C442.351 319.188 442.351 316.917 443.969 314.214ZM445.484 308.622C447.669 306.975 448.131 305.236 446.617 303.966C445.191 302.769 443.22 303.049 440.944 304.764C438.638 306.502 438.211 308.029 439.666 309.25C441.151 310.496 443.329 310.245 445.484 308.622ZM455.667 317.36C458.368 315.325 458.448 313.41 456.876 312.091C455.304 310.772 453.099 310.903 450.459 312.893C447.789 314.906 447.443 316.742 449.044 318.086C450.558 319.356 452.966 319.395 455.667 317.36ZM463.24 305.488L459.746 302.557L468.305 296.108L471.798 299.039L463.24 305.488ZM488.45 282.086C489.312 284.357 489.144 286.245 485.897 288.692C481.83 291.757 475.884 292.761 471.459 289.048C467.675 285.873 467.491 280.401 472.771 276.422C479.994 270.979 486.529 272.499 492.497 277.507C499.803 283.638 499.958 289.084 494.708 293.041C488.092 298.026 482.296 296.691 479.275 295.027L484.01 291.459C485.372 291.684 487.753 291.652 490.333 289.708C493.094 287.627 492.601 284.892 489.143 281.749C488.358 281.043 487.824 279.869 487.22 279.072L486.317 279.475C486.95 280.296 488.117 281.178 488.45 282.086ZM483.822 279.315C482.25 277.996 479.603 277.95 477.024 279.894C474.444 281.838 474.214 283.819 475.931 285.261C477.62 286.677 480.215 286.39 482.795 284.446C485.375 282.503 485.365 280.609 483.822 279.315ZM509.173 281.445L508.111 282.245L504.763 279.436L508.86 276.349L512.179 279.134C514.042 280.697 514.037 283.158 511.609 284.987L509.862 283.522C510.682 282.904 510.847 282.27 510.772 281.723C510.671 281.058 510.899 280.283 511.066 279.601L510.03 279.409C509.863 280.09 509.81 280.965 509.173 281.445ZM524.772 261.252C524.747 262.198 523.916 263.289 523.416 264.175L524.359 264.531C524.858 263.645 525.307 262.426 526.187 261.763L534.047 255.84L538.355 259.455L522.817 271.163L518.8 267.793C518.8 267.793 518.821 263.557 519.412 256.9C520.04 249.983 516.086 249.856 514.083 251.365C511.716 253.149 513.821 255.689 514.986 256.666L510.433 260.096C507.464 257.604 504.553 251.778 511.351 246.655C516.601 242.699 524.948 245.45 524.926 250.844C524.97 254.845 524.861 259.007 524.772 261.252ZM530.072 249.469C524.018 244.389 522.573 238.198 528.704 233.579C534.834 228.959 542.53 230.439 548.585 235.519C554.64 240.6 556.113 246.815 549.983 251.434C543.852 256.054 536.127 254.55 530.072 249.469ZM534.806 245.949C538.095 248.709 542.427 250.266 545.675 247.819C548.952 245.349 547.199 241.849 543.91 239.088C540.591 236.304 536.348 234.773 533.07 237.243C529.823 239.69 531.487 243.165 534.806 245.949ZM560.751 234.14C560.726 235.086 559.895 236.176 559.395 237.063L560.338 237.418C560.837 236.532 561.286 235.314 562.166 234.65L570.026 228.727L574.334 232.342L558.796 244.051L554.779 240.68C554.779 240.68 554.8 236.445 555.391 229.788C556.019 222.871 552.065 222.743 550.062 224.253C547.695 226.036 549.8 228.576 550.965 229.553L546.413 232.984C543.443 230.492 540.532 224.666 547.33 219.543C552.58 215.587 560.927 218.337 560.905 223.732C560.949 227.732 560.84 231.894 560.751 234.14ZM583.072 209.717C586.095 209.015 588.795 209.299 590.657 210.909C594.645 214.256 593.945 218.26 587.875 222.834C580.743 228.208 575.246 226.834 571.691 223.996L576.091 220.68C578.245 222.487 581.377 222.167 584.443 219.857C587.902 217.25 587.595 215.349 585.412 213.517C583.52 211.929 582.002 213.073 576.327 217.349L572.543 214.174C578.006 210.057 579.027 208.546 576.901 206.81C575.154 205.345 573.123 205.67 570.179 207.888C567.326 210.038 566.847 212.439 569.001 214.247L564.6 217.563C561.227 214.587 559.675 210.24 566.625 205.003C572.482 200.589 576.875 199.829 580.863 203.175C582.61 204.641 582.977 206.543 581.966 208.789C581.555 209.701 580.198 210.399 579.318 211.062L580.015 211.696C580.926 211.009 581.904 209.994 583.072 209.717Z" fill="#D66440"/>
</g>
<defs>
<clipPath id="clip0_3_10">
<rect width="616" height="460" fill="white"/>
</clipPath>
</defs>
</svg>
