<svg width="616" height="460" viewBox="0 0 616 460" fill="none" xmlns="http://www.w3.org/2000/svg">
<path fill-rule="evenodd" clip-rule="evenodd" d="M0 253.071L164.557 132.051L213.498 168.044L80.8599 265.591L93.6272 274.98L226.266 177.433L329.114 253.071L164.557 374.092L0 253.071ZM239.033 233.771L106.395 331.318L119.162 340.707L251.8 243.16L239.033 233.771Z" fill="#C4C4C4"/>
<mask id="mask0" mask-type="alpha" maskUnits="userSpaceOnUse" x="0" y="132" width="330" height="243">
<path fill-rule="evenodd" clip-rule="evenodd" d="M0 253.071L164.557 132.051L213.498 168.044L80.8599 265.591L93.6272 274.98L226.266 177.433L329.114 253.071L164.557 374.092L0 253.071ZM239.033 233.771L106.395 331.318L119.162 340.707L251.8 243.16L239.033 233.771Z" fill="#C4C4C4"/>
</mask>
<g mask="url(#mask0)">
<path d="M-24.0742 256.724L165.01 126.887V208.773L93.7897 260.413L93.7897 351.889L-24.0742 256.724Z" fill="#D66440"/>
<path d="M80.7494 265.577L225.195 175.944L226.198 257.093L80.2478 353.364L80.7494 265.577Z" fill="#6AD8D7"/>
<path d="M291.901 221.683L164.508 127.624V309.471L223.691 270.003L291.901 221.683Z" fill="#E9A98D"/>
<path d="M225.697 258.568V158.977L341.555 264.101L286.886 300.987L225.697 341.192V258.568Z" fill="#6AD8D7"/>
<path d="M93.7896 274.798L226.198 175.576V253.773L93.7896 349.307L93.7896 274.798Z" fill="#44B5C5"/>
<path d="M113.35 345.25L251.777 243.076V316.11L113.35 406.111L113.35 345.25Z" fill="#393744"/>
</g>
<path fill-rule="evenodd" clip-rule="evenodd" d="M346.117 -5.10206e-05L181.561 121.021L346.117 242.042L510.674 121.021L346.117 -5.10206e-05ZM361.722 99.1119L256.746 176.315L270.223 186.226L375.199 109.023L361.722 99.1119Z" fill="#E9A98D"/>
<mask id="mask1" mask-type="alpha" maskUnits="userSpaceOnUse" x="181" y="0" width="330" height="243">
<path fill-rule="evenodd" clip-rule="evenodd" d="M346.117 -5.10206e-05L181.561 121.021L346.117 242.042L510.674 121.021L346.117 -5.10206e-05ZM361.722 99.1119L256.746 176.315L270.223 186.226L375.199 109.023L361.722 99.1119Z" fill="#C4C4C4"/>
</mask>
<g mask="url(#mask1)">
<path d="M258.297 189.592L375.158 109.181V232.38L345.065 243.076L258.297 189.592Z" fill="#44B5C5"/>
<path d="M180.056 120.616L346.068 -3.68863V113.608L256.793 175.944L180.056 120.616Z" fill="#D66440"/>
</g>
<path d="M243.6 424.757L257.803 414.311L234.523 397.191L262.341 376.733L285.62 393.853L299.739 383.47L240.91 340.205L226.791 350.588L248.894 366.844L221.076 387.302L198.974 371.046L184.771 381.492L243.6 424.757Z" fill="#191826"/>
<path d="M310.614 375.349L325.069 364.718L311.706 345.001L327.59 333.32L355.156 342.591L369.611 331.96L288.09 305.259L273.047 316.323L310.614 375.349ZM316.58 326.83L302.714 337.028L296.999 324.914C295.906 322.875 292.713 321.268 290.528 319.661L292.797 317.992C294.982 319.599 297.167 321.947 300.024 322.689L316.58 326.83Z" fill="#191826"/>
<path d="M411.406 303.2C431.24 288.614 430.736 276.87 418.13 265.498L404.095 275.82C406.196 278.972 410.23 283.793 397.203 293.373C387.791 300.295 375.352 302.891 362.914 293.744C350.392 284.534 354.09 275.387 363.587 268.403C375.689 259.502 382.076 262.469 386.362 264.138L400.397 253.816C388.715 246.214 370.478 243.062 349.468 258.514C331.399 271.802 331.231 291.209 348.627 304.127C366.276 316.983 393.001 316.736 411.406 303.2Z" fill="#191826"/>
<path d="M430.813 225.884C430.477 228.48 432.578 231.385 433.755 233.734L430.729 234.599C429.469 232.189 428.628 228.975 426.107 227.12L410.391 215.562L396.776 225.575L455.606 268.84L469.22 258.827L447.117 242.572L448.378 232.621L496.03 239.111L513.594 226.193L451.235 218.776L452.412 184.659L434.259 198.009L430.813 225.884Z" fill="#191826"/>
<path d="M526.38 140.52C510.496 142.683 501.084 147.01 492.848 153.067C476.544 165.057 473.35 178.408 482.006 184.774C500.496 198.371 536.801 171.423 545.374 177.728C548.483 180.015 546.971 184.218 540.751 188.791C530.162 196.579 524.447 197.197 515.455 197.877L514.867 211.413C532.599 210.98 541.088 207.828 551.341 200.287C570.166 186.443 574.116 172.042 563.779 164.439C541.928 148.369 504.109 177.913 496.966 172.66C494.529 170.867 496.209 167.282 500.243 164.316C508.227 158.444 515.875 155.045 526.38 154.117V140.52Z" fill="#191826"/>
<path d="M275.649 429.699L271.21 426.434L255.965 437.646L277.394 453.406L281.985 450.029L274.302 444.378L283.271 437.781L278.832 434.517L269.863 441.113L264.995 437.534L275.649 429.699Z" fill="#D66440"/>
<path d="M305.118 433.736C310.139 430.044 309.22 425.902 308.087 424.393L303.159 428.018C303.434 428.671 302.975 430.044 301.108 431.418C298.2 433.556 294.985 433.219 293.485 432.115L306.373 422.637C306.159 422.435 305.394 421.917 305.057 421.669C300.832 418.517 293.638 418.27 288.067 422.367C282.679 426.329 282.342 431.665 286.904 435.02C291.465 438.374 298.628 438.509 305.118 433.736ZM290.822 430.157C289.046 428.851 289.077 426.442 291.465 424.686C293.822 422.952 296.7 422.952 298.659 424.393L290.822 430.157Z" fill="#D66440"/>
<path d="M297.983 405.619L293.667 408.748L315.861 425.07L320.177 421.941L319.075 421.131C318.157 420.455 316.534 420.072 315.371 419.667L315.861 418.947C317.024 419.352 318.402 420.23 319.687 420.23C321.983 420.298 324.279 419.645 326.33 418.136C330.892 414.782 330.555 409.761 325.871 406.542C321.402 403.435 314.453 402.962 310.075 406.182C308.054 407.667 307.32 409.423 307.35 411.112C307.35 412.058 308.452 413.093 309.003 413.949L308.054 414.286C307.503 413.431 306.983 412.238 306.065 411.562L297.983 405.619ZM321.677 415.705C319.106 417.596 315.891 417.438 313.565 415.727C311.238 414.016 310.81 411.495 313.381 409.604C315.953 407.712 319.351 408.05 321.677 409.761C324.004 411.472 324.249 413.814 321.677 415.705Z" fill="#D66440"/>
<path d="M327.444 395.479C327.107 396.853 328.178 398.541 328.852 399.847L327.872 400.117C327.199 398.811 326.342 397.145 324.995 396.155L324.811 396.02L320.525 399.172L335.831 410.428L340.117 407.276L333.995 402.774C329.74 399.644 332.464 395.569 336.382 392.688L332.403 389.761C329.556 391.855 327.964 393.385 327.444 395.479Z" fill="#D66440"/>
<path d="M359.94 391.392C359.971 390.469 358.991 389.433 358.471 388.6L359.45 388.285C359.971 389.118 360.399 390.289 361.256 390.964L361.777 391.347L366.063 388.195L350.756 376.938L346.471 380.09L354.246 385.809C357.185 387.97 357.063 389.996 354.828 391.64C352.777 393.148 350.236 393.441 347.052 391.099L339.277 385.381L334.991 388.533L345.491 396.255C348.95 398.799 353.726 397.944 356.818 395.67C358.961 394.094 359.909 393.126 359.94 391.392Z" fill="#D66440"/>
<path d="M379.298 376.21C379.206 375.242 378.043 374.251 377.431 373.396L378.38 373.058C378.992 373.869 379.543 375.084 380.461 375.76L381.716 376.683L386.002 373.531L370.696 362.274L366.41 365.426L367.573 366.282C368.492 366.957 370.114 367.34 371.247 367.767L370.757 368.488C369.594 368.038 368.247 367.182 366.931 367.16C364.635 367.092 362.369 367.722 360.349 369.208C355.849 372.518 356.094 377.426 360.655 380.78C365.216 384.135 372.104 384.473 376.604 381.163C378.655 379.655 379.451 377.944 379.298 376.21ZM364.941 377.628C362.614 375.917 362.492 373.486 364.635 371.91C367.114 370.086 370.145 370.379 372.471 372.09C374.737 373.801 375.074 376.435 372.931 378.011C370.788 379.587 367.237 379.317 364.941 377.628Z" fill="#D66440"/>
<path d="M380.687 356.322C380.35 357.696 381.422 359.384 382.095 360.69L381.115 360.96C380.442 359.654 379.585 357.988 378.238 356.998L378.054 356.863L373.768 360.014L389.075 371.271L393.361 368.119L387.238 363.617C382.983 360.487 385.707 356.412 389.626 353.531L385.646 350.604C382.799 352.698 381.207 354.228 380.687 356.322Z" fill="#D66440"/>
<path d="M393.285 345.661L387.928 349.601L409.939 354.802L410.673 356.648C411.377 358.426 411.561 359.687 409.724 361.038L407.153 362.929L411.439 366.081L416.122 362.636C418.633 360.79 418.235 358.111 416.673 354.892C416.183 353.811 415.847 352.933 415.357 351.897L407.704 335.057L402.347 338.997L406.357 347.125C407.03 348.52 408.806 349.826 410.183 350.839L409.418 351.402C408.041 350.389 406.234 349.106 404.367 348.588L393.285 345.661Z" fill="#D66440"/>
<path d="M424.179 324.112C424.577 323.234 423.842 322.108 423.475 321.207L424.515 320.982C424.883 321.883 425.189 323.009 426.107 323.684L439.944 333.86L444.536 330.483L423.107 314.724L417.658 318.731C419.709 320.239 419.526 322.761 417.291 324.404L421.424 327.444C422.556 326.611 423.597 325.35 424.179 324.112Z" fill="#D66440"/>
<path d="M456.085 307.446C455.718 306.59 454.493 305.78 453.82 305.014L454.738 304.609C455.381 305.352 455.963 306.455 456.789 307.108C460.432 310.012 461.014 312.601 458.228 314.65C455.626 316.564 453.177 316.654 451.769 316.474L446.993 319.986C450.146 321.494 456.146 322.62 462.82 317.712C468.116 313.817 467.81 308.639 460.126 302.988C453.85 298.373 447.085 297.089 439.799 302.448C434.473 306.365 434.809 311.566 438.789 314.492C443.442 317.915 449.534 316.811 453.636 313.795C456.912 311.386 457.034 309.584 456.085 307.446ZM451.248 304.924C452.871 306.117 452.932 307.918 450.33 309.832C447.728 311.746 445.065 312.083 443.289 310.778C441.483 309.449 441.667 307.558 444.269 305.645C446.871 303.731 449.595 303.708 451.248 304.924Z" fill="#D66440"/>
<path d="M470.505 301.119L479.138 294.77L475.464 292.068L466.831 298.417L470.505 301.119Z" fill="#D66440"/>
<path d="M491.316 287.885C491.346 285.746 491.346 281.783 491.193 277.979C491.071 272.846 482.408 270.437 477.112 274.331C470.254 279.374 473.407 284.845 476.53 287.142L481.122 283.765C479.897 282.864 477.663 280.5 480.05 278.744C482.071 277.258 486.142 277.281 485.683 283.877C485.255 290.226 485.346 294.256 485.346 294.256L489.571 297.363L505.245 285.836L500.714 282.504L492.785 288.335C491.897 288.988 491.469 290.159 490.979 291.014L490 290.699C490.489 289.843 491.316 288.785 491.316 287.885Z" fill="#D66440"/>
<path d="M499.544 268.685C499.942 267.807 499.208 266.681 498.84 265.781L499.881 265.556C500.249 266.456 500.555 267.582 501.473 268.257L515.31 278.433L519.902 275.056L498.473 259.297L493.024 263.304C495.075 264.813 494.891 267.334 492.657 268.978L496.789 272.017C497.922 271.184 498.963 269.923 499.544 268.685Z" fill="#D66440"/>
<path d="M527.288 269.625C527.931 269.152 527.961 268.319 528.114 267.666L529.186 267.824C529.033 268.476 528.818 269.219 528.941 269.85C529.033 270.368 528.88 270.975 528.053 271.583L529.89 272.934C532.339 271.133 532.278 268.792 530.318 267.351L526.828 264.784L522.696 267.824L526.216 270.413L527.288 269.625Z" fill="#D66440"/>
<path d="M542.795 250.025C542.826 247.886 542.826 243.924 542.673 240.119C542.55 234.986 533.887 232.577 528.591 236.472C521.734 241.515 524.887 246.985 528.009 249.282L532.601 245.905C531.377 245.004 529.142 242.64 531.53 240.884C533.55 239.398 537.622 239.421 537.163 246.017C536.734 252.366 536.826 256.396 536.826 256.396L541.05 259.503L556.724 247.976L552.193 244.644L544.265 250.475C543.377 251.128 542.948 252.299 542.459 253.154L541.479 252.839C541.969 251.983 542.795 250.925 542.795 250.025Z" fill="#D66440"/>
<path d="M547.932 238.682C554.3 243.365 562.289 244.604 568.473 240.056C574.657 235.508 572.973 229.632 566.606 224.949C560.238 220.266 552.279 219.051 546.095 223.598C539.912 228.146 541.565 234 547.932 238.682ZM552.708 235.215C549.218 232.649 547.412 229.384 550.687 226.975C553.993 224.544 558.402 225.895 561.891 228.461C565.351 231.005 567.249 234.292 563.943 236.724C560.667 239.133 556.167 237.759 552.708 235.215Z" fill="#D66440"/>
<path d="M579.088 223.334C579.119 221.195 579.119 217.233 578.966 213.428C578.843 208.295 570.18 205.886 564.884 209.781C558.027 214.824 561.18 220.294 564.302 222.591L568.894 219.214C567.67 218.313 565.435 215.949 567.823 214.193C569.843 212.707 573.915 212.73 573.455 219.326C573.027 225.675 573.119 229.705 573.119 229.705L577.343 232.812L593.017 221.285L588.486 217.953L580.558 223.784C579.67 224.437 579.241 225.608 578.751 226.463L577.772 226.148C578.262 225.293 579.088 224.234 579.088 223.334Z" fill="#D66440"/>
<path d="M587.317 204.134C587.715 203.256 586.98 202.131 586.613 201.23L587.653 201.005C588.021 201.905 588.327 203.031 589.245 203.707L603.082 213.883L607.674 210.506L586.245 194.746L580.796 198.753C582.847 200.262 582.664 202.783 580.429 204.427L584.562 207.466C585.694 206.633 586.735 205.373 587.317 204.134Z" fill="#D66440"/>
</svg>
