<svg width="1440" height="383" viewBox="0 0 1440 383" fill="none" xmlns="http://www.w3.org/2000/svg">
<path d="M779 181.531C779 228.768 740.944 205.041 694 205.041C647.056 205.041 609 228.768 609 181.531C609 134.294 647.056 96 694 96C740.944 96 779 134.294 779 181.531Z" fill="#D66440"/>
<path d="M1632.27 243.258C1635.12 253.453 1638.02 263.836 1639 274.397C1640.41 273.689 1193.15 276.056 1194 274.397C1196.88 268.791 1203.96 260.219 1204.67 253.803C1206.29 239.222 1212.39 223.359 1219.29 210.551C1225.12 199.745 1231.89 189.595 1238.32 179.167C1242.5 172.385 1244.44 163.862 1249.66 157.775C1257.64 148.467 1270.94 143.929 1275.53 131.692C1279.43 121.3 1279.37 109.808 1283.87 99.4172C1288.68 88.3143 1299.61 86.973 1309.08 81.1217C1318.61 75.2361 1322.47 67.4109 1327.08 57.7129C1332.47 46.3632 1340.25 36.6946 1347.27 26.376C1349.94 22.46 1352.25 17.708 1356.32 14.9765C1361.47 11.5193 1368.09 9.62676 1373.85 7.56447C1385.87 3.26018 1397.04 -0.228638 1409.88 0.0117181C1419.07 0.183682 1423.86 2.70211 1430.46 9.06564C1440.23 18.4903 1448.66 27.9688 1456.32 39.1828C1460.73 45.6363 1463.97 51.0943 1472.26 51.4736C1477.05 51.6931 1481.99 51.6752 1486.6 53.2563C1491.85 55.0581 1495.97 65.9443 1498.83 70.2851C1503.45 77.3121 1508.16 84.2759 1512.09 91.7237C1519.89 106.509 1527.04 118.692 1542.65 126.251C1550.19 129.905 1558.51 131.194 1566.08 134.601C1573.08 137.752 1578.62 144.595 1583.42 150.363C1590.92 159.372 1590.79 172.657 1595.27 183.295C1599.24 192.688 1604.49 201.794 1609.61 210.597C1613.82 217.832 1619.08 222.053 1624.98 227.579C1629.16 231.491 1630.57 237.173 1632.06 242.497L1632.27 243.258Z" fill="#181727"/>
<path d="M-54.4196 258.217C-57.1853 263.607 -60.0524 269.1 -60.9968 274.689C-62.3379 274.323 361.806 275.545 360.999 274.689C358.272 271.794 351.556 267.368 350.881 264.055C349.346 256.525 343.564 248.334 337.015 241.721C331.491 236.141 325.07 230.9 318.972 225.515C315.006 222.013 313.166 217.612 308.217 214.469C300.651 209.663 288.041 207.32 283.686 201.001C279.988 195.635 280.041 189.701 275.776 184.335C271.218 178.602 260.853 177.91 251.867 174.888C242.828 171.849 239.167 167.809 234.801 162.801C229.691 156.94 222.312 151.948 215.647 146.62C213.118 144.598 210.928 142.144 207.07 140.733C202.187 138.948 195.912 137.971 190.449 136.906C179.047 134.683 168.456 132.882 156.274 133.006C147.559 133.095 143.022 134.395 136.765 137.681C127.497 142.548 119.498 147.442 112.233 153.233C108.053 156.565 104.979 159.383 97.1236 159.579C92.5796 159.692 87.8932 159.683 83.5247 160.5C78.5461 161.43 74.6349 167.051 71.9256 169.293C67.5399 172.921 63.0748 176.517 59.3489 180.363C51.9522 187.997 45.1712 194.288 30.3735 198.191C23.2192 200.078 15.3321 200.744 8.15308 202.503C1.51267 204.13 -3.73681 207.664 -8.29002 210.642C-15.402 215.294 -15.2787 222.154 -19.5335 227.647C-23.2908 232.497 -28.2745 237.199 -33.1324 241.745C-37.1247 245.48 -42.1124 247.66 -47.709 250.514C-51.6699 252.533 -53.009 255.467 -54.4196 258.217Z" fill="#181727"/>
<path d="M415.035 261.999C412.498 266.175 409.869 270.429 409.003 274.759C407.773 274.476 796.739 275.422 795.999 274.759C793.498 272.516 787.339 269.088 786.72 266.521C785.312 260.689 780.01 254.344 774.004 249.22C768.938 244.898 763.05 240.838 757.458 236.667C753.821 233.954 752.133 230.545 747.595 228.11C740.656 224.387 729.092 222.571 725.098 217.677C721.707 213.52 721.756 208.923 717.844 204.767C713.664 200.326 704.159 199.789 695.918 197.449C687.629 195.094 684.272 191.964 680.268 188.085C675.582 183.545 668.815 179.678 662.703 175.55C660.383 173.984 658.375 172.083 654.837 170.991C650.359 169.608 644.604 168.851 639.595 168.026C629.138 166.304 619.425 164.909 608.254 165.005C600.261 165.073 596.101 166.081 590.363 168.626C581.864 172.396 574.528 176.188 567.866 180.673C564.032 183.255 561.213 185.438 554.009 185.589C549.842 185.677 545.544 185.67 541.538 186.303C536.972 187.023 533.386 191.378 530.901 193.114C526.879 195.925 522.784 198.71 519.367 201.689C512.584 207.604 506.366 212.477 492.795 215.5C486.234 216.962 479.001 217.477 472.418 218.84C466.328 220.101 461.514 222.838 457.338 225.145C450.816 228.749 450.929 234.063 447.027 238.318C443.582 242.075 439.011 245.718 434.556 249.239C430.895 252.133 426.321 253.821 421.189 256.032C417.556 257.596 416.328 259.869 415.035 261.999Z" fill="#44B5C5"/>
<path d="M536.785 251.414C538.994 259.311 541.244 267.353 541.997 275.533C543.094 274.985 196.341 276.818 197.001 275.533C199.23 271.191 204.721 264.551 205.273 259.582C206.528 248.288 211.255 236.002 216.608 226.081C221.125 217.712 226.374 209.85 231.359 201.773C234.602 196.52 236.106 189.918 240.152 185.204C246.338 177.995 256.647 174.479 260.207 165.002C263.23 156.953 263.187 148.051 266.674 140.003C270.4 131.403 278.874 130.365 286.221 125.832C293.61 121.274 296.602 115.213 300.172 107.701C304.349 98.9104 310.382 91.4216 315.831 83.4294C317.899 80.3963 319.689 76.7157 322.843 74.6C326.835 71.9222 331.965 70.4564 336.431 68.859C345.753 65.5252 354.411 62.8229 364.371 63.0091C371.496 63.1423 375.205 65.0929 380.32 70.0217C387.897 77.3216 394.436 84.6631 400.375 93.3489C403.794 98.3474 406.306 102.575 412.728 102.869C416.443 103.039 420.275 103.025 423.846 104.249C427.916 105.645 431.114 114.077 433.329 117.439C436.914 122.882 440.564 128.276 443.61 134.044C449.658 145.496 455.201 154.933 467.299 160.787C473.148 163.617 479.596 164.615 485.465 167.254C490.894 169.696 495.185 174.996 498.908 179.463C504.722 186.441 504.621 196.731 508.1 204.97C511.171 212.246 515.246 219.299 519.217 226.117C522.481 231.721 526.559 234.99 531.134 239.271C534.372 242.3 535.467 246.701 536.62 250.825L536.785 251.414Z" fill="#181727"/>
<path d="M944.485 280.971C941.339 287.083 938.078 293.31 937.004 299.647C935.478 299.233 1417.92 300.618 1417 299.647C1413.9 296.365 1406.26 291.346 1405.49 287.59C1403.74 279.053 1397.17 269.767 1389.72 262.268C1383.44 255.942 1376.13 249.999 1369.2 243.894C1364.68 239.923 1362.59 234.934 1356.96 231.37C1348.36 225.921 1334.01 223.264 1329.06 216.1C1324.85 210.016 1324.91 203.288 1320.06 197.204C1314.88 190.704 1303.09 189.919 1292.87 186.493C1282.59 183.047 1278.42 178.466 1273.46 172.788C1267.64 166.144 1259.25 160.483 1251.67 154.442C1248.79 152.149 1246.3 149.367 1241.91 147.768C1236.36 145.744 1229.22 144.636 1223.01 143.429C1210.04 140.909 1197.99 138.866 1184.14 139.007C1174.22 139.108 1169.06 140.582 1161.95 144.308C1151.4 149.825 1142.31 155.374 1134.04 161.94C1129.29 165.718 1125.79 168.913 1116.86 169.135C1111.69 169.264 1106.36 169.254 1101.39 170.179C1095.73 171.234 1091.28 177.607 1088.2 180.149C1083.21 184.263 1078.13 188.34 1073.89 192.7C1065.48 201.356 1057.76 208.489 1040.93 212.914C1032.79 215.053 1023.82 215.808 1015.66 217.803C1008.1 219.648 1002.13 223.654 996.954 227.031C988.865 232.305 989.005 240.083 984.166 246.311C979.892 251.81 974.223 257.141 968.698 262.295C964.157 266.531 958.484 269.002 952.118 272.237C947.612 274.527 946.089 277.854 944.485 280.971Z" fill="#44B5C5"/>
<path d="M580.22 287.168C575.386 289.629 573.752 293.203 572.031 296.553C566.717 306.893 574.01 316.515 585.636 316.486C660.871 316.297 912.132 316.359 1015.74 315.951C1030.31 315.894 1069.57 317.944 1066.65 303.665C1064.78 294.492 1057.72 284.513 1049.73 276.455C1042.99 269.658 1035.15 263.273 1027.71 256.712C1022.87 252.446 1020.62 247.084 1014.59 243.255C1005.35 237.399 989.962 234.544 984.648 226.846C980.135 220.309 980.2 213.079 974.994 206.542C969.432 199.558 956.782 198.714 945.816 195.033C934.785 191.33 930.318 186.408 924.99 180.307C918.754 173.167 909.748 167.084 901.615 160.593C898.528 158.129 895.856 155.14 891.147 153.422C885.188 151.247 877.531 150.056 870.864 148.759C856.949 146.051 844.024 143.856 829.157 144.007C818.521 144.116 812.984 145.7 805.348 149.703C794.038 155.632 784.277 161.595 775.411 168.65C770.308 172.709 766.558 176.143 756.971 176.382C751.426 176.52 745.706 176.508 740.375 177.503C734.299 178.637 729.526 185.485 726.22 188.216C720.868 192.636 715.418 197.017 710.871 201.703C701.845 211.004 693.569 218.668 675.51 223.423C666.78 225.722 657.154 226.533 648.393 228.676C640.289 230.659 633.883 234.964 628.326 238.592C619.647 244.259 619.798 252.617 614.605 259.309C610.02 265.218 603.938 270.947 598.009 276.485C593.137 281.036 587.05 283.691 580.22 287.168Z" fill="#181727"/>
<path d="M117.262 210.983L-63.9645 279.72H298.488L117.262 210.983Z" fill="#5D776C"/>
<rect width="7.3202" height="14.4997" transform="matrix(-1.00635 0.0513574 -0.0281813 0.991821 154.085 282.689)" fill="#E15C35"/>
<rect width="5.92595" height="14.4424" transform="matrix(-1.00444 0.0814864 -0.0242749 0.994533 349.662 275.842)" fill="#E15C35"/>
<rect width="5.92488" height="14.2549" transform="matrix(-1.00446 0.079981 -0.0232502 0.99449 372.71 274.421)" fill="#E15C35"/>
<rect width="5.93518" height="15.9939" transform="matrix(-1.00416 0.0939094 -0.0318281 0.99482 326.612 277.263)" fill="#E15C35"/>
<rect width="5.94215" height="18.0149" transform="matrix(-1.00858 0.0962085 -0.0779564 0.991238 306.292 276.093)" fill="#E15C35"/>
<rect width="5.90895" height="10.9934" transform="matrix(-1.00448 0.0534834 0.00040323 0.993203 262.319 280.104)" fill="#E15C35"/>
<rect width="5.92904" height="14.9951" transform="matrix(-1.00435 0.0861385 -0.0272825 0.994654 218.647 282.236)" fill="#E15C35"/>
<rect width="5.93225" height="15.5277" transform="matrix(-1.00426 0.09041 -0.02985 0.994751 197.162 283.588)" fill="#E15C35"/>
<rect width="4.10592" height="10.8732" transform="matrix(-0.996725 0.113166 0.033606 0.997645 174.106 289.898)" fill="#E15C35"/>
<rect width="4.09854" height="9.57764" transform="matrix(-0.997941 0.0982307 0.0433192 0.99703 131.647 292.029)" fill="#E15C35"/>
<rect width="4.15383" height="17.0739" transform="matrix(-0.98795 0.183263 0.00754493 0.998831 102.369 293.494)" fill="#E15C35"/>
<rect width="4.1079" height="12.7424" transform="matrix(-1.01081 0.0920708 -0.0962123 0.989028 73.6499 292.178)" fill="#E15C35"/>
<rect width="4.08291" height="6.10316" transform="matrix(-1.00108 0.0527174 0.0746358 0.992787 51.2705 295.676)" fill="#E15C35"/>
<path d="M355.346 199.646C355 198.835 353.851 198.835 353.505 199.646L335.057 242.983C334.776 243.643 335.26 244.375 335.977 244.375H372.874C373.591 244.375 374.075 243.643 373.794 242.983L355.346 199.646Z" fill="#6AD8D7"/>
<path d="M315.312 164.834C314.967 164.023 313.817 164.023 313.472 164.834L295.024 208.171C294.743 208.83 295.227 209.563 295.944 209.563H332.841C333.558 209.563 334.042 208.83 333.761 208.171L315.312 164.834Z" fill="#44B5C5"/>
<path d="M220.69 216.697C220.345 215.886 219.195 215.886 218.85 216.697L200.401 260.034C200.12 260.694 200.604 261.426 201.321 261.426H238.218C238.935 261.426 239.419 260.694 239.138 260.034L220.69 216.697Z" fill="#44B5C5"/>
<path d="M295.903 152.045C295.557 151.234 294.408 151.234 294.063 152.045L275.614 195.383C275.333 196.042 275.817 196.774 276.534 196.774H313.431C314.148 196.774 314.632 196.042 314.351 195.383L295.903 152.045Z" fill="#6AD8D7"/>
<path d="M134.559 230.906C134.214 230.095 133.064 230.095 132.719 230.906L114.27 274.243C113.989 274.903 114.473 275.635 115.19 275.635H152.087C152.804 275.635 153.288 274.903 153.008 274.243L134.559 230.906Z" fill="#44B5C5"/>
<path d="M104.231 60.9701C103.886 60.159 102.736 60.159 102.391 60.9701L83.9425 104.307C83.6617 104.967 84.1457 105.699 84.8626 105.699H121.76C122.477 105.699 122.961 104.967 122.68 104.307L104.231 60.9701Z" fill="#6AD8D7"/>
<path d="M21.7396 50.1614C21.3943 49.3503 20.2447 49.3503 19.8994 50.1614L1.45082 93.4986C1.17003 94.1582 1.65405 94.8903 2.37092 94.8903H39.2681C39.985 94.8903 40.469 94.1582 40.1882 93.4986L21.7396 50.1614Z" fill="#44B5C5"/>
<rect width="4.08044" height="5.65339" transform="matrix(-1.00199 0.0423588 0.0709971 0.991417 20.0415 297.754)" fill="#E15C35"/>
<path d="M55.7064 58.9752C55.3611 58.1641 54.2115 58.1641 53.8662 58.9752L35.4176 102.312C35.1368 102.972 35.6208 103.704 36.3377 103.704H73.2349C73.9518 103.704 74.4358 102.972 74.155 102.312L55.7064 58.9752Z" fill="#6AD8D7"/>
<path d="M83.6083 64.6588C83.263 63.8477 82.1133 63.8477 81.7681 64.6588L63.3195 107.996C63.0387 108.656 63.5227 109.388 64.2396 109.388H101.137C101.854 109.388 102.338 108.656 102.057 107.996L83.6083 64.6588Z" fill="#44B5C5"/>
<path d="M37.5101 65.3693C37.1648 64.5582 36.0152 64.5582 35.6699 65.3693L17.2213 108.707C16.9405 109.366 17.4246 110.098 18.1414 110.098H55.0386C55.7555 110.098 56.2395 109.366 55.9587 108.707L37.5101 65.3693Z" fill="#393744"/>
<path d="M131.253 68.1231C130.908 67.312 129.758 67.312 129.413 68.1231L110.964 111.46C110.683 112.12 111.167 112.852 111.884 112.852H148.781C149.498 112.852 149.982 112.12 149.702 111.46L131.253 68.1231Z" fill="#44B5C5"/>
<path d="M115.149 78.868C114.804 78.057 113.654 78.057 113.309 78.8681L94.8605 122.205C94.5797 122.865 95.0637 123.597 95.7806 123.597H132.678C133.395 123.597 133.879 122.865 133.598 122.205L115.149 78.868Z" fill="#393744"/>
<path d="M67.8378 71.7633C67.4925 70.9522 66.3428 70.9522 65.9976 71.7633L47.549 115.101C47.2682 115.76 47.7522 116.492 48.4691 116.492H85.3663C86.0831 116.492 86.5671 115.76 86.2864 115.101L67.8378 71.7633Z" fill="#393744"/>
<path d="M21.7396 75.3156C21.3943 74.5045 20.2447 74.5045 19.8994 75.3156L1.45082 118.653C1.17003 119.312 1.65405 120.044 2.37092 120.044H39.2681C39.985 120.044 40.469 119.312 40.1882 118.653L21.7396 75.3156Z" fill="#6AD8D7"/>
<path d="M94.5262 85.9725C94.181 85.1615 93.0313 85.1615 92.686 85.9725L74.2374 129.31C73.9567 129.969 74.4407 130.701 75.1575 130.701H112.055C112.772 130.701 113.256 129.969 112.975 129.31L94.5262 85.9725Z" fill="#393744"/>
<path d="M33.3193 97.6952C32.974 96.8841 31.8244 96.8841 31.4791 97.6952L13.0305 141.032C12.7497 141.692 13.2337 142.424 13.9506 142.424H50.8478C51.5647 142.424 52.0487 141.692 51.7679 141.032L33.3193 97.6952Z" fill="#44B5C5"/>
<path d="M18.1 104.445C17.7547 103.634 16.605 103.634 16.2598 104.445L-2.18883 147.782C-2.46962 148.441 -1.9856 149.174 -1.26873 149.174H35.6285C36.3453 149.174 36.8294 148.441 36.5486 147.782L18.1 104.445Z" fill="#393744"/>
<path d="M50.8544 82.4203C50.5091 81.6092 49.3594 81.6092 49.0142 82.4203L30.5656 125.758C30.2848 126.417 30.7688 127.149 31.4857 127.149H68.3829C69.0997 127.149 69.5838 126.417 69.303 125.758L50.8544 82.4203Z" fill="#44B5C5"/>
<path d="M71.4769 96.6294C71.1316 95.8183 69.982 95.8183 69.6367 96.6294L51.1881 139.967C50.9073 140.626 51.3914 141.358 52.1082 141.358H89.0054C89.7223 141.358 90.2063 140.626 89.9255 139.967L71.4769 96.6294Z" fill="#44B5C5"/>
<path d="M49.641 108.707C49.2957 107.896 48.1461 107.896 47.8008 108.707L29.3522 152.044C29.0714 152.704 29.5554 153.436 30.2723 153.436H67.1695C67.8864 153.436 68.3704 152.704 68.0896 152.044L49.641 108.707Z" fill="#6AD8D7"/>
<path d="M67.8378 120.075C67.4925 119.264 66.3428 119.264 65.9976 120.075L47.549 163.412C47.2682 164.072 47.7522 164.804 48.4691 164.804H85.3663C86.0831 164.804 86.5671 164.072 86.2864 163.412L67.8378 120.075Z" fill="#393744"/>
<path d="M145.477 80.2891C145.132 79.478 143.982 79.478 143.637 80.2891L125.188 123.626C124.907 124.286 125.391 125.018 126.108 125.018H163.005C163.722 125.018 164.206 124.286 163.926 123.626L145.477 80.2891Z" fill="#6AD8D7"/>
<path d="M92.1 107.997C91.7547 107.186 90.605 107.186 90.2598 107.997L71.8112 151.334C71.5304 151.994 72.0144 152.726 72.7313 152.726H109.628C110.345 152.726 110.829 151.994 110.549 151.334L92.1 107.997Z" fill="#6AD8D7"/>
<path d="M117.576 98.0504C117.23 97.2393 116.081 97.2393 115.735 98.0504L97.2868 141.388C97.006 142.047 97.49 142.779 98.2069 142.779H135.104C135.821 142.779 136.305 142.047 136.024 141.388L117.576 98.0504Z" fill="#44B5C5"/>
<path d="M35.0839 114.391C34.7386 113.58 33.5889 113.58 33.2437 114.391L14.7951 157.728C14.5143 158.388 14.9983 159.12 15.7152 159.12H52.6124C53.3292 159.12 53.8132 158.388 53.5325 157.728L35.0839 114.391Z" fill="#393744"/>
<path d="M44.7884 128.6C44.4432 127.789 43.2935 127.789 42.9482 128.6L24.4996 171.937C24.2189 172.597 24.7029 173.329 25.4198 173.329H62.3169C63.0338 173.329 63.5178 172.597 63.237 171.937L44.7884 128.6Z" fill="#44B5C5"/>
<path d="M18.1 131.442C17.7547 130.631 16.605 130.631 16.2598 131.442L-2.18883 174.779C-2.46962 175.439 -1.9856 176.171 -1.26873 176.171H35.6285C36.3453 176.171 36.8294 175.439 36.5486 174.779L18.1 131.442Z" fill="#6AD8D7"/>
<path d="M61.7723 145.651C61.4271 144.84 60.2774 144.84 59.9321 145.651L41.4835 188.988C41.2027 189.648 41.6868 190.38 42.4036 190.38H79.3008C80.0177 190.38 80.5017 189.648 80.2209 188.988L61.7723 145.651Z" fill="#6AD8D7"/>
<path d="M38.723 150.625C38.3777 149.813 37.2281 149.813 36.8828 150.625L18.4342 193.962C18.1534 194.621 18.6374 195.353 19.3543 195.353H56.2515C56.9684 195.353 57.4524 194.621 57.1716 193.962L38.723 150.625Z" fill="#393744"/>
<path d="M18.1 156.308C17.7547 155.497 16.605 155.497 16.2598 156.308L-2.18883 199.645C-2.46962 200.305 -1.9856 201.037 -1.26873 201.037H35.6285C36.3453 201.037 36.8294 200.305 36.5486 199.645L18.1 156.308Z" fill="#44B5C5"/>
<path d="M161.247 85.9725C160.902 85.1615 159.753 85.1615 159.407 85.9725L140.959 129.31C140.678 129.969 141.162 130.701 141.879 130.701H178.776C179.493 130.701 179.977 129.969 179.696 129.31L161.247 85.9725Z" fill="#393744"/>
<path d="M203.706 87.1383C203.361 86.3272 202.211 86.3272 201.866 87.1383L183.418 130.476C183.137 131.135 183.621 131.867 184.338 131.867H221.235C221.952 131.867 222.436 131.135 222.155 130.476L203.706 87.1383Z" fill="#393744"/>
<path d="M140.624 103.024C140.279 102.212 139.129 102.212 138.784 103.024L120.336 146.361C120.055 147.02 120.539 147.752 121.256 147.752H158.153C158.87 147.752 159.354 147.02 159.073 146.361L140.624 103.024Z" fill="#44B5C5"/>
<path d="M174.592 93.7876C174.246 92.9765 173.097 92.9765 172.751 93.7876L154.303 137.125C154.022 137.784 154.506 138.517 155.223 138.517H192.12C192.837 138.517 193.321 137.784 193.04 137.125L174.592 93.7876Z" fill="#44B5C5"/>
<path d="M118.788 122.206C118.443 121.395 117.294 121.395 116.948 122.206L98.4996 165.543C98.2189 166.203 98.7029 166.935 99.4198 166.935H136.317C137.034 166.935 137.518 166.203 137.237 165.543L118.788 122.206Z" fill="#6AD8D7"/>
<path d="M98.1654 120.075C97.8201 119.264 96.6705 119.264 96.3252 120.075L77.8766 163.412C77.5958 164.072 78.0798 164.804 78.7967 164.804H115.694C116.411 164.804 116.895 164.072 116.614 163.412L98.1654 120.075Z" fill="#393744"/>
<path d="M77.5428 137.126C77.1976 136.315 76.0479 136.315 75.7026 137.126L57.254 180.463C56.9733 181.123 57.4573 181.855 58.1741 181.855H95.0713C95.7882 181.855 96.2722 181.123 95.9914 180.463L77.5428 137.126Z" fill="#393744"/>
<path d="M158.821 111.549C158.476 110.738 157.326 110.738 156.981 111.549L138.532 154.886C138.252 155.546 138.736 156.278 139.452 156.278H176.35C177.067 156.278 177.551 155.546 177.27 154.886L158.821 111.549Z" fill="#393744"/>
<path d="M135.772 128.6C135.427 127.789 134.277 127.789 133.932 128.6L115.483 171.937C115.202 172.597 115.686 173.329 116.403 173.329H153.3C154.017 173.329 154.501 172.597 154.22 171.937L135.772 128.6Z" fill="#393744"/>
<path d="M112.723 144.23C112.378 143.419 111.228 143.419 110.883 144.23L92.4342 187.567C92.1534 188.227 92.6374 188.959 93.3543 188.959H130.252C130.968 188.959 131.452 188.227 131.172 187.567L112.723 144.23Z" fill="#44B5C5"/>
<path d="M96.9525 151.335C96.6072 150.524 95.4576 150.524 95.1123 151.335L76.6637 194.672C76.3829 195.332 76.8669 196.064 77.5838 196.064H114.481C115.198 196.064 115.682 195.332 115.401 194.672L96.9525 151.335Z" fill="#6AD8D7"/>
<path d="M189.149 90.9458C188.804 90.1347 187.654 90.1347 187.309 90.9458L168.86 134.283C168.579 134.943 169.063 135.675 169.78 135.675H206.677C207.394 135.675 207.878 134.943 207.597 134.283L189.149 90.9458Z" fill="#6AD8D7"/>
<path d="M75.1166 162.702C74.7713 161.891 73.6217 161.891 73.2764 162.702L54.8278 206.039C54.547 206.699 55.031 207.431 55.7479 207.431H92.6451C93.3619 207.431 93.846 206.699 93.5652 206.039L75.1166 162.702Z" fill="#44B5C5"/>
<path d="M56.9198 166.965C56.5745 166.154 55.4249 166.154 55.0796 166.965L36.631 210.302C36.3502 210.962 36.8342 211.694 37.5511 211.694H74.4483C75.1652 211.694 75.6492 210.962 75.3684 210.302L56.9198 166.965Z" fill="#393744"/>
<path d="M19.308 180.375C18.9571 179.58 17.8292 179.58 17.4783 180.375L3.25404 212.599C2.96225 213.26 3.4463 214.003 4.16887 214.003H32.6174C33.34 214.003 33.8241 213.26 33.5323 212.599L19.308 180.375Z" fill="#393744"/>
<path d="M38.723 180.464C38.3777 179.652 37.2281 179.652 36.8828 180.464L18.4342 223.801C18.1534 224.46 18.6374 225.192 19.3543 225.192H56.2515C56.9684 225.192 57.4524 224.46 57.1716 223.801L38.723 180.464Z" fill="#6AD8D7"/>
<path d="M177.018 120.785C176.673 119.974 175.523 119.974 175.178 120.785L156.729 164.122C156.448 164.782 156.932 165.514 157.649 165.514H194.546C195.263 165.514 195.747 164.782 195.467 164.122L177.018 120.785Z" fill="#393744"/>
<path d="M156.395 135.705C156.05 134.894 154.9 134.894 154.555 135.705L136.106 179.042C135.825 179.702 136.309 180.434 137.026 180.434H173.923C174.64 180.434 175.124 179.702 174.843 179.042L156.395 135.705Z" fill="#6AD8D7"/>
<path d="M135.772 152.045C135.427 151.234 134.277 151.234 133.932 152.045L115.483 195.383C115.202 196.042 115.686 196.774 116.403 196.774H153.3C154.017 196.774 154.501 196.042 154.22 195.383L135.772 152.045Z" fill="#44B5C5"/>
<path d="M113.936 171.228C113.591 170.417 112.441 170.417 112.096 171.228L93.6471 214.565C93.3663 215.225 93.8503 215.957 94.5672 215.957H131.464C132.181 215.957 132.665 215.225 132.385 214.565L113.936 171.228Z" fill="#393744"/>
<path d="M60.559 184.016C60.2137 183.205 59.064 183.205 58.7188 184.016L40.2702 227.353C39.9894 228.013 40.4734 228.745 41.1903 228.745H78.0875C78.8043 228.745 79.2883 228.013 79.0076 227.353L60.559 184.016Z" fill="#44B5C5"/>
<path d="M17.4948 198.954C17.1507 198.14 15.9966 198.14 15.6525 198.954L2.97769 228.954C2.69914 229.613 3.18314 230.343 3.89885 230.343H29.2485C29.9642 230.343 30.4482 229.613 30.1697 228.954L17.4948 198.954Z" fill="#44B5C5"/>
<path d="M94.5262 179.043C94.181 178.232 93.0313 178.232 92.686 179.043L74.2374 222.38C73.9567 223.04 74.4407 223.772 75.1575 223.772H112.055C112.772 223.772 113.256 223.04 112.975 222.38L94.5262 179.043Z" fill="#393744"/>
<path d="M79.9686 198.225C79.6233 197.414 78.4737 197.414 78.1284 198.225L59.6798 241.562C59.399 242.222 59.8831 242.954 60.5999 242.954H97.4971C98.214 242.954 98.698 242.222 98.4172 241.562L79.9686 198.225Z" fill="#393744"/>
<path d="M15.0669 216.691C14.7213 215.881 13.5731 215.881 13.2274 216.691L-0.492153 248.844C-0.773643 249.503 -0.289619 250.236 0.427616 250.236H27.8667C28.584 250.236 29.068 249.503 28.7865 248.844L15.0669 216.691Z" fill="#6AD8D7"/>
<path d="M38.723 196.804C38.3777 195.993 37.2281 195.993 36.8828 196.804L18.4342 240.141C18.1534 240.801 18.6374 241.533 19.3543 241.533H56.2515C56.9684 241.533 57.4524 240.801 57.1716 240.141L38.723 196.804Z" fill="#393744"/>
<path d="M29.0179 209.592C28.6727 208.781 27.523 208.781 27.1777 209.592L8.72914 252.93C8.44835 253.589 8.93237 254.321 9.64924 254.321H46.5464C47.2633 254.321 47.7473 253.589 47.4665 252.93L29.0179 209.592Z" fill="#44B5C5"/>
<path d="M58.1327 211.013C57.7874 210.202 56.6378 210.202 56.2925 211.013L37.8439 254.351C37.5631 255.01 38.0471 255.742 38.764 255.742H75.6612C76.3781 255.742 76.8621 255.01 76.5813 254.351L58.1327 211.013Z" fill="#6AD8D7"/>
<path d="M220.681 100.649C220.327 99.8641 219.212 99.8641 218.858 100.649L197.294 148.417C196.995 149.079 197.479 149.829 198.205 149.829H241.334C242.06 149.829 242.544 149.079 242.245 148.417L220.681 100.649Z" fill="#44B5C5"/>
<path d="M197.641 117.943C197.296 117.132 196.146 117.132 195.801 117.943L177.352 161.28C177.071 161.94 177.555 162.672 178.272 162.672H215.169C215.886 162.672 216.37 161.94 216.09 161.28L197.641 117.943Z" fill="#393744"/>
<path d="M186.723 134.284C186.377 133.473 185.228 133.473 184.882 134.284L166.434 177.621C166.153 178.281 166.637 179.013 167.354 179.013H204.251C204.968 179.013 205.452 178.281 205.171 177.621L186.723 134.284Z" fill="#6AD8D7"/>
<path d="M172.165 153.466C171.82 152.655 170.67 152.655 170.325 153.466L151.877 196.803C151.596 197.463 152.08 198.195 152.797 198.195H189.694C190.411 198.195 190.895 197.463 190.614 196.803L172.165 153.466Z" fill="#44B5C5"/>
<path d="M155.182 166.965C154.836 166.154 153.687 166.154 153.341 166.965L134.893 210.302C134.612 210.962 135.096 211.694 135.813 211.694H172.71C173.427 211.694 173.911 210.962 173.63 210.302L155.182 166.965Z" fill="#393744"/>
<path d="M133.346 179.753C133 178.942 131.851 178.942 131.505 179.753L113.057 223.09C112.776 223.75 113.26 224.482 113.977 224.482H150.874C151.591 224.482 152.075 223.75 151.794 223.09L133.346 179.753Z" fill="#6AD8D7"/>
<path d="M107.87 196.804C107.525 195.993 106.376 195.993 106.03 196.804L87.5817 240.141C87.3009 240.801 87.7849 241.533 88.5018 241.533H125.399C126.116 241.533 126.6 240.801 126.319 240.141L107.87 196.804Z" fill="#44B5C5"/>
<path d="M151.542 192.542C151.197 191.73 150.047 191.73 149.702 192.542L131.254 235.879C130.973 236.538 131.457 237.27 132.174 237.27H169.071C169.788 237.27 170.272 236.538 169.991 235.879L151.542 192.542Z" fill="#44B5C5"/>
<path d="M94.5262 209.592C94.181 208.781 93.0313 208.781 92.686 209.592L74.2374 252.93C73.9567 253.589 74.4407 254.321 75.1575 254.321H112.055C112.772 254.321 113.256 253.589 112.975 252.93L94.5262 209.592Z" fill="#6AD8D7"/>
<path d="M76.3295 224.512C75.9842 223.701 74.8345 223.701 74.4893 224.512L56.0407 267.849C55.7599 268.509 56.2439 269.241 56.9608 269.241H93.858C94.5748 269.241 95.0588 268.509 94.7781 267.849L76.3295 224.512Z" fill="#44B5C5"/>
<path d="M59.3461 234.459C59.0008 233.647 57.8511 233.647 57.5059 234.459L39.0573 277.796C38.7765 278.455 39.2605 279.187 39.9774 279.187H76.8746C77.5914 279.187 78.0754 278.455 77.7947 277.796L59.3461 234.459Z" fill="#393744"/>
<path d="M44.7884 223.802C44.4432 222.991 43.2935 222.991 42.9482 223.802L24.4996 267.139C24.2189 267.798 24.7029 268.531 25.4198 268.531H62.3169C63.0338 268.531 63.5178 267.798 63.237 267.139L44.7884 223.802Z" fill="#44B5C5"/>
<path d="M18.1 227.354C17.7547 226.543 16.605 226.543 16.2598 227.354L-2.18883 270.691C-2.46962 271.351 -1.9856 272.083 -1.26873 272.083H35.6285C36.3453 272.083 36.8294 271.351 36.5486 270.691L18.1 227.354Z" fill="#393744"/>
<path d="M35.0839 245.826C34.7386 245.015 33.5889 245.015 33.2437 245.826L14.7951 289.163C14.5143 289.823 14.9983 290.555 15.7152 290.555H52.6124C53.3292 290.555 53.8132 289.823 53.5325 289.163L35.0839 245.826Z" fill="#6AD8D7"/>
<path d="M16.8871 253.641C16.5418 252.83 15.3922 252.83 15.0469 253.641L-3.40172 296.978C-3.68251 297.638 -3.19849 298.37 -2.48162 298.37H34.4156C35.1324 298.37 35.6165 297.638 35.3357 296.978L16.8871 253.641Z" fill="#44B5C5"/>
<path d="M236.46 113.307C236.115 112.495 234.965 112.495 234.62 113.307L216.172 156.644C215.891 157.303 216.375 158.035 217.092 158.035H253.989C254.706 158.035 255.19 157.303 254.909 156.644L236.46 113.307Z" fill="#6AD8D7"/>
<path d="M212.198 134.284C211.853 133.473 210.703 133.473 210.358 134.284L191.909 177.621C191.629 178.281 192.113 179.013 192.829 179.013H229.727C230.443 179.013 230.928 178.281 230.647 177.621L212.198 134.284Z" fill="#44B5C5"/>
<path d="M190.362 162.702C190.017 161.891 188.867 161.891 188.522 162.702L170.073 206.039C169.793 206.699 170.277 207.431 170.993 207.431H207.891C208.608 207.431 209.092 206.699 208.811 206.039L190.362 162.702Z" fill="#393744"/>
<path d="M173.378 183.305C173.033 182.494 171.883 182.494 171.538 183.305L153.089 226.643C152.809 227.302 153.293 228.034 154.01 228.034H190.907C191.624 228.034 192.108 227.302 191.827 226.643L173.378 183.305Z" fill="#6AD8D7"/>
<path d="M128.494 206.04C128.148 205.229 126.999 205.229 126.653 206.04L108.205 249.377C107.924 250.037 108.408 250.769 109.125 250.769H146.022C146.739 250.769 147.223 250.037 146.942 249.377L128.494 206.04Z" fill="#393744"/>
<path d="M257.083 122.977C256.738 122.166 255.588 122.166 255.243 122.977L236.795 166.315C236.514 166.974 236.998 167.706 237.715 167.706H274.612C275.329 167.706 275.813 166.974 275.532 166.315L257.083 122.977Z" fill="#44B5C5"/>
<path d="M112.723 225.223C112.378 224.412 111.228 224.412 110.883 225.223L92.4342 268.56C92.1534 269.219 92.6374 269.952 93.3543 269.952H130.252C130.968 269.952 131.452 269.219 131.172 268.56L112.723 225.223Z" fill="#44B5C5"/>
<path d="M92.1 240.142C91.7547 239.331 90.605 239.331 90.2598 240.142L71.8112 283.479C71.5304 284.139 72.0144 284.871 72.7313 284.871H109.628C110.345 284.871 110.829 284.139 110.549 283.479L92.1 240.142Z" fill="#393744"/>
<path d="M71.4769 247.957C71.1316 247.146 69.982 247.146 69.6367 247.957L51.1881 291.295C50.9073 291.954 51.3914 292.686 52.1082 292.686H89.0054C89.7223 292.686 90.2063 291.954 89.9255 291.295L71.4769 247.957Z" fill="#6AD8D7"/>
<path d="M274.705 127.19C274.408 126.265 273.099 126.265 272.801 127.19L255.788 180.095C255.581 180.741 256.062 181.401 256.74 181.401H290.767C291.445 181.401 291.926 180.741 291.719 180.095L274.705 127.19Z" fill="#393744"/>
<path d="M48.4281 252.931C48.0828 252.119 46.9332 252.119 46.5879 252.931L28.1393 296.268C27.8585 296.927 28.3425 297.659 29.0594 297.659H65.9566C66.6735 297.659 67.1575 296.927 66.8767 296.268L48.4281 252.931Z" fill="#393744"/>
<path d="M234.034 135.705C233.689 134.894 232.539 134.894 232.194 135.705L213.745 179.042C213.464 179.702 213.948 180.434 214.665 180.434H251.563C252.279 180.434 252.763 179.702 252.483 179.042L234.034 135.705Z" fill="#393744"/>
<path d="M207.346 157.729C207 156.918 205.851 156.918 205.505 157.729L187.057 201.066C186.776 201.726 187.26 202.458 187.977 202.458H224.874C225.591 202.458 226.075 201.726 225.794 201.066L207.346 157.729Z" fill="#6AD8D7"/>
<path d="M195.215 185.437C194.869 184.626 193.72 184.626 193.375 185.437L174.926 228.774C174.645 229.434 175.129 230.166 175.846 230.166H212.743C213.46 230.166 213.944 229.434 213.663 228.774L195.215 185.437Z" fill="#44B5C5"/>
<path d="M174.592 201.067C174.246 200.256 173.097 200.256 172.751 201.067L154.303 244.404C154.022 245.064 154.506 245.796 155.223 245.796H192.12C192.837 245.796 193.321 245.064 193.04 244.404L174.592 201.067Z" fill="#393744"/>
<path d="M153.969 212.434C153.623 211.623 152.474 211.623 152.128 212.434L133.68 255.771C133.399 256.431 133.883 257.163 134.6 257.163H171.497C172.214 257.163 172.698 256.431 172.417 255.771L153.969 212.434Z" fill="#6AD8D7"/>
<path d="M118.788 237.3C118.443 236.489 117.294 236.489 116.948 237.3L98.4996 280.638C98.2189 281.297 98.7029 282.029 99.4198 282.029H136.317C137.034 282.029 137.518 281.297 137.237 280.638L118.788 237.3Z" fill="#6AD8D7"/>
<path d="M100.592 251.51C100.246 250.699 99.0967 250.699 98.7515 251.51L80.3029 294.847C80.0221 295.506 80.5061 296.239 81.223 296.239H118.12C118.837 296.239 119.321 295.506 119.04 294.847L100.592 251.51Z" fill="#44B5C5"/>
<path d="M253.444 150.625C253.098 149.813 251.949 149.813 251.604 150.625L233.155 193.962C232.874 194.621 233.358 195.353 234.075 195.353H270.972C271.689 195.353 272.173 194.621 271.892 193.962L253.444 150.625Z" fill="#6AD8D7"/>
<path d="M128.494 248.668C128.148 247.857 126.999 247.857 126.653 248.668L108.205 292.005C107.924 292.665 108.408 293.397 109.125 293.397H146.022C146.739 293.397 147.223 292.665 146.942 292.005L128.494 248.668Z" fill="#393744"/>
<path d="M229.182 157.019C228.836 156.207 227.687 156.207 227.341 157.019L208.893 200.356C208.612 201.015 209.096 201.747 209.813 201.747H246.71C247.427 201.747 247.911 201.015 247.63 200.356L229.182 157.019Z" fill="#44B5C5"/>
<path d="M217.051 181.174C216.705 180.363 215.556 180.363 215.21 181.174L196.762 224.511C196.481 225.171 196.965 225.903 197.682 225.903H234.579C235.296 225.903 235.78 225.171 235.499 224.511L217.051 181.174Z" fill="#393744"/>
<path d="M196.428 208.882C196.082 208.071 194.933 208.071 194.587 208.882L176.139 252.219C175.858 252.879 176.342 253.611 177.059 253.611H213.956C214.673 253.611 215.157 252.879 214.876 252.219L196.428 208.882Z" fill="#6AD8D7"/>
<path d="M175.805 223.802C175.459 222.991 174.31 222.991 173.964 223.802L155.516 267.139C155.235 267.798 155.719 268.531 156.436 268.531H193.333C194.05 268.531 194.534 267.798 194.253 267.139L175.805 223.802Z" fill="#44B5C5"/>
<path d="M153.969 238.721C153.623 237.91 152.474 237.91 152.128 238.721L133.68 282.058C133.399 282.718 133.883 283.45 134.6 283.45H171.497C172.214 283.45 172.698 282.718 172.417 282.058L153.969 238.721Z" fill="#393744"/>
<path d="M275.28 161.281C274.935 160.47 273.785 160.47 273.44 161.281L254.991 204.618C254.711 205.278 255.195 206.01 255.911 206.01H292.809C293.526 206.01 294.01 205.278 293.729 204.618L275.28 161.281Z" fill="#44B5C5"/>
<path d="M255.87 171.228C255.525 170.417 254.375 170.417 254.03 171.228L235.581 214.565C235.3 215.225 235.784 215.957 236.501 215.957H273.398C274.115 215.957 274.599 215.225 274.319 214.565L255.87 171.228Z" fill="#393744"/>
<path d="M232.821 183.305C232.476 182.494 231.326 182.494 230.981 183.305L212.532 226.643C212.252 227.302 212.736 228.034 213.452 228.034H250.35C251.067 228.034 251.551 227.302 251.27 226.643L232.821 183.305Z" fill="#6AD8D7"/>
<path d="M212.198 211.724C211.853 210.913 210.703 210.913 210.358 211.724L191.909 255.061C191.629 255.721 192.113 256.453 192.829 256.453H229.727C230.443 256.453 230.928 255.721 230.647 255.061L212.198 211.724Z" fill="#44B5C5"/>
<path d="M196.428 239.432C196.082 238.621 194.933 238.621 194.587 239.432L176.139 282.769C175.858 283.429 176.342 284.161 177.059 284.161H213.956C214.673 284.161 215.157 283.429 214.876 282.769L196.428 239.432Z" fill="#393744"/>
<path d="M173.378 245.826C173.033 245.015 171.883 245.015 171.538 245.826L153.089 289.163C152.809 289.823 153.293 290.555 154.01 290.555H190.907C191.624 290.555 192.108 289.823 191.827 289.163L173.378 245.826Z" fill="#6AD8D7"/>
<path d="M298.329 171.938C297.984 171.127 296.834 171.127 296.489 171.938L278.04 215.275C277.759 215.935 278.243 216.667 278.96 216.667H315.857C316.574 216.667 317.058 215.935 316.778 215.275L298.329 171.938Z" fill="#393744"/>
<path d="M277.706 181.885C277.361 181.074 276.211 181.074 275.866 181.885L257.418 225.222C257.137 225.881 257.621 226.614 258.338 226.614H295.235C295.952 226.614 296.436 225.881 296.155 225.222L277.706 181.885Z" fill="#6AD8D7"/>
<path d="M255.87 198.936C255.525 198.124 254.375 198.124 254.03 198.936L235.581 242.273C235.3 242.932 235.784 243.664 236.501 243.664H273.398C274.115 243.664 274.599 242.932 274.319 242.273L255.87 198.936Z" fill="#44B5C5"/>
<path d="M230.395 202.488C230.05 201.677 228.9 201.677 228.555 202.488L210.106 245.825C209.825 246.485 210.309 247.217 211.026 247.217H247.923C248.64 247.217 249.124 246.485 248.843 245.825L230.395 202.488Z" fill="#393744"/>
<path d="M247.378 219.539C247.033 218.728 245.883 218.728 245.538 219.539L227.089 262.876C226.809 263.536 227.293 264.268 228.01 264.268H264.907C265.624 264.268 266.108 263.536 265.827 262.876L247.378 219.539Z" fill="#6AD8D7"/>
<path d="M213.411 228.064C213.066 227.253 211.916 227.253 211.571 228.064L193.122 271.402C192.841 272.061 193.325 272.793 194.042 272.793H230.94C231.656 272.793 232.14 272.061 231.86 271.402L213.411 228.064Z" fill="#393744"/>
<path d="M214.624 243.694C214.279 242.883 213.129 242.883 212.784 243.694L194.336 287.032C194.055 287.691 194.539 288.423 195.256 288.423H232.153C232.87 288.423 233.354 287.691 233.073 287.032L214.624 243.694Z" fill="#44B5C5"/>
<path d="M317.739 188.279C317.394 187.468 316.244 187.468 315.899 188.279L297.45 231.616C297.17 232.276 297.654 233.008 298.37 233.008H335.268C335.984 233.008 336.469 232.276 336.188 231.616L317.739 188.279Z" fill="#6AD8D7"/>
<path d="M297.116 199.646C296.771 198.835 295.621 198.835 295.276 199.646L276.827 242.983C276.546 243.643 277.031 244.375 277.747 244.375H314.645C315.361 244.375 315.845 243.643 315.565 242.983L297.116 199.646Z" fill="#44B5C5"/>
<rect width="5.90806" height="10.8609" transform="matrix(-1.00447 0.0527503 0.0012576 0.993146 236.844 281.526)" fill="#E15C35"/>
<rect width="5.90718" height="10.6135" transform="matrix(-1.00444 0.0505815 0.00386933 0.992968 284.156 279.394)" fill="#E15C35"/>
<path d="M275.28 207.461C274.935 206.65 273.785 206.65 273.44 207.461L254.991 250.798C254.711 251.458 255.195 252.19 255.911 252.19H292.809C293.526 252.19 294.01 251.458 293.729 250.798L275.28 207.461Z" fill="#393744"/>
<path d="M369.903 219.539C369.557 218.728 368.408 218.728 368.063 219.539L349.614 262.876C349.333 263.536 349.817 264.268 350.534 264.268H387.431C388.148 264.268 388.632 263.536 388.351 262.876L369.903 219.539Z" fill="#393744"/>
<path d="M263.149 236.59C262.804 235.779 261.654 235.779 261.309 236.59L242.86 279.927C242.579 280.587 243.063 281.319 243.78 281.319H280.677C281.394 281.319 281.878 280.587 281.597 279.927L263.149 236.59Z" fill="#393744"/>
<path d="M317.739 208.171C317.394 207.36 316.244 207.36 315.899 208.171L297.45 251.509C297.17 252.168 297.654 252.9 298.37 252.9H335.268C335.984 252.9 336.469 252.168 336.188 251.509L317.739 208.171Z" fill="#393744"/>
<path d="M335.935 182.595C335.59 181.784 334.44 181.784 334.095 182.595L315.647 225.932C315.366 226.592 315.85 227.324 316.567 227.324H353.464C354.181 227.324 354.665 226.592 354.384 225.932L335.935 182.595Z" fill="#393744"/>
<path d="M337.149 206.04C336.804 205.229 335.654 205.229 335.309 206.04L316.86 249.377C316.579 250.037 317.063 250.769 317.78 250.769H354.677C355.394 250.769 355.878 250.037 355.597 249.377L337.149 206.04Z" fill="#44B5C5"/>
<path d="M295.903 223.802C295.557 222.991 294.408 222.991 294.063 223.802L275.614 267.139C275.333 267.798 275.817 268.531 276.534 268.531H313.431C314.148 268.531 314.632 267.798 314.351 267.139L295.903 223.802Z" fill="#6AD8D7"/>
<path d="M349.28 221.67C348.934 220.859 347.785 220.859 347.439 221.67L328.991 265.008C328.71 265.667 329.194 266.399 329.911 266.399H366.808C367.525 266.399 368.009 265.667 367.728 265.008L349.28 221.67Z" fill="#6AD8D7"/>
<path d="M277.706 230.906C277.361 230.095 276.211 230.095 275.866 230.906L257.418 274.243C257.137 274.903 257.621 275.635 258.338 275.635H295.235C295.952 275.635 296.436 274.903 296.155 274.243L277.706 230.906Z" fill="#44B5C5"/>
<path d="M235.247 223.802C234.902 222.991 233.753 222.991 233.407 223.802L214.959 267.139C214.678 267.798 215.162 268.531 215.879 268.531H252.776C253.493 268.531 253.977 267.798 253.696 267.139L235.247 223.802Z" fill="#44B5C5"/>
<path d="M236.46 242.984C236.115 242.173 234.965 242.173 234.62 242.984L216.172 286.321C215.891 286.981 216.375 287.713 217.092 287.713H253.989C254.706 287.713 255.19 286.981 254.909 286.321L236.46 242.984Z" fill="#6AD8D7"/>
<path d="M322.591 224.512C322.246 223.701 321.096 223.701 320.751 224.512L302.302 267.849C302.022 268.509 302.506 269.241 303.222 269.241H340.12C340.837 269.241 341.321 268.509 341.04 267.849L322.591 224.512Z" fill="#393744"/>
<path d="M348.067 237.3C347.721 236.489 346.572 236.489 346.227 237.3L327.778 280.638C327.497 281.297 327.981 282.029 328.698 282.029H365.595C366.312 282.029 366.796 281.297 366.515 280.638L348.067 237.3Z" fill="#393744"/>
<path d="M297.117 238.751C296.774 237.935 295.617 237.935 295.274 238.751L279.97 275.135C279.693 275.795 280.177 276.523 280.892 276.523H311.5C312.215 276.523 312.699 275.795 312.421 275.135L297.117 238.751Z" fill="#393744"/>
<path d="M369.903 236.59C369.557 235.779 368.408 235.779 368.063 236.59L349.614 279.927C349.333 280.587 349.817 281.319 350.534 281.319H387.431C388.148 281.319 388.632 280.587 388.351 279.927L369.903 236.59Z" fill="#44B5C5"/>
<path d="M323.805 240.142C323.459 239.331 322.31 239.331 321.964 240.142L303.516 283.479C303.235 284.139 303.719 284.871 304.436 284.871H341.333C342.05 284.871 342.534 284.139 342.253 283.479L323.805 240.142Z" fill="#6AD8D7"/>
<path d="M281.346 239.432C281 238.621 279.851 238.621 279.505 239.432L261.057 282.769C260.776 283.429 261.26 284.161 261.977 284.161H298.874C299.591 284.161 300.075 283.429 299.794 282.769L281.346 239.432Z" fill="#6AD8D7"/>
<path d="M1494.82 266.041L1760.5 344.08H1229.14L1494.82 266.041Z" fill="#5D776C"/>
<rect width="8.6462" height="12.3755" transform="matrix(1.00622 0.0400719 -0.00328608 0.986153 1154.12 339.676)" fill="#E15C35"/>
<rect width="8.64715" height="12.6624" transform="matrix(1.00632 0.0416528 -0.000215748 0.986468 1120.33 338.063)" fill="#E15C35"/>
<rect width="8.64542" height="12.1359" transform="matrix(1.00613 0.0387507 -0.00596252 0.98587 1187.91 341.29)" fill="#E15C35"/>
<rect width="8.64342" height="14.721" transform="matrix(1.01056 0.0421035 0.0667872 0.981739 1217.7 339.962)" fill="#E15C35"/>
<rect width="8.64716" height="12.5674" transform="matrix(1.00627 0.0409897 -0.00148664 0.986339 1282.16 344.516)" fill="#E15C35"/>
<rect width="8.64692" height="12.6701" transform="matrix(1.00633 0.0418228 0.000106082 0.986501 1346.19 346.936)" fill="#E15C35"/>
<rect width="8.64587" height="12.3526" transform="matrix(1.00622 0.04007 -0.00328979 0.986152 1377.68 348.471)" fill="#E15C35"/>
<rect width="5.97873" height="6.4557" transform="matrix(1.00116 0.0406147 -0.128404 0.984846 1411.48 355.634)" fill="#E15C35"/>
<path d="M1146.26 252.309C1146.64 251.618 1147.63 251.618 1148.01 252.309L1175.58 302.469C1175.95 303.136 1175.47 303.951 1174.7 303.951H1119.56C1118.8 303.951 1118.32 303.136 1118.68 302.469L1146.26 252.309Z" fill="#6AD8D7"/>
<path d="M1204.94 212.786C1205.32 212.094 1206.32 212.094 1206.7 212.786L1234.27 262.946C1234.64 263.612 1234.15 264.427 1233.39 264.427H1178.25C1177.49 264.427 1177.01 263.612 1177.37 262.946L1204.94 212.786Z" fill="#44B5C5"/>
<path d="M1343.66 271.668C1344.04 270.977 1345.04 270.977 1345.42 271.668L1372.99 321.828C1373.36 322.494 1372.87 323.31 1372.11 323.31H1316.97C1316.21 323.31 1315.72 322.494 1316.09 321.828L1343.66 271.668Z" fill="#44B5C5"/>
<path d="M1233.4 198.266C1233.78 197.575 1234.77 197.575 1235.15 198.266L1262.72 248.427C1263.09 249.093 1262.61 249.908 1261.85 249.908H1206.7C1205.94 249.908 1205.46 249.093 1205.83 248.427L1233.4 198.266Z" fill="#6AD8D7"/>
<path d="M1453.93 116.799C1454.31 116.108 1455.3 116.108 1455.68 116.799L1483.25 166.959C1483.62 167.626 1483.14 168.441 1482.38 168.441H1427.23C1426.47 168.441 1425.99 167.626 1426.35 166.959L1453.93 116.799Z" fill="#6AD8D7"/>
<path d="M1430.81 123.252C1431.19 122.561 1432.18 122.561 1432.56 123.252L1460.13 173.412C1460.5 174.078 1460.02 174.894 1459.26 174.894H1404.11C1403.35 174.894 1402.87 174.078 1403.24 173.412L1430.81 123.252Z" fill="#393744"/>
<path d="M1368.56 124.575C1368.94 123.884 1369.93 123.884 1370.31 124.575L1397.89 174.736C1398.25 175.402 1397.77 176.217 1397.01 176.217H1341.87C1341.1 176.217 1340.62 175.402 1340.99 174.736L1368.56 124.575Z" fill="#393744"/>
<path d="M1461.04 142.61C1461.42 141.919 1462.41 141.919 1462.79 142.61L1490.37 192.771C1490.73 193.437 1490.25 194.252 1489.49 194.252H1434.34C1433.58 194.252 1433.1 193.437 1433.47 192.771L1461.04 142.61Z" fill="#44B5C5"/>
<path d="M1411.24 132.124C1411.62 131.433 1412.62 131.433 1413 132.124L1440.57 182.285C1440.94 182.951 1440.45 183.766 1439.69 183.766H1384.55C1383.79 183.766 1383.31 182.951 1383.67 182.285L1411.24 132.124Z" fill="#44B5C5"/>
<path d="M1434.36 152.29C1434.74 151.599 1435.74 151.599 1436.12 152.29L1463.69 202.45C1464.06 203.117 1463.57 203.932 1462.81 203.932H1407.67C1406.91 203.932 1406.43 203.117 1406.79 202.45L1434.36 152.29Z" fill="#393744"/>
<path d="M1389.9 128.898C1390.28 128.207 1391.28 128.207 1391.66 128.898L1419.23 179.058C1419.59 179.725 1419.11 180.54 1418.35 180.54H1363.21C1362.45 180.54 1361.96 179.725 1362.33 179.058L1389.9 128.898Z" fill="#6AD8D7"/>
<path d="M1407.69 162.776C1408.07 162.085 1409.06 162.085 1409.44 162.776L1437.01 212.936C1437.38 213.602 1436.9 214.418 1436.14 214.418H1380.99C1380.23 214.418 1379.75 213.602 1380.11 212.936L1407.69 162.776Z" fill="#393744"/>
<path d="M1437.92 179.714C1438.3 179.023 1439.29 179.023 1439.67 179.714L1467.25 229.875C1467.61 230.541 1467.13 231.356 1466.37 231.356H1411.23C1410.46 231.356 1409.98 230.541 1410.35 229.875L1437.92 179.714Z" fill="#6AD8D7"/>
<path d="M1343.68 139.964C1344.06 139.302 1345.02 139.302 1345.4 139.964L1377.55 195.106C1377.94 195.773 1377.46 196.61 1376.68 196.61H1312.4C1311.62 196.61 1311.14 195.773 1311.53 195.106L1343.68 139.964Z" fill="#44B5C5"/>
<path d="M1377.45 159.549C1377.83 158.858 1378.83 158.858 1379.21 159.549L1406.78 209.71C1407.15 210.376 1406.66 211.191 1405.9 211.191H1350.76C1350 211.191 1349.52 210.376 1349.88 209.71L1377.45 159.549Z" fill="#393744"/>
<path d="M1393.46 178.101C1393.84 177.41 1394.83 177.41 1395.21 178.101L1422.79 228.262C1423.15 228.928 1422.67 229.743 1421.91 229.743H1366.76C1366 229.743 1365.52 228.928 1365.89 228.262L1393.46 178.101Z" fill="#6AD8D7"/>
<path d="M1414.8 199.88C1415.18 199.189 1416.17 199.189 1416.55 199.88L1444.13 250.04C1444.49 250.706 1444.01 251.522 1443.25 251.522H1388.11C1387.34 251.522 1386.86 250.706 1387.23 250.04L1414.8 199.88Z" fill="#44B5C5"/>
<path d="M1439.7 215.205C1440.08 214.514 1441.07 214.514 1441.45 215.205L1469.03 265.365C1469.39 266.032 1468.91 266.847 1468.15 266.847H1413C1412.24 266.847 1411.76 266.032 1412.13 265.365L1439.7 215.205Z" fill="#393744"/>
<path d="M1445.04 244.243C1445.42 243.552 1446.41 243.552 1446.79 244.243L1474.36 294.403C1474.73 295.07 1474.24 295.885 1473.48 295.885H1418.34C1417.58 295.885 1417.1 295.07 1417.46 294.403L1445.04 244.243Z" fill="#44B5C5"/>
<path d="M1320.54 154.285C1320.92 153.594 1321.92 153.594 1322.3 154.285L1349.87 204.445C1350.24 205.112 1349.75 205.927 1348.99 205.927H1293.85C1293.09 205.927 1292.6 205.112 1292.97 204.445L1320.54 154.285Z" fill="#6AD8D7"/>
<path d="M1356.11 178.101C1356.49 177.41 1357.49 177.41 1357.87 178.101L1385.44 228.262C1385.8 228.928 1385.32 229.743 1384.56 229.743H1329.42C1328.66 229.743 1328.17 228.928 1328.54 228.262L1356.11 178.101Z" fill="#44B5C5"/>
<path d="M1388.12 210.365C1388.5 209.674 1389.5 209.674 1389.88 210.365L1417.45 260.526C1417.82 261.192 1417.33 262.007 1416.57 262.007H1361.43C1360.67 262.007 1360.19 261.192 1360.55 260.526L1388.12 210.365Z" fill="#393744"/>
<path d="M1413.02 233.757C1413.4 233.066 1414.4 233.066 1414.78 233.757L1442.35 283.917C1442.71 284.584 1442.23 285.399 1441.47 285.399H1386.33C1385.57 285.399 1385.08 284.584 1385.45 283.917L1413.02 233.757Z" fill="#6AD8D7"/>
<path d="M1290.31 165.265C1290.69 164.574 1291.68 164.574 1292.06 165.265L1319.64 215.425C1320 216.091 1319.52 216.907 1318.76 216.907H1263.61C1262.85 216.907 1262.37 216.091 1262.74 215.425L1290.31 165.265Z" fill="#44B5C5"/>
<path d="M1264.48 169.77C1264.82 168.948 1265.98 168.948 1266.32 169.77L1291.78 231.072C1292.05 231.73 1291.57 232.455 1290.85 232.455H1239.94C1239.23 232.455 1238.75 231.73 1239.02 231.072L1264.48 169.77Z" fill="#393744"/>
<path d="M1324.1 179.714C1324.48 179.023 1325.47 179.023 1325.85 179.714L1353.43 229.875C1353.79 230.541 1353.31 231.356 1352.55 231.356H1297.4C1296.64 231.356 1296.16 230.541 1296.53 229.875L1324.1 179.714Z" fill="#393744"/>
<path d="M1363.23 204.719C1363.61 204.028 1364.6 204.028 1364.98 204.719L1392.55 254.88C1392.92 255.546 1392.44 256.361 1391.68 256.361H1336.53C1335.77 256.361 1335.29 255.546 1335.65 254.88L1363.23 204.719Z" fill="#6AD8D7"/>
<path d="M1381.01 236.177C1381.39 235.486 1382.38 235.486 1382.76 236.177L1410.34 286.337C1410.7 287.004 1410.22 287.819 1409.46 287.819H1354.31C1353.55 287.819 1353.07 287.004 1353.44 286.337L1381.01 236.177Z" fill="#44B5C5"/>
<path d="M1411.24 253.922C1411.62 253.231 1412.62 253.231 1413 253.922L1440.57 304.083C1440.94 304.749 1440.45 305.564 1439.69 305.564H1384.55C1383.79 305.564 1383.31 304.749 1383.67 304.083L1411.24 253.922Z" fill="#393744"/>
<path d="M1441.48 266.828C1441.86 266.137 1442.85 266.137 1443.23 266.828L1470.8 316.988C1471.17 317.655 1470.69 318.47 1469.93 318.47H1414.78C1414.02 318.47 1413.54 317.655 1413.91 316.988L1441.48 266.828Z" fill="#6AD8D7"/>
<path d="M1295.65 196.653C1296.03 195.962 1297.02 195.962 1297.4 196.653L1324.97 246.814C1325.34 247.48 1324.85 248.295 1324.09 248.295H1268.95C1268.19 248.295 1267.71 247.48 1268.07 246.814L1295.65 196.653Z" fill="#6AD8D7"/>
<path d="M1331.21 203.913C1331.59 203.222 1332.59 203.222 1332.97 203.913L1360.54 254.073C1360.91 254.739 1360.42 255.555 1359.66 255.555H1304.52C1303.76 255.555 1303.28 254.739 1303.64 254.073L1331.21 203.913Z" fill="#44B5C5"/>
<path d="M1349 231.337C1349.38 230.646 1350.37 230.646 1350.75 231.337L1378.32 281.498C1378.69 282.164 1378.21 282.979 1377.45 282.979H1322.3C1321.54 282.979 1321.06 282.164 1321.43 281.498L1349 231.337Z" fill="#393744"/>
<path d="M1379.23 262.795C1379.61 262.104 1380.61 262.104 1380.99 262.795L1408.56 312.955C1408.92 313.622 1408.44 314.437 1407.68 314.437H1352.54C1351.78 314.437 1351.29 313.622 1351.66 312.955L1379.23 262.795Z" fill="#6AD8D7"/>
<path d="M1409.47 279.734C1409.85 279.043 1410.84 279.043 1411.22 279.734L1438.79 329.894C1439.16 330.561 1438.68 331.376 1437.91 331.376H1382.77C1382.01 331.376 1381.53 330.561 1381.89 329.894L1409.47 279.734Z" fill="#44B5C5"/>
<path d="M1441.48 296.673C1441.86 295.982 1442.85 295.982 1443.23 296.673L1470.8 346.833C1471.17 347.499 1470.69 348.315 1469.93 348.315H1414.78C1414.02 348.315 1413.54 347.499 1413.91 346.833L1441.48 296.673Z" fill="#393744"/>
<path d="M1263.63 208.752C1264.01 208.061 1265.01 208.061 1265.39 208.752L1292.96 258.913C1293.33 259.579 1292.84 260.394 1292.08 260.394H1236.94C1236.18 260.394 1235.69 259.579 1236.06 258.913L1263.63 208.752Z" fill="#44B5C5"/>
<path d="M1292.09 220.045C1292.47 219.354 1293.46 219.354 1293.84 220.045L1321.41 270.205C1321.78 270.872 1321.3 271.687 1320.54 271.687H1265.39C1264.63 271.687 1264.15 270.872 1264.52 270.205L1292.09 220.045Z" fill="#393744"/>
<path d="M1325.88 233.757C1326.26 233.066 1327.25 233.066 1327.63 233.757L1355.2 283.917C1355.57 284.584 1355.09 285.399 1354.33 285.399H1299.18C1298.42 285.399 1297.94 284.584 1298.31 283.917L1325.88 233.757Z" fill="#6AD8D7"/>
<path d="M1356.11 266.022C1356.49 265.331 1357.49 265.331 1357.87 266.022L1385.44 316.182C1385.8 316.848 1385.32 317.664 1384.56 317.664H1329.42C1328.66 317.664 1328.17 316.848 1328.54 316.182L1356.11 266.022Z" fill="#44B5C5"/>
<path d="M1379.23 297.479C1379.61 296.788 1380.61 296.788 1380.99 297.479L1408.56 347.639C1408.92 348.306 1408.44 349.121 1407.68 349.121H1352.54C1351.78 349.121 1351.29 348.306 1351.66 347.639L1379.23 297.479Z" fill="#393744"/>
<path d="M1413.02 304.739C1413.4 304.048 1414.4 304.048 1414.78 304.739L1442.35 354.899C1442.71 355.565 1442.23 356.381 1441.47 356.381H1386.33C1385.57 356.381 1385.08 355.565 1385.45 354.899L1413.02 304.739Z" fill="#6AD8D7"/>
<path d="M1229.84 220.851C1230.22 220.16 1231.22 220.16 1231.6 220.851L1259.17 271.012C1259.53 271.678 1259.05 272.493 1258.29 272.493H1203.15C1202.39 272.493 1201.9 271.678 1202.27 271.012L1229.84 220.851Z" fill="#393744"/>
<path d="M1260.08 232.144C1260.46 231.453 1261.45 231.453 1261.83 232.144L1289.4 282.304C1289.77 282.971 1289.29 283.786 1288.53 283.786H1233.38C1232.62 283.786 1232.14 282.971 1232.5 282.304L1260.08 232.144Z" fill="#6AD8D7"/>
<path d="M1292.09 251.503C1292.47 250.811 1293.46 250.811 1293.84 251.503L1321.41 301.663C1321.78 302.329 1321.3 303.144 1320.54 303.144H1265.39C1264.63 303.144 1264.15 302.329 1264.52 301.663L1292.09 251.503Z" fill="#44B5C5"/>
<path d="M1329.44 255.536C1329.82 254.845 1330.81 254.845 1331.19 255.536L1358.76 305.696C1359.13 306.362 1358.65 307.178 1357.88 307.178H1302.74C1301.98 307.178 1301.5 306.362 1301.86 305.696L1329.44 255.536Z" fill="#393744"/>
<path d="M1304.91 266.594C1305.29 265.903 1306.29 265.903 1306.67 266.594L1334.24 316.754C1334.61 317.421 1334.12 318.236 1333.36 318.236H1278.22C1277.46 318.236 1276.98 317.421 1277.34 316.754L1304.91 266.594Z" fill="#6AD8D7"/>
<path d="M1354.33 284.574C1354.71 283.883 1355.71 283.883 1356.09 284.574L1383.66 334.734C1384.03 335.4 1383.54 336.216 1382.78 336.216H1327.64C1326.88 336.216 1326.4 335.4 1326.76 334.734L1354.33 284.574Z" fill="#393744"/>
<path d="M1352.56 302.319C1352.94 301.628 1353.93 301.628 1354.31 302.319L1381.88 352.479C1382.25 353.145 1381.77 353.961 1381 353.961H1325.86C1325.1 353.961 1324.62 353.145 1324.98 352.479L1352.56 302.319Z" fill="#44B5C5"/>
<path d="M1201.39 239.404C1201.77 238.712 1202.76 238.712 1203.14 239.404L1230.71 289.564C1231.08 290.23 1230.6 291.045 1229.84 291.045H1174.69C1173.93 291.045 1173.45 290.23 1173.81 289.564L1201.39 239.404Z" fill="#6AD8D7"/>
<path d="M1232.91 248.594C1233.29 247.903 1234.29 247.903 1234.67 248.594L1262.24 298.754C1262.61 299.421 1262.12 300.236 1261.36 300.236H1206.22C1205.46 300.236 1204.98 299.421 1205.34 298.754L1232.91 248.594Z" fill="#44B5C5"/>
<rect width="8.64607" height="12.4167" transform="matrix(1.00624 0.040424 -0.00259013 0.986225 1319.51 346.129)" fill="#E15C35"/>
<rect width="8.64542" height="12.1359" transform="matrix(1.00613 0.0387507 -0.00596252 0.98587 1250.15 343.709)" fill="#E15C35"/>
<path d="M1263.63 261.182C1264.01 260.491 1265.01 260.491 1265.39 261.182L1292.96 311.342C1293.33 312.009 1292.84 312.824 1292.08 312.824H1236.94C1236.18 312.824 1235.69 312.009 1236.06 311.342L1263.63 261.182Z" fill="#393744"/>
<path d="M1124.91 274.894C1125.29 274.203 1126.29 274.203 1126.67 274.894L1154.24 325.054C1154.61 325.721 1154.12 326.536 1153.36 326.536H1098.22C1097.46 326.536 1096.98 325.721 1097.34 325.054L1124.91 274.894Z" fill="#393744"/>
<path d="M1281.42 294.253C1281.8 293.562 1282.79 293.562 1283.17 294.253L1310.74 344.413C1311.11 345.079 1310.63 345.895 1309.87 345.895H1254.72C1253.96 345.895 1253.48 345.079 1253.84 344.413L1281.42 294.253Z" fill="#393744"/>
<path d="M1201.39 261.988C1201.77 261.297 1202.76 261.297 1203.14 261.988L1230.71 312.149C1231.08 312.815 1230.6 313.63 1229.84 313.63H1174.69C1173.93 313.63 1173.45 312.815 1173.81 312.149L1201.39 261.988Z" fill="#393744"/>
<path d="M1174.71 232.951C1175.09 232.26 1176.08 232.26 1176.46 232.951L1204.04 283.111C1204.4 283.777 1203.92 284.593 1203.16 284.593H1148.01C1147.25 284.593 1146.77 283.777 1147.14 283.111L1174.71 232.951Z" fill="#393744"/>
<path d="M1172.93 259.569C1173.31 258.878 1174.31 258.878 1174.68 259.569L1202.26 309.729C1202.62 310.395 1202.14 311.211 1201.38 311.211H1146.24C1145.48 311.211 1144.99 310.395 1145.36 309.729L1172.93 259.569Z" fill="#44B5C5"/>
<path d="M1233.4 279.734C1233.78 279.043 1234.77 279.043 1235.15 279.734L1262.72 329.894C1263.09 330.561 1262.61 331.376 1261.85 331.376H1206.7C1205.94 331.376 1205.46 330.561 1205.83 329.894L1233.4 279.734Z" fill="#6AD8D7"/>
<path d="M1155.15 277.314C1155.53 276.623 1156.52 276.623 1156.9 277.314L1184.47 327.474C1184.84 328.141 1184.36 328.956 1183.6 328.956H1128.45C1127.69 328.956 1127.21 328.141 1127.58 327.474L1155.15 277.314Z" fill="#6AD8D7"/>
<path d="M1260.08 287.8C1260.46 287.109 1261.45 287.109 1261.83 287.8L1289.4 337.96C1289.77 338.627 1289.29 339.442 1288.53 339.442H1233.38C1232.62 339.442 1232.14 338.627 1232.5 337.96L1260.08 287.8Z" fill="#44B5C5"/>
<path d="M1322.32 279.734C1322.7 279.043 1323.69 279.043 1324.07 279.734L1351.65 329.894C1352.01 330.561 1351.53 331.376 1350.77 331.376H1295.63C1294.87 331.376 1294.38 330.561 1294.75 329.894L1322.32 279.734Z" fill="#44B5C5"/>
<path d="M1320.54 301.512C1320.92 300.821 1321.92 300.821 1322.3 301.512L1349.87 351.673C1350.24 352.339 1349.75 353.154 1348.99 353.154H1293.85C1293.09 353.154 1292.6 352.339 1292.97 351.673L1320.54 301.512Z" fill="#6AD8D7"/>
<path d="M1190.91 276.594C1191.29 275.903 1192.29 275.903 1192.67 276.594L1220.24 326.754C1220.61 327.421 1220.12 328.236 1219.36 328.236H1164.22C1163.46 328.236 1162.98 327.421 1163.34 326.754L1190.91 276.594Z" fill="#393744"/>
<path d="M1156.93 295.059C1157.31 294.368 1158.3 294.368 1158.68 295.059L1186.25 345.22C1186.62 345.886 1186.14 346.701 1185.38 346.701H1130.23C1129.47 346.701 1128.99 345.886 1129.35 345.22L1156.93 295.059Z" fill="#393744"/>
<path d="M1231.62 296.696C1232 295.999 1233 295.999 1233.38 296.696L1256.34 338.973C1256.7 339.639 1256.22 340.45 1255.46 340.45H1209.54C1208.78 340.45 1208.3 339.639 1208.66 338.973L1231.62 296.696Z" fill="#393744"/>
<path d="M1124.91 294.253C1125.29 293.562 1126.29 293.562 1126.67 294.253L1154.24 344.413C1154.61 345.079 1154.12 345.895 1153.36 345.895H1098.22C1097.46 345.895 1096.98 345.079 1097.34 344.413L1124.91 294.253Z" fill="#44B5C5"/>
<path d="M1192.5 298.286C1192.88 297.595 1193.87 297.595 1194.25 298.286L1221.82 348.446C1222.19 349.113 1221.7 349.928 1220.94 349.928H1165.8C1165.04 349.928 1164.56 349.113 1164.92 348.446L1192.5 298.286Z" fill="#6AD8D7"/>
<path d="M1254.74 297.479C1255.12 296.788 1256.11 296.788 1256.49 297.479L1284.07 347.639C1284.43 348.306 1283.95 349.121 1283.19 349.121H1228.04C1227.28 349.121 1226.8 348.306 1227.17 347.639L1254.74 297.479Z" fill="#6AD8D7"/>
</svg>
