<svg width="429" height="315" viewBox="0 0 429 315" fill="none" xmlns="http://www.w3.org/2000/svg">
<path fill-rule="evenodd" clip-rule="evenodd" d="M0 212.573L138.223 110.919L179.332 141.152L67.9199 223.089L78.6441 230.976L190.057 149.039L276.446 212.573L138.223 314.227L0 212.573ZM200.781 196.361L89.3684 278.297L100.093 286.184L211.505 204.248L200.781 196.361Z" fill="#C4C4C4"/>
<mask id="mask0" mask-type="alpha" maskUnits="userSpaceOnUse" x="0" y="110" width="277" height="205">
<path fill-rule="evenodd" clip-rule="evenodd" d="M0 212.573L138.223 110.919L179.332 141.152L67.9199 223.089L78.6441 230.976L190.057 149.039L276.446 212.573L138.223 314.227L0 212.573ZM200.781 196.361L89.3684 278.297L100.093 286.184L211.505 204.248L200.781 196.361Z" fill="#C4C4C4"/>
</mask>
<g mask="url(#mask0)">
<path d="M-20.2217 215.641L138.603 106.581V175.363L78.7806 218.739L78.7806 295.577L-20.2217 215.641Z" fill="#D66440"/>
<path d="M67.827 223.077L189.158 147.788L190 215.951L67.4058 296.816L67.827 223.077Z" fill="#6AD8D7"/>
<path d="M245.188 186.207L138.182 107.201V259.946L187.893 226.795L245.188 186.207Z" fill="#E9A98D"/>
<path d="M189.579 217.19V133.536L286.896 221.837L240.976 252.82L189.579 286.592V217.19Z" fill="#6AD8D7"/>
<path d="M78.7803 230.822L190 147.479V213.162L78.7803 293.408V230.822Z" fill="#44B5C5"/>
<path d="M95.2109 290L211.486 204.177V265.523L95.2109 341.122V290Z" fill="#393744"/>
</g>
<path fill-rule="evenodd" clip-rule="evenodd" d="M290.729 -2.6113e-05L152.506 101.654L215.659 148.099L303.836 83.2511L315.156 91.5763L226.979 156.425L290.729 203.308L428.952 101.654L290.729 -2.6113e-05Z" fill="#E9A98D"/>
<mask id="mask1" mask-type="alpha" maskUnits="userSpaceOnUse" x="152" y="0" width="277" height="204">
<path fill-rule="evenodd" clip-rule="evenodd" d="M290.729 -2.6113e-05L152.506 101.654L215.659 148.099L303.836 83.2511L315.156 91.5763L226.979 156.425L290.729 203.308L428.952 101.654L290.729 -2.6113e-05Z" fill="#C4C4C4"/>
</mask>
<g mask="url(#mask1)">
<path d="M216.963 159.252L315.123 91.7093V195.192L289.845 204.177L216.963 159.252Z" fill="#44B5C5"/>
<path d="M151.242 101.314L290.688 -3.0983V95.4272L215.699 147.788L151.242 101.314Z" fill="#D66440"/>
</g>
</svg>
