<svg width="959" height="110" viewBox="0 0 959 110" fill="none" xmlns="http://www.w3.org/2000/svg">
<g clip-path="url(#clip0)">
<ellipse rx="17.5636" ry="4.90697" transform="matrix(0.99863 -0.0523357 0 1 98.324 104.217)" fill="#A4A4A4"/>
<rect width="288.469" height="63.8071" transform="matrix(0.99863 -0.0523359 0 1 277.441 30.3135)" fill="#777E80"/>
<path d="M0.61673 89.0269C3.0157 63.7704 12.804 52.5084 36.7225 42.9295L277.493 30.3112V94.1184L19.6393 107.632C8.75915 108.202 -0.41859 99.9268 0.61673 89.0269Z" fill="#F0F1F4"/>
<path d="M958.83 58.4114C958.83 40.4645 892.63 13.5462 853.085 1.73136C850.028 0.81789 846.822 0.474326 843.582 0.644129L558.077 15.6068V79.4139L958.83 58.4114Z" fill="#F0F1F4"/>
<rect width="266.115" height="63.8071" transform="matrix(0.99863 -0.052336 0 1 284.88 29.9241)" fill="#F0F1F4"/>
<path d="M10.6288 60.2496L890.264 14.1499C895.579 16.8098 923.785 28.1147 931.19 33.8338L1.59326 82.5519C2.65626 77.4588 5.84527 65.1179 10.6288 60.2496Z" fill="#A0D98A"/>
<rect width="27.676" height="46.1762" rx="2" transform="matrix(0.99863 -0.0523362 0 1 300.83 46.7188)" fill="#E8E8E8"/>
<rect width="27.676" height="46.1762" rx="2" transform="matrix(0.99863 -0.0523362 0 1 35.0791 60.6416)" fill="#E8E8E8"/>
<rect width="27.676" height="46.1762" rx="2" transform="matrix(0.99863 -0.0523361 0 1 234.924 50.1719)" fill="#E8E8E8"/>
<rect width="27.676" height="46.1762" rx="2" transform="matrix(0.99863 -0.0523362 0 1 509.176 35.7979)" fill="#E8E8E8"/>
<rect width="27.676" height="46.1762" rx="2" transform="matrix(0.99863 -0.0523362 0 1 572.954 32.4563)" fill="#E8E8E8"/>
<rect width="27.676" height="46.1762" rx="2" transform="matrix(0.99863 -0.0523362 0 1 797.252 20.7012)" fill="#E8E8E8"/>
<path d="M36.1415 42.9565L849.339 0.338634C855.187 1.25881 857.965 1.8878 864.752 5.40782L23.3855 49.502C27.5412 46.4933 30.2249 45.0002 36.1415 42.9565Z" fill="#A0D98A"/>
<rect width="7.45123" height="63.8071" transform="matrix(0.99863 -0.0523351 0 1 277.441 30.3135)" fill="#777E80"/>
<rect width="7.45123" height="63.8071" transform="matrix(0.99863 -0.0523377 0 1 550.632 15.9954)" fill="#777E80"/>
<rect width="26.6115" height="16.7914" rx="2" transform="matrix(0.99863 -0.052336 0 1 76.6985 59.2861)" fill="#213C51"/>
<rect width="26.6115" height="16.7914" rx="2" transform="matrix(0.99863 -0.052336 0 1 188.698 52.9541)" fill="#08043F"/>
<path d="M133.123 58.3449C133.123 57.2403 134.017 56.2981 135.12 56.2402L157.7 55.0569C158.804 54.999 159.698 55.8476 159.698 56.9522V69.7435C159.698 70.8481 158.804 71.7904 157.7 71.8482L135.12 73.0316C134.017 73.0894 133.123 72.2408 133.123 71.1363V58.3449Z" fill="#08043F"/>
<rect width="26.6115" height="16.7914" rx="2" transform="matrix(0.99863 -0.0523358 0 1 344.864 45.0928)" fill="#08043F"/>
<rect width="26.6115" height="16.7914" rx="2" transform="matrix(0.99863 -0.0523358 0 1 467.626 38.6421)" fill="#08043F"/>
<path d="M405.645 43.9292C405.645 42.8246 406.54 41.8823 407.643 41.8245L430.223 40.6411C431.326 40.5833 432.22 41.4319 432.22 42.5365V55.3278C432.22 56.4324 431.326 57.3747 430.223 57.4325L407.643 58.6159C406.54 58.6737 405.645 57.8251 405.645 56.7206L405.645 43.9292Z" fill="#08043F"/>
<rect width="26.6115" height="16.7914" rx="2" transform="matrix(0.99863 -0.0523358 0 1 619.036 31.2529)" fill="#08043F"/>
<rect width="26.6115" height="16.7914" rx="2" transform="matrix(0.99863 -0.0523358 0 1 754.933 24.448)" fill="#08043F"/>
<rect width="26.6115" height="16.7914" rx="2" transform="matrix(0.99863 -0.0523358 0 1 686.946 27.3816)" fill="#08043F"/>
<path d="M832.327 7.07312C837.597 1.08057 840.637 -2.49069 857.839 1.99226C890.35 12.2261 906.505 19.5392 933.312 34.1041L870.275 37.4077L832.327 7.07312Z" fill="#08043F"/>
<path d="M71.7652 102.842C73.6584 100.329 76.5536 98.7679 79.6187 98.6073L116.603 96.669C119.322 96.5265 121.924 97.5006 123.807 99.3663L126.493 102.028L70.1543 104.98L71.7652 102.842Z" fill="#D5D3D3"/>
<ellipse rx="17.5636" ry="4.19784" transform="matrix(0.99863 -0.0523356 0 1 374.704 89.0225)" fill="#A4A4A4"/>
<path d="M348.145 88.357C350.038 85.844 352.934 84.2828 355.999 84.1222L392.983 82.1839C395.702 82.0414 398.304 83.0155 400.187 84.8812L402.873 87.5425L346.534 90.4951L348.145 88.357Z" fill="#D5D3D3"/>
<ellipse rx="17.5636" ry="4.19784" transform="matrix(0.99863 -0.0523357 0 1 653.212 74.4263)" fill="#A4A4A4"/>
<path d="M626.653 73.7666C628.546 71.2537 631.441 69.6925 634.507 69.5318L671.491 67.5935C674.21 67.451 676.812 68.4251 678.695 70.2908L681.381 72.9522L625.042 75.9048L626.653 73.7666Z" fill="#D5D3D3"/>
<ellipse rx="17.5636" ry="4.19784" transform="matrix(0.99863 -0.0523364 0 1 864.754 63.3387)" fill="#A4A4A4"/>
<path d="M838.194 62.679C840.088 60.166 842.983 58.6048 846.048 58.4442L883.032 56.5059C885.752 56.3634 888.353 57.3375 890.237 59.2032L892.923 61.8645L836.584 64.8172L838.194 62.679Z" fill="#D5D3D3"/>
<ellipse rx="17.5636" ry="4.19784" transform="matrix(0.99863 -0.0523364 0 1 459.745 84.563)" fill="#A4A4A4"/>
<path d="M433.186 83.9033C435.079 81.3904 437.974 79.8292 441.039 79.6685L478.024 77.7303C480.743 77.5878 483.345 78.5619 485.228 80.4276L487.914 83.0889L431.575 86.0415L433.186 83.9033Z" fill="#D5D3D3"/>
<ellipse rx="17.5636" ry="4.66256" transform="matrix(0.99863 -0.0523356 0 1 181.244 99.624)" fill="#A4A4A4"/>
<path d="M154.684 98.4993C156.577 95.9863 159.473 94.4251 162.538 94.2645L199.522 92.3262C202.241 92.1837 204.843 93.1578 206.726 95.0235L209.413 97.6849L153.073 100.637L154.684 98.4993Z" fill="#D5D3D3"/>
</g>
<defs>
<clipPath id="clip0">
<rect width="959" height="110" fill="white"/>
</clipPath>
</defs>
</svg>
