<svg width="940" height="134" viewBox="0 0 940 134" fill="none" xmlns="http://www.w3.org/2000/svg">
<path d="M335.085 11.5491V4.72461H437.053L441.019 7.29416H505.032L540.154 14.1739V23.0983H526.558V16.4119H508.431V23.0983H502.199V16.4119H480.673V23.0983H470.476V16.4119H450.082V23.0983H437.053V16.4119H422.891V23.0983H417.226V16.4119H407.029V23.0983H403.064V16.4119H393.434V23.0983H384.936V16.4119H379.838V23.0983H375.306V16.4119H343.884V23.0983H339.051V11.5491H335.085Z" fill="#52505C"/>
<path d="M748.139 0H555.75V12.0741L552.978 19.9486L555.75 21.5234H920.014V9.97428H900.054V4.72466H881.204V14.174H849.046L844.611 9.97428H806.909V4.72466H759.228L748.139 0Z" fill="#52505C"/>
<path d="M207.565 44.6217L224.753 17.8486L926.113 19.4235L939.974 45.1467V99.7427H207.565V44.6217Z" fill="#D8D8D8"/>
<path d="M207.565 54H940V63H207.565V54Z" fill="#44B5C5"/>
<path d="M207.565 66H940V75H207.565V66Z" fill="#D2F6FB"/>
<rect x="861.798" y="30.4478" width="7.76209" height="20.9985" rx="2" fill="#383C3D"/>
<rect x="871.778" y="30.4478" width="7.76209" height="20.9985" rx="2" fill="#383C3D"/>
<path d="M228.634 5V18.649H328.432L321.367 8.89972H312.987V5H298.73V8.89972H242.297V5H228.634Z" fill="#52505C"/>
<rect x="426.187" y="100" width="242.913" height="20" fill="#393744"/>
<rect x="272.625" y="28.0718" width="22.2358" height="71.7387" rx="4" fill="#AEAEAE"/>
<ellipse cx="251.844" cy="117.041" rx="18.9076" ry="16.2993" fill="#393744"/>
<ellipse cx="385.819" cy="117.041" rx="18.9076" ry="16.2993" fill="#393744"/>
<ellipse cx="318.831" cy="117.041" rx="18.9076" ry="16.2993" fill="#393744"/>
<path d="M223.213 103.536H236.178V99.8105H401.485V103.536H414.45V123.095H223.213V103.536Z" fill="#393744"/>
<rect x="830.99" y="30.4111" width="22.2358" height="69.3994" rx="4" fill="#AEAEAE"/>
<rect x="835.186" y="34.6475" width="13.3064" height="16.7988" rx="3" fill="#3C3A3D"/>
<ellipse cx="712.655" cy="117.042" rx="19.4052" ry="16.2994" fill="#393744"/>
<ellipse cx="850.155" cy="117.042" rx="19.4052" ry="16.2994" fill="#393744"/>
<ellipse cx="781.405" cy="117.042" rx="19.4052" ry="16.2994" fill="#393744"/>
<path d="M683.27 103.536H696.577V99.8105H866.234V103.536H879.54V123.095H683.27V103.536Z" fill="#393744"/>
<rect x="277.424" y="32.5479" width="13.3064" height="16.7988" rx="3" fill="#3C3A3D"/>
<rect x="249.702" y="29.3979" width="7.76209" height="20.9985" rx="2" fill="#383C3D"/>
<rect x="259.682" y="29.3979" width="7.76209" height="20.9985" rx="2" fill="#383C3D"/>
<path d="M925.421 28.0137L923.067 28.2448C922.385 28.3118 921.979 29.0284 922.269 29.6517L928.662 43.3754C928.844 43.7648 929.252 43.9985 929.678 43.9567L932.999 43.6305C933.706 43.5611 934.109 42.7978 933.77 42.1702L926.41 28.5415C926.216 28.1826 925.825 27.974 925.421 28.0137Z" fill="#383C3D"/>
<path d="M222.826 28.4861L225.629 28.6616C226.314 28.7045 226.748 29.4073 226.482 30.0408L219.973 45.517C219.807 45.9121 219.408 46.1597 218.981 46.133L215.097 45.8897C214.388 45.8453 213.955 45.0955 214.27 44.456L221.859 29.0475C222.039 28.6825 222.421 28.4607 222.826 28.4861Z" fill="#383C3D"/>
<ellipse cx="18.6316" cy="117.23" rx="18.9076" ry="16.2993" fill="#393744"/>
<ellipse cx="152.606" cy="117.23" rx="18.9076" ry="16.2993" fill="#393744"/>
<ellipse cx="85.6186" cy="117.23" rx="18.9076" ry="16.2993" fill="#393744"/>
<path d="M-10 103.726H2.96524V100H168.272V103.726H181.237V123.285H-10V103.726Z" fill="#393744"/>
<rect x="-5.77545" y="19" width="195.386" height="81" rx="2" fill="#9F9F9F"/>
<rect x="150.534" y="28" width="22.2358" height="71.7387" rx="4" fill="#AEAEAE"/>
<rect x="155.332" y="32.4761" width="13.3064" height="16.7988" rx="3" fill="#3C3A3D"/>
<rect x="112.513" y="34" width="15.8421" height="15" rx="3" fill="#3C3A3D"/>
<rect x="71.3229" y="34" width="15.8421" height="15" rx="3" fill="#3C3A3D"/>
<rect x="31.1896" y="34" width="15.8421" height="15" rx="3" fill="#3C3A3D"/>
<rect x="174.825" y="107" width="53.8633" height="11" fill="#393744"/>
</svg>
