<?xml version="1.0" encoding="UTF-8" standalone="no"?>
<!DOCTYPE svg PUBLIC "-//W3C//DTD SVG 1.1//EN" "http://www.w3.org/Graphics/SVG/1.1/DTD/svg11.dtd">
<svg width="100%" viewBox="0 0 2707 209" version="1.1" xmlns="http://www.w3.org/2000/svg" xmlns:xlink="http://www.w3.org/1999/xlink" xml:space="preserve" style="fill-rule:evenodd;clip-rule:evenodd;stroke-linejoin:round;stroke-miterlimit:2;">
    <rect id="Artboard1" x="0" y="0" width="2706.16" height="208.333" style="fill:none;"/>
    <clipPath id="_clip1">
        <rect x="0" y="0" width="2706.16" height="208.333"/>
    </clipPath>
    <g clip-path="url(#_clip1)">
        <rect x="0.853" y="162.237" width="2712.24" height="8.406" style="fill:#f7a688;"/>
        <rect x="0.853" y="173.443" width="2712.24" height="8.406" style="fill:#f7a688;"/>
        <path d="M1334.94,27.321c0,-3.057 -2.482,-5.539 -5.539,-5.539l-1323.01,-0c-3.057,-0 -5.539,2.482 -5.539,5.539c-0,3.057 2.482,5.539 5.539,5.539l1323.01,0c3.057,0 5.539,-2.482 5.539,-5.539Z" style="fill:#f7a688;"/>
        <path d="M0.213,4.67c-0,-2.579 2.091,-4.67 4.67,-4.67l1039.52,-0c2.579,-0 4.67,2.091 4.67,4.67c0,2.58 -2.091,4.671 -4.67,4.671l-1039.52,-0c-2.579,-0 -4.67,-2.091 -4.67,-4.671Z" style="fill:#e15c35;fill-rule:nonzero;"/>
        <path d="M0.213,200.621c-0,-3.496 3.098,-6.331 6.919,-6.331l1508.3,0c3.822,0 6.918,2.835 6.918,6.331c0,3.496 -3.096,6.33 -6.918,6.33c-590.799,0.672 -1333.22,2.499 -1508.3,0c-3.821,0 -6.919,-2.834 -6.919,-6.33Z" style="fill:#e15c35;fill-rule:nonzero;"/>
        <g id="train">
            <path d="M1.321,49.03l1527.51,0.467c52.099,5.756 75.502,21.654 107.431,40.4c17.725,10.401 35.032,26.134 33.456,46.372c-0.29,3.755 -0.981,7.611 -2.059,11.784c-1.689,6.511 -7.93,10.719 -14.75,10.719l-1651.59,0l-0,-109.742Z" style="fill:#fcfcfe;fill-rule:nonzero;"/>
            <path d="M1412.2,49.03l114.813,0c52.163,5.763 76.274,21.806 108.556,40.628c17.741,10.348 34.888,25.96 34.212,46.247c-0.145,4.013 -0.707,8.117 -1.769,12.542c-1.544,6.563 -7.849,10.775 -14.685,10.749l-241.127,-0.891c34.019,-42.674 41.82,-66.6 -0,-109.275Z" style="fill:#b4b4b4;fill-opacity:0.5;fill-rule:nonzero;"/>
            <path d="M1206.52,102.269l-8.637,-2.091c-6.084,-1.472 -10.361,-6.84 -10.361,-13.005c0,-7.397 6.095,-13.392 13.611,-13.392l358.068,0c3.716,0 7.399,0.622 10.874,1.891c17.226,6.296 27.296,11.198 40.179,20.04c1.882,1.288 3.636,2.763 5.003,4.575c1.785,2.395 2.863,4.642 3.249,6.962c1.914,11.085 -12.466,16.966 -23.886,16.966l-263.613,0c-4.922,0 -9.78,-1.112 -14.203,-3.25l-30.433,-14.735c-4.423,-2.138 -9.281,-3.251 -14.203,-3.251l-59.685,0c-2.009,0 -4.012,-0.239 -5.963,-0.71Z" style="fill:#393744;fill-rule:nonzero;"/>
            <path d="M1472.5,73.781l59.723,0l-17.629,50.434l-59.723,0l17.629,-50.434Z" style="fill:#f7a688;fill-rule:nonzero;"/>
            <path d="M1137.65,124.215l-466.222,0c-4.004,0 -8.004,-0.945 -11.584,-2.708c-19.223,-9.469 -19.095,-36.89 0.526,-45.535c3.276,-1.445 6.826,-2.191 10.416,-2.191l430.834,0c6.087,0 12.051,1.7 17.195,4.902l27.249,16.956c4.562,2.839 7.327,7.779 7.327,13.089c-0,8.554 -7.047,15.487 -15.741,15.487Z" style="fill:#393744;fill-rule:nonzero;"/>
            <path d="M180.111,82.916l3.976,-3.058c5.123,-3.937 11.44,-6.077 17.941,-6.077l365.445,0c21.32,0 33.32,24.121 20.239,40.687c-4.854,6.15 -12.324,9.747 -20.239,9.747l-372.91,0c-8.187,0 -15.782,-4.197 -20.043,-11.075c-6.202,-10.01 -3.799,-23.005 5.591,-30.224Z" style="fill:#393744;fill-rule:nonzero;"/>
            <path d="M1011.19,73.781l15.927,0l-15.927,50.434l-17.066,0l17.066,-50.434Z" style="fill:#f7a688;fill-rule:nonzero;"/>
            <path d="M238.724,73.781l15.927,0l-15.927,50.434l-17.066,0l17.066,-50.434Z" style="fill:#f7a688;fill-rule:nonzero;"/>
            <path d="M1363.85,73.781l15.94,0l-15.94,50.434l-17.066,0l17.066,-50.434Z" style="fill:#f7a688;fill-rule:nonzero;"/>
            <path d="M978.762,73.781l25.598,0l-15.927,50.434l-26.166,0l16.495,-50.434Z" style="fill:#f7a688;fill-rule:nonzero;"/>
            <path d="M773.418,73.781l46.642,0l-15.927,50.434l-48.349,0l17.634,-50.434Z" style="fill:#f7a688;fill-rule:nonzero;"/>
            <path d="M465.684,73.781l46.644,0l-15.927,50.434l-48.351,0l17.634,-50.434Z" style="fill:#f7a688;fill-rule:nonzero;"/>
            <path d="M267.733,73.781l46.644,0l-15.927,50.434l-48.351,0l17.634,-50.434Z" style="fill:#f7a688;fill-rule:nonzero;"/>
            <path d="M326.891,73.781l46.643,0l-15.926,50.434l-48.35,0l17.633,-50.434Z" style="fill:#f7a688;fill-rule:nonzero;"/>
            <path d="M-294.342,82.916l3.977,-3.058c5.123,-3.937 11.439,-6.077 17.941,-6.077l365.444,0c21.321,0 33.32,24.121 20.24,40.687c-4.855,6.15 -12.325,9.747 -20.24,9.747l-372.909,0c-8.188,0 -15.783,-4.197 -20.044,-11.075c-6.202,-10.01 -3.799,-23.005 5.591,-30.224Z" style="fill:#393744;fill-rule:nonzero;"/>
            <path d="M-8.769,73.781l46.644,0l-15.927,50.434l-48.351,0l17.634,-50.434Z" style="fill:#f7a688;fill-rule:nonzero;"/>
        </g>
    </g>
</svg>
