<svg width="559" height="323" viewBox="0 0 559 323" fill="none" xmlns="http://www.w3.org/2000/svg">
<path d="M122.955 82H134.173C134.173 165.571 139.238 233.397 154 277L122.955 277C122.955 277 114.056 218.863 122.955 82Z" fill="#393744"/>
<path d="M126.665 109.293C126.856 96.4518 129.022 89.4712 136.915 77.4794C155.674 95.9112 162.327 109.188 159.038 144.42C157.615 138.137 156.359 136.53 153.45 136.515C160.331 158.113 161.548 168.801 154.142 182.708C147.656 177.973 144.777 174.239 141.059 165.739C140.621 162.465 141.466 160.38 143.834 156.464C145.776 152.731 143.825 150.757 142.311 147.158L134.869 159.402C132.462 152.571 131.478 148.52 131.704 140.075L139.147 127.831C139.147 127.831 139.476 122.723 137.858 119.957C133.96 124.565 132.525 127.973 130.884 135.064C128.278 128.84 126.315 125.512 128.071 117.884C130.094 112.416 132.041 110.564 135.865 107.787C136.688 104.782 136.189 103.254 134.693 100.629C129.895 102.874 128.83 105.246 126.665 109.293Z" fill="#F7A688"/>
<path d="M118.135 48.2859C127.219 53.1503 131.134 57.3653 135.791 67.7846C113.316 75.3007 100.527 75.4901 76.9763 60.0378C82.1728 61.2623 83.9443 60.8964 85.3976 58.6861C66.5482 55.9907 58.3058 52.9903 52.0383 42.2384C58.6381 39.0378 62.7349 38.2166 70.654 38.5078C73.2116 39.3773 74.2827 40.7872 75.9067 44.0303C77.6122 46.8813 79.9909 46.1204 83.3135 46.2894L78.2527 36.1211C84.3282 36.7985 87.7117 37.5375 93.6359 40.8132L98.6967 50.9816C98.6967 50.9816 102.184 53.1098 104.964 52.8932C103.603 48.231 101.879 45.8853 97.6241 42.0297C103.365 42.332 106.717 42.0595 111.298 46.2005C114.203 49.7504 114.561 51.9143 114.65 55.8475C116.39 57.5785 117.729 57.7601 120.347 57.5854C121.122 53.1051 119.955 51.4228 118.135 48.2859Z" fill="#F7A688"/>
<path d="M88.7871 168.573L86.6903 187.659C70.7669 170.958 68.4094 139.78 68.8783 129.886C72.3979 119.493 86.6468 93.6758 106.227 77.3631C118.147 73.6267 137.77 67.762 140.927 78.8221L120.524 100.905L112.429 89.735C113.12 97.3892 113.563 101.652 117.452 107.655L111.186 114.035C109.464 107.653 107.857 103.841 105.29 97.1512L109.131 120.619L106.934 126.334L98.7397 101.793L103.72 132.215L101.38 137.06L93.0436 111.651C93.1114 127.4 93.637 135.444 98.3085 143.81L96.1112 149.525C89.9372 140.997 87.4141 135.139 82.6894 124.948C85.1485 138.763 85.7939 146.921 95.2156 156.811L92.2859 164.431C84.0197 154.612 80.7341 148.318 75.2439 136.877C79.292 149.834 80.6665 157.517 88.7871 168.573Z" fill="#F7A688"/>
<path d="M31.8458 118.761L15.1739 132.06C17.4593 109.908 40.6885 84.7577 48.9031 77.4971C59.6296 71.6624 90.0885 60.4291 116.662 59.5937C127.9 63.8043 146.172 70.9549 139.539 81.2505L107.794 85.9947L111.094 72.6922C105.468 78.9329 102.376 82.4433 100.283 89.3188L90.8546 90.4706C94.751 84.5882 96.6771 80.7324 100.233 74.1151L84.1808 94.27L78.1016 97.3229L91.9934 73.7739L71.185 99.9006L65.7003 102.207L80.1866 77.9115C67.675 89.9507 61.6239 96.3914 58.1891 105.531L52.1099 108.584C54.6331 98.431 57.556 92.4743 62.4095 81.9121C53.097 93.8934 47.0384 100.491 45.679 113.605L37.5733 117.676C39.676 105.301 42.4186 98.5603 47.7389 86.5921C40.2107 98.8614 35.0368 105.528 31.8458 118.761Z" fill="#F7A688"/>
<path d="M244.076 66.164L264.649 71.3669C252.974 52.6394 221.427 39.5237 210.982 36.333C198.932 35.3976 167.037 37.4691 143.116 47.2206C134.988 55.3887 121.905 68.9394 132.27 75.444L162.477 67.1147L153.758 56.6293C161.463 59.9385 165.733 61.8284 170.584 67.0948L179.444 64.3928C173.427 60.7185 170.04 58.0621 164.006 53.6022L187.015 65.1247L193.734 65.4298L171.161 50.0467L200.988 64.9832L206.855 64.8616L183.43 49.0517C199.765 54.7803 207.935 58.0985 214.961 64.8417L221.68 65.1468C215.021 57.1458 209.835 53.0213 200.932 45.5779C214.406 52.5184 222.651 55.9732 229.568 67.0573L238.527 67.4642C231.272 57.3282 225.905 52.4378 215.976 43.9328C227.993 51.8329 235.484 55.6981 244.076 66.164Z" fill="#F7A688"/>
<path d="M211.106 152.65L220.031 171.921C230.82 148.798 222.297 115.277 218.318 105.068C210.967 95.4119 186.942 73.3668 160.685 63.1663C146.884 63.451 124.265 64.2204 124.858 76.9294L154.012 92.8894L158.551 78.3247C160.526 86.5935 161.564 91.2194 159.609 98.8838L168.42 103.365C167.973 96.0659 168.313 91.5027 168.643 83.5833L172.893 109.543L177.209 114.76L177.139 86.1413L182.649 119.793L186.807 124.049L186.58 94.4683C192.061 111.004 194.347 119.625 192.404 130.043L196.72 135.26C200.179 124.142 200.757 117.111 202.112 104.76C204.407 120.111 206.607 128.893 200.227 142.584L205.981 149.54C211.177 136.331 212.399 128.574 214.115 114.642C214.444 129.655 215.713 138.194 211.106 152.65Z" fill="#F7A688"/>
<path d="M171.446 22.2326L182.476 14.0858C165.583 10.7044 145.207 20.5905 139.237 24.4481C134.2 30.2919 123.933 48.0666 121.759 65.5576C124.293 73.9641 128.643 87.7003 136.818 85.5665L142.249 65.5009L131.993 64.7519C137.041 62.3911 139.876 61.111 145.2 61.2402L146.618 55.2234C141.942 56.5136 138.913 56.9416 133.7 57.8427L149.88 51.625L152.543 48.2568L133.92 52.2864L154.894 44.2265L156.958 41.0886L137.735 45.3485C147.57 39.6902 152.794 37.0903 159.909 36.828L162.571 33.4598C154.743 32.8915 150.066 33.5177 141.793 34.409C151.399 30.8657 156.742 28.2957 166.743 30.2932L170.293 25.8023C160.808 24.4627 155.549 24.7955 146.186 25.6861C155.905 23.3935 161.25 21.4272 171.446 22.2326Z" fill="#F7A688"/>
<path d="M544.384 101H534.127C534.127 176.429 529.496 237.646 516 277L544.384 277C544.384 277 552.52 224.528 544.384 101Z" fill="#393744"/>
<path d="M540.807 124.831C540.64 113.651 538.755 107.574 531.883 97.1336C515.552 113.18 509.76 124.739 512.623 155.411C513.862 149.941 514.955 148.542 517.488 148.529C511.497 167.332 510.438 176.637 516.885 188.744C522.532 184.623 525.039 181.372 528.276 173.971C528.657 171.121 527.921 169.306 525.859 165.897C524.169 162.647 525.868 160.928 527.186 157.795L533.665 168.455C535.76 162.508 536.616 158.981 536.42 151.628L529.94 140.969C529.94 140.969 529.653 136.522 531.063 134.114C534.456 138.126 535.705 141.092 537.134 147.266C539.402 141.847 541.111 138.95 539.582 132.309C537.821 127.549 536.126 125.937 532.797 123.519C532.081 120.903 532.515 119.573 533.817 117.287C537.995 119.242 538.922 121.307 540.807 124.831Z" fill="#F7A688"/>
<path d="M548.233 71.7181C540.325 75.953 536.916 79.6225 532.861 88.6934C552.428 95.2369 563.562 95.4017 584.065 81.9492C579.541 83.0152 577.999 82.6967 576.734 80.7724C593.144 78.4258 600.32 75.8137 605.776 66.4532C600.03 63.6668 596.464 62.9519 589.569 63.2054C587.343 63.9624 586.41 65.1898 584.996 68.0132C583.512 70.4953 581.441 69.8328 578.548 69.98L582.954 61.1275C577.665 61.7173 574.719 62.3607 569.562 65.2125L565.156 74.0649C565.156 74.0649 562.12 75.9177 559.699 75.7292C560.885 71.6703 562.385 69.6282 566.089 66.2715C561.092 66.5347 558.174 66.2975 554.185 69.9026C551.656 72.9931 551.344 74.8769 551.267 78.3012C549.752 79.8081 548.586 79.9662 546.307 79.8141C545.632 75.9137 546.649 74.449 548.233 71.7181Z" fill="#F7A688"/>
<path d="M573.783 176.439L575.608 193.054C589.471 178.515 591.523 151.372 591.115 142.758C588.051 133.71 575.646 111.234 558.6 97.0324C548.223 93.7795 531.139 88.6738 528.391 98.3025L546.153 117.527L553.2 107.803C552.599 114.467 552.213 118.178 548.828 123.404L554.282 128.959C555.782 123.402 557.181 120.084 559.416 114.26L556.071 134.691L557.984 139.666L565.118 118.301L560.782 144.786L562.819 149.004L570.077 126.883C570.018 140.593 569.561 147.597 565.494 154.881L567.407 159.856C572.782 152.431 574.978 147.332 579.091 138.459C576.951 150.486 576.389 157.589 568.186 166.199L570.737 172.832C577.933 164.285 580.794 158.805 585.573 148.844C582.049 160.125 580.853 166.813 573.783 176.439Z" fill="#F7A688"/>
<path d="M623.355 133.073L637.87 144.651C635.88 125.366 615.657 103.47 608.505 97.1491C599.167 92.0694 572.65 82.2898 549.515 81.5625C539.732 85.2283 523.824 91.4534 529.599 100.417L557.235 104.547L554.363 92.966C559.26 98.399 561.952 101.455 563.774 107.441L571.983 108.444C568.591 103.322 566.914 99.9656 563.818 94.2047L577.793 111.751L583.086 114.409L570.991 93.9077L589.107 116.653L593.882 118.661L581.27 97.5098C592.163 107.991 597.431 113.598 600.421 121.555L605.714 124.213C603.517 115.374 600.972 110.188 596.747 100.993C604.854 111.423 610.129 117.168 611.312 128.584L618.369 132.128C616.538 121.355 614.151 115.486 609.519 105.067C616.073 115.749 620.577 121.553 623.355 133.073Z" fill="#F7A688"/>
<path d="M438.59 87.2826L420.68 91.8122C430.844 75.5082 458.308 64.0898 467.401 61.3121C477.892 60.4977 505.659 62.3011 526.484 70.7907C533.56 77.9017 544.951 89.6988 535.927 95.3616L509.629 88.1102L517.22 78.9818C510.512 81.8627 506.794 83.508 502.572 88.0929L494.858 85.7405C500.096 82.5417 503.045 80.2292 508.298 76.3464L488.267 86.3777L482.418 86.6434L502.069 73.251L476.102 86.2545L470.995 86.1487L491.388 72.3848C477.166 77.372 470.054 80.2609 463.937 86.1314L458.088 86.397C463.885 79.4314 468.4 75.8407 476.151 69.3606C464.421 75.4029 457.243 78.4105 451.221 88.0603L443.421 88.4145C449.737 79.5902 454.41 75.3327 463.054 67.9284C452.591 74.8061 446.07 78.1711 438.59 87.2826Z" fill="#F7A688"/>
<path d="M467.293 162.576L459.524 179.354C450.131 159.222 457.551 130.039 461.015 121.152C467.414 112.745 488.33 93.5532 511.189 84.6728C523.204 84.9207 542.896 85.5905 542.38 96.6548L516.999 110.549L513.047 97.8695C511.328 105.068 510.424 109.095 512.126 115.768L504.456 119.669C504.844 113.315 504.549 109.342 504.261 102.448L500.561 125.048L496.804 129.59L496.864 104.675L492.068 133.972L488.448 137.676L488.645 111.924C483.874 126.32 481.884 133.825 483.575 142.895L479.818 147.437C476.806 137.757 476.303 131.636 475.123 120.884C473.126 134.248 471.21 141.893 476.765 153.813L471.755 159.869C467.232 148.369 466.168 141.616 464.674 129.487C464.388 142.557 463.283 149.991 467.293 162.576Z" fill="#F7A688"/>
<path d="M501.821 49.0364L492.218 41.9439C506.925 39.0001 524.665 47.6068 529.862 50.9651C534.247 56.0527 543.185 71.5271 545.077 86.7546C542.872 94.0733 539.085 106.032 531.968 104.174L527.239 86.7052L536.168 86.0532C531.774 83.9979 529.305 82.8835 524.671 82.996L523.436 77.7578C527.507 78.881 530.144 79.2537 534.682 80.0381L520.596 74.6251L518.278 71.6928L534.491 75.2009L516.231 68.184L514.434 65.4522L531.169 69.1608C522.607 64.2347 518.059 61.9713 511.865 61.743L509.547 58.8107C516.363 58.3159 520.434 58.8611 527.636 59.637C519.274 56.5523 514.622 54.3149 505.915 56.0539L502.824 52.1442C511.082 50.9779 515.66 51.2676 523.812 52.043C515.351 50.047 510.698 48.3352 501.821 49.0364Z" fill="#F7A688"/>
<path d="M308.151 163.246H299.477C299.477 231.712 295.561 287.279 284.147 323L308.151 323C308.151 323 315.031 275.371 308.151 163.246Z" fill="#393744"/>
<path d="M305.448 183.985C305.303 174.266 303.664 168.982 297.69 159.906C283.492 173.856 278.456 183.905 280.946 210.571C282.023 205.816 282.974 204.599 285.175 204.588C279.967 220.935 279.046 229.024 284.652 239.55C289.56 235.966 291.74 233.14 294.554 226.707C294.886 224.228 294.246 222.65 292.453 219.687C290.984 216.861 292.46 215.367 293.606 212.644L299.239 221.91C301.06 216.74 301.805 213.674 301.634 207.282L296.001 198.015C296.001 198.015 295.752 194.149 296.977 192.055C299.927 195.543 301.013 198.122 302.255 203.489C304.227 198.779 305.713 196.26 304.384 190.486C302.853 186.349 301.379 184.947 298.485 182.845C297.862 180.571 298.239 179.414 299.372 177.427C303.004 179.126 303.809 180.921 305.448 183.985Z" fill="#F7A688"/>
<path d="M311.904 137.811C305.029 141.492 302.065 144.682 298.541 152.568C315.552 158.257 325.231 158.4 343.056 146.705C339.122 147.632 337.782 147.355 336.682 145.682C350.948 143.642 357.187 141.371 361.93 133.233C356.935 130.811 353.834 130.19 347.841 130.41C345.905 131.068 345.094 132.135 343.865 134.59C342.574 136.748 340.774 136.172 338.259 136.3L342.09 128.603C337.491 129.116 334.93 129.676 330.447 132.155L326.616 139.851C326.616 139.851 323.977 141.462 321.873 141.298C322.903 137.769 324.208 135.994 327.428 133.075C323.083 133.304 320.546 133.098 317.079 136.232C314.88 138.919 314.609 140.557 314.542 143.534C313.225 144.844 312.211 144.981 310.23 144.849C309.643 141.458 310.527 140.185 311.904 137.811Z" fill="#F7A688"/>
<path d="M334.116 228.852L335.703 243.297C347.755 230.657 349.54 207.059 349.185 199.571C346.521 191.704 335.736 172.164 320.917 159.818C311.895 156.99 297.043 152.551 294.654 160.922L310.096 177.636L316.222 169.182C315.7 174.975 315.364 178.201 312.421 182.745L317.163 187.574C318.467 182.743 319.683 179.858 321.626 174.795L318.719 192.557L320.382 196.882L326.584 178.308L322.814 201.333L324.585 205L330.895 185.769C330.843 197.689 330.446 203.778 326.91 210.109L328.573 214.435C333.246 207.98 335.156 203.547 338.732 195.833C336.87 206.289 336.382 212.464 329.251 219.949L331.468 225.716C337.725 218.285 340.211 213.521 344.367 204.862C341.303 214.669 340.263 220.483 334.116 228.852Z" fill="#F7A688"/>
<path d="M377.213 191.15L389.831 201.216C388.102 184.45 370.52 165.415 364.303 159.919C356.185 155.503 333.131 147.001 313.019 146.369C304.514 149.556 290.684 154.968 295.704 162.76L319.73 166.351L317.233 156.283C321.491 161.006 323.831 163.663 325.415 168.867L332.552 169.739C329.603 165.286 328.145 162.368 325.453 157.36L337.603 172.614L342.204 174.925L331.69 157.101L347.439 176.876L351.59 178.622L340.626 160.233C350.095 169.345 354.675 174.22 357.275 181.137L361.876 183.448C359.966 175.764 357.754 171.255 354.081 163.261C361.129 172.329 365.714 177.323 366.743 187.248L372.878 190.329C371.287 180.963 369.211 175.861 365.184 166.803C370.882 176.089 374.798 181.135 377.213 191.15Z" fill="#F7A688"/>
<path d="M216.584 151.342L201.013 155.28C209.85 141.106 233.726 131.179 241.632 128.764C250.752 128.056 274.892 129.624 292.997 137.004C299.148 143.186 309.05 153.442 301.206 158.366L278.343 152.061L284.942 144.125C279.111 146.63 275.879 148.06 272.208 152.046L265.502 150.001C270.055 147.22 272.619 145.21 277.186 141.834L259.772 150.555L254.686 150.786L271.77 139.143L249.196 150.448L244.755 150.356L262.485 138.39C250.121 142.726 243.938 145.237 238.62 150.341L233.535 150.572C238.575 144.516 242.5 141.395 249.238 135.761C239.04 141.014 232.8 143.629 227.565 152.018L220.784 152.326C226.275 144.654 230.337 140.953 237.852 134.516C228.756 140.495 223.087 143.421 216.584 151.342Z" fill="#F7A688"/>
<path d="M241.538 216.8L234.783 231.386C226.617 213.884 233.068 188.513 236.08 180.787C241.643 173.478 259.826 156.793 279.7 149.073C290.145 149.288 307.265 149.871 306.816 159.49L284.75 171.569L281.315 160.546C279.82 166.804 279.034 170.305 280.514 176.106L273.845 179.498C274.183 173.973 273.926 170.52 273.676 164.526L270.46 184.174L267.193 188.123L267.246 166.462L263.076 191.932L259.929 195.153L260.101 172.764C255.952 185.28 254.222 191.804 255.693 199.69L252.426 203.638C249.808 195.223 249.371 189.902 248.345 180.554C246.608 192.172 244.943 198.819 249.772 209.181L245.416 214.446C241.484 204.449 240.559 198.578 239.26 188.033C239.011 199.396 238.051 205.859 241.538 216.8Z" fill="#F7A688"/>
<path d="M271.555 118.092L263.207 111.926C275.992 109.367 291.414 116.849 295.933 119.769C299.745 124.192 307.516 137.645 309.161 150.883C307.243 157.245 303.951 167.642 297.764 166.027L293.653 150.84L301.415 150.273C297.595 148.486 295.449 147.517 291.42 147.615L290.346 143.061C293.886 144.038 296.178 144.362 300.124 145.044L287.877 140.338L285.862 137.789L299.957 140.838L284.082 134.738L282.521 132.363L297.069 135.587C289.626 131.305 285.672 129.337 280.287 129.138L278.272 126.589C284.197 126.159 287.736 126.633 293.998 127.308C286.728 124.626 282.684 122.681 275.114 124.193L272.427 120.794C279.606 119.78 283.587 120.032 290.674 120.706C283.317 118.97 279.272 117.482 271.555 118.092Z" fill="#F7A688"/>
</svg>
