<svg width="1440" height="130" viewBox="0 0 1440 130" fill="none" xmlns="http://www.w3.org/2000/svg">
<rect x="-227.865" y="101.747" width="1713.74" height="5.31118" fill="#F7A688"/>
<rect x="-227.865" y="108.828" width="1713.74" height="5.31118" fill="#F7A688"/>
<rect x="-258" y="13" width="667" height="7" rx="3.5" fill="#F7A688"/>
<path d="M-369.321 3.24408C-369.321 1.61448 -368 0.293427 -366.37 0.293427H290.451C292.081 0.293427 293.402 1.61448 293.402 3.24408C293.402 4.87368 292.081 6.19474 290.451 6.19474H-366.37C-368 6.19474 -369.321 4.87368 -369.321 3.24408Z" fill="#E15C35"/>
<path d="M-309 126C-309 123.791 -307.209 122 -305 122H567C569.209 122 571 123.791 571 126C571 128.209 569.209 130 567 130H-305C-307.209 130 -309 128.209 -309 126Z" fill="#E15C35"/>
<path d="M-147.234 37.9964C-147.234 35.2349 -144.996 32.9964 -142.234 32.9964H720.614C753 36.6334 767.554 46.6784 787.405 58.5233C798.418 65.095 809.182 75.0357 808.2 87.8231C808.017 90.1962 807.593 92.6324 806.921 95.2692C805.873 99.3831 801.995 102.042 797.749 102.042H-142.234C-144.996 102.042 -147.234 99.8031 -147.234 97.0417V37.9964Z" fill="#FCFCFE"/>
<path d="M648.103 32.7013H719.483C751.905 36.3423 766.897 46.4791 786.967 58.3719C798 64.91 808.663 74.7755 808.238 87.5935C808.153 90.1288 807.797 92.7218 807.144 95.5178C806.175 99.6653 802.264 102.326 798.005 102.31L648.103 101.747C669.25 74.7828 674.098 59.6652 648.103 32.7013Z" fill="#B4B4B4" fill-opacity="0.5"/>
<path d="M520.226 66.34L514.856 65.019C511.074 64.0887 508.415 60.6968 508.415 56.8018C508.415 52.1284 512.204 48.3398 516.877 48.3398H739.49C741.795 48.3398 744.089 48.7328 746.25 49.5354C756.959 53.5127 763.217 56.6102 771.229 62.1974C772.395 63.0112 773.492 63.9432 774.337 65.0881C775.453 66.6012 776.117 68.0211 776.364 69.4866C777.545 76.4913 768.61 80.2068 761.506 80.2068H597.618C594.557 80.2068 591.537 79.5041 588.79 78.1528L569.866 68.8432C567.119 67.4919 564.099 66.7891 561.038 66.7891H523.933C522.684 66.7891 521.439 66.6383 520.226 66.34Z" fill="#393744"/>
<path d="M685.589 48.3398H722.722L711.759 80.2068H674.626L685.589 48.3398Z" fill="#F7A688"/>
<path d="M477.411 80.2068H187.558C185.069 80.2068 182.582 79.6103 180.356 78.4962C168.405 72.5133 168.485 55.1874 180.683 49.724C182.72 48.8115 184.927 48.3398 187.159 48.3398H455.011C458.795 48.3398 462.503 49.4137 465.701 51.4368L482.642 62.1513C485.478 63.9448 487.197 67.0661 487.197 70.4214C487.197 75.8258 482.816 80.2068 477.411 80.2068Z" fill="#393744"/>
<path d="M-117.897 54.1118L-115.425 52.1804C-112.239 49.6917 -108.313 48.3398 -104.271 48.3398H122.929C136.183 48.3398 143.643 63.5805 135.512 74.048C132.493 77.9337 127.849 80.2068 122.929 80.2068H-108.912C-114.001 80.2068 -118.724 77.5551 -121.373 73.2092C-125.229 66.8838 -123.735 58.6727 -117.897 54.1118Z" fill="#393744"/>
<path d="M398.787 48.3398H408.689L398.787 80.2068H388.178L398.787 48.3398Z" fill="#F7A688"/>
<path d="M618.044 48.3398H627.946L618.044 80.2068H607.435L618.044 48.3398Z" fill="#F7A688"/>
<path d="M378.629 48.3398H394.543L384.641 80.2068H368.374L378.629 48.3398Z" fill="#F7A688"/>
<path d="M250.965 48.3398H279.963L270.061 80.2068H240.002L250.965 48.3398Z" fill="#F7A688"/>
<path d="M59.6455 48.3398H88.644L78.7421 80.2068H48.6826L59.6455 48.3398Z" fill="#F7A688"/>
<path d="M-26.6431 48.3398H2.35544L-7.5465 80.2068H-37.606L-26.6431 48.3398Z" fill="#F7A688"/>
</svg>
