<svg width="713" height="355" viewBox="0 0 713 355" fill="none" xmlns="http://www.w3.org/2000/svg">
<g clip-path="url(#clip0)">
<path d="M123.52 79H136.341C136.341 174.571 142.129 252.137 159 302L123.52 302C123.52 302 113.35 235.515 123.52 79Z" fill="#393744"/>
<path d="M127.724 110.197C127.942 95.4865 130.423 87.4902 139.465 73.7535C160.953 94.8673 168.575 110.076 164.807 150.435C163.177 143.237 161.738 141.396 158.406 141.379C166.288 166.12 167.682 178.363 159.199 194.294C151.769 188.87 148.471 184.593 144.212 174.856C143.71 171.105 144.678 168.717 147.391 164.232C149.615 159.955 147.38 157.694 145.646 153.572L137.121 167.597C134.364 159.772 133.237 155.131 133.496 145.457L142.021 131.432C142.021 131.432 142.399 125.58 140.545 122.412C136.08 127.69 134.436 131.594 132.556 139.717C129.572 132.587 127.323 128.775 129.335 120.037C131.652 113.774 133.882 111.653 138.262 108.471C139.205 105.029 138.634 103.279 136.92 100.271C131.423 102.843 130.204 105.56 127.724 110.197Z" fill="#F7A688"/>
<path d="M117.952 40.312C128.358 45.8842 132.843 50.7125 138.178 62.6479C112.432 71.2577 97.7821 71.4746 70.8045 53.7739C76.7572 55.1766 78.7864 54.7575 80.4512 52.2256C58.859 49.1379 49.4172 45.7009 42.2378 33.3845C49.798 29.7182 54.4909 28.7775 63.5623 29.111C66.4921 30.1071 67.719 31.7221 69.5793 35.4371C71.5329 38.703 74.2578 37.8314 78.0638 38.025L72.2666 26.377C79.2262 27.153 83.102 27.9996 89.8883 31.7519L95.6855 43.3999C95.6855 43.3999 99.6802 45.8378 102.865 45.5897C101.305 40.2491 99.3307 37.5621 94.4569 33.1454C101.033 33.4918 104.872 33.1796 110.121 37.9231C113.448 41.9896 113.858 44.4683 113.96 48.9739C115.953 50.9567 117.487 51.1648 120.486 50.9646C121.374 45.8325 120.037 43.9053 117.952 40.312Z" fill="#F7A688"/>
<path d="M84.3339 178.103L81.932 199.965C63.6916 180.835 60.9911 145.12 61.5282 133.786C65.56 121.88 81.8822 92.3066 104.311 73.6202C117.965 69.3401 140.444 62.6221 144.06 75.2915L120.688 100.587L111.416 87.7924C112.208 96.5604 112.716 101.444 117.169 108.32L109.993 115.629C108.02 108.318 106.179 103.951 103.238 96.2877L107.639 123.17L105.122 129.717L95.7347 101.605L101.44 136.453L98.7597 142.004L89.2098 112.897C89.2875 130.937 89.8896 140.153 95.2408 149.736L92.7238 156.282C85.6514 146.513 82.7611 139.803 77.3489 128.129C80.1659 143.954 80.9052 153.3 91.6978 164.629L88.3419 173.357C78.8728 162.11 75.1091 154.9 68.82 141.794C73.4572 156.637 75.0317 165.437 84.3339 178.103Z" fill="#F7A688"/>
<path d="M19.107 121.042L0.00925142 136.276C2.62717 110.901 29.2364 82.0908 38.6463 73.7738C50.9336 67.09 85.8247 54.2221 116.265 53.2651C129.138 58.0885 150.069 66.2795 142.471 78.0732L106.107 83.5078L109.886 68.2697C103.442 75.4185 99.9004 79.4396 97.5029 87.3156L86.7022 88.635C91.1656 81.8966 93.372 77.4797 97.4453 69.8996L79.0574 92.9872L72.0935 96.4844L88.0068 69.5088L64.1705 99.4372L57.8877 102.079L74.482 74.2485C60.1498 88.0395 53.2182 95.4173 49.2836 105.887L42.3198 109.384C45.2101 97.7537 48.5583 90.9302 54.118 78.8311C43.4505 92.5559 36.5103 100.114 34.9531 115.136L25.668 119.799C28.0766 105.623 31.2183 97.9018 37.3128 84.1921C28.6891 98.2467 22.7623 105.884 19.107 121.042Z" fill="#F7A688"/>
<path d="M262.22 60.7915L285.785 66.7515C272.412 45.2989 236.274 30.2747 224.309 26.6198C210.506 25.5483 173.97 27.9212 146.569 39.0917C137.258 48.4483 122.271 63.9707 134.144 71.4219L168.747 61.8806L158.759 49.8694C167.585 53.6602 172.477 55.825 178.033 61.8578L188.182 58.7625C181.29 54.5536 177.41 51.5107 170.498 46.4019L196.855 59.601L204.551 59.9505L178.695 42.329L212.861 59.4389L219.582 59.2996L192.749 41.1892C211.461 47.7514 220.819 51.5525 228.868 59.2768L236.564 59.6263C228.936 50.4611 222.996 45.7365 212.797 37.21C228.232 45.1604 237.676 49.1178 245.6 61.8148L255.862 62.2809C247.552 50.67 241.404 45.0681 230.03 35.3255C243.796 44.3752 252.377 48.8027 262.22 60.7915Z" fill="#F7A688"/>
<path d="M224.452 159.862L234.675 181.937C247.034 155.449 237.271 117.051 232.712 105.357C224.292 94.2953 196.772 69.0424 166.694 57.3577C150.885 57.6838 124.974 58.5651 125.654 73.1234L159.049 91.4057L164.249 74.7218C166.511 84.1938 167.701 89.4927 165.461 98.2724L175.554 103.405C175.042 95.0444 175.431 89.8172 175.81 80.7455L180.678 110.483L185.622 116.459L185.542 83.6758L191.853 122.224L196.617 127.099L196.357 93.2144C202.636 112.157 205.254 122.031 203.028 133.966L207.972 139.942C211.935 127.206 212.596 119.152 214.149 105.003C216.778 122.588 219.298 132.648 211.989 148.331L218.581 156.3C224.533 141.169 225.933 132.283 227.899 116.323C228.275 133.521 229.729 143.303 224.452 159.862Z" fill="#F7A688"/>
<path d="M179.021 10.4676L191.656 1.13539C172.305 -2.73807 148.963 8.58664 142.124 13.0055C136.355 19.6996 124.594 40.0607 122.104 60.0969C125.007 69.7267 129.99 85.4616 139.353 83.0174L145.575 60.0319L133.827 59.174C139.609 56.4696 142.857 55.0033 148.955 55.1513L150.58 48.259C145.223 49.7369 141.753 50.2272 135.782 51.2594L154.317 44.1369L157.367 40.2787L136.034 44.8946L160.061 35.6619L162.424 32.0674L140.404 36.9472C151.67 30.4655 157.655 27.4873 165.804 27.1868L168.854 23.3285C159.887 22.6775 154.53 23.3948 145.053 24.4158C156.056 20.357 162.178 17.413 173.634 19.7012L177.7 14.5568C166.835 13.0222 160.811 13.4034 150.084 14.4237C161.219 11.7974 167.341 9.545 179.021 10.4676Z" fill="#F7A688"/>
<path d="M605.932 101H594.393C594.393 187.143 589.184 257.056 574 302L605.932 302C605.932 302 615.085 242.074 605.932 101Z" fill="#393744"/>
<path d="M335.617 172H325.681C325.681 250.429 321.195 314.081 308.12 355L335.617 355C335.617 355 343.499 300.441 335.617 172Z" fill="#393744"/>
<path d="M332.521 195.757C332.356 184.623 330.478 178.571 323.635 168.174C307.371 184.154 301.602 195.666 304.454 226.211C305.688 220.764 306.777 219.371 309.299 219.357C303.333 238.083 302.278 247.349 308.699 259.407C314.322 255.302 316.818 252.064 320.042 244.695C320.422 241.856 319.689 240.048 317.636 236.654C315.952 233.417 317.644 231.705 318.957 228.586L325.409 239.201C327.495 233.278 328.348 229.766 328.152 222.444L321.7 211.829C321.7 211.829 321.414 207.4 322.817 205.002C326.196 208.997 327.441 211.952 328.863 218.099C331.123 212.703 332.825 209.818 331.302 203.204C329.548 198.464 327.86 196.859 324.545 194.451C323.831 191.846 324.264 190.521 325.561 188.245C329.721 190.191 330.644 192.247 332.521 195.757Z" fill="#E15C35"/>
<path d="M339.917 142.864C332.041 147.081 328.646 150.735 324.609 159.769C344.095 166.285 355.183 166.449 375.601 153.052C371.096 154.114 369.56 153.797 368.3 151.881C384.642 149.544 391.788 146.942 397.222 137.62C391.5 134.846 387.948 134.134 381.083 134.386C378.865 135.14 377.936 136.362 376.528 139.174C375.05 141.646 372.988 140.986 370.107 141.133L374.495 132.317C369.227 132.904 366.294 133.545 361.157 136.385L356.77 145.201C356.77 145.201 353.746 147.046 351.336 146.858C352.516 142.816 354.011 140.782 357.7 137.44C352.723 137.702 349.816 137.465 345.844 141.056C343.326 144.133 343.015 146.009 342.939 149.419C341.43 150.92 340.269 151.078 337.999 150.926C337.327 147.042 338.339 145.583 339.917 142.864Z" fill="#E15C35"/>
<path d="M365.361 247.152L367.179 263.699C380.985 249.22 383.029 222.189 382.622 213.611C379.571 204.6 367.217 182.216 350.241 168.073C339.907 164.834 322.893 159.749 320.157 169.338L337.846 188.484L344.863 178.8C344.265 185.436 343.88 189.132 340.509 194.336L345.941 199.868C347.434 194.334 348.828 191.03 351.054 185.23L347.723 205.576L349.628 210.531L356.732 189.254L352.415 215.629L354.443 219.83L361.671 197.8C361.612 211.455 361.156 218.43 357.106 225.683L359.011 230.637C364.364 223.243 366.552 218.165 370.648 209.329C368.516 221.306 367.956 228.38 359.788 236.955L362.328 243.561C369.495 235.048 372.343 229.591 377.103 219.671C373.593 230.905 372.402 237.566 365.361 247.152Z" fill="#E15C35"/>
<path d="M414.729 203.965L429.183 215.495C427.202 196.29 407.062 174.484 399.94 168.19C390.641 163.131 364.233 153.392 341.194 152.667C331.451 156.318 315.609 162.517 321.36 171.444L348.882 175.557L346.022 164.024C350.899 169.434 353.58 172.478 355.394 178.439L363.569 179.437C360.191 174.337 358.521 170.994 355.438 165.257L369.355 182.732L374.626 185.378L362.581 164.962L380.622 187.613L385.377 189.613L372.818 168.549C383.665 178.987 388.912 184.571 391.89 192.495L397.16 195.142C394.973 186.339 392.438 181.175 388.231 172.017C396.304 182.405 401.557 188.126 402.736 199.495L409.763 203.024C407.94 192.295 405.563 186.451 400.95 176.075C407.477 186.712 411.962 192.492 414.729 203.965Z" fill="#E15C35"/>
<path d="M230.726 158.364L212.89 162.875C223.012 146.638 250.364 135.267 259.419 132.501C269.867 131.689 297.519 133.485 318.258 141.94C325.305 149.022 336.648 160.77 327.662 166.41L301.472 159.188L309.032 150.097C302.351 152.966 298.649 154.605 294.444 159.171L286.763 156.828C291.979 153.643 294.915 151.34 300.147 147.473L280.198 157.463L274.373 157.727L293.943 144.39L268.084 157.34L262.997 157.235L283.306 143.527C269.144 148.494 262.061 151.371 255.969 157.217L250.144 157.482C255.917 150.545 260.413 146.969 268.132 140.516C256.45 146.533 249.302 149.528 243.305 159.138L235.538 159.491C241.827 150.703 246.481 146.463 255.09 139.09C244.67 145.939 238.176 149.29 230.726 158.364Z" fill="#E15C35"/>
<path d="M259.311 233.347L251.574 250.055C242.22 230.007 249.609 200.944 253.059 192.094C259.432 183.722 280.261 164.609 303.026 155.765C314.991 156.012 334.602 156.679 334.088 167.697L308.812 181.535L304.877 168.907C303.164 176.076 302.264 180.087 303.959 186.732L296.32 190.617C296.707 184.289 296.413 180.332 296.127 173.466L292.442 195.973L288.7 200.496L288.76 175.684L283.984 204.86L280.379 208.549L280.575 182.903C275.823 197.24 273.841 204.714 275.526 213.747L271.784 218.27C268.785 208.63 268.284 202.534 267.109 191.826C265.119 205.136 263.212 212.749 268.744 224.62L263.755 230.65C259.25 219.198 258.19 212.473 256.702 200.394C256.418 213.41 255.317 220.814 259.311 233.347Z" fill="#E15C35"/>
<path d="M293.696 120.275L284.133 113.212C298.779 110.281 316.446 118.852 321.622 122.196C325.989 127.263 334.89 142.673 336.774 157.838C334.578 165.126 330.806 177.036 323.719 175.186L319.01 157.789L327.902 157.14C323.525 155.093 321.067 153.983 316.452 154.095L315.222 148.878C319.277 149.997 321.903 150.368 326.422 151.149L312.394 145.759L310.085 142.838L326.232 146.332L308.047 139.344L306.258 136.624L322.924 140.317C314.397 135.411 309.868 133.157 303.699 132.93L301.391 130.009C308.178 129.517 312.232 130.06 319.405 130.832C311.077 127.76 306.444 125.532 297.774 127.264L294.696 123.37C302.919 122.209 307.479 122.497 315.597 123.27C307.17 121.282 302.537 119.577 293.696 120.275Z" fill="#E15C35"/>
<path d="M602.127 127.995C601.937 115.188 599.777 108.227 591.905 96.2677C573.198 114.649 566.563 127.89 569.843 163.025C571.262 156.76 572.515 155.157 575.416 155.142C568.553 176.681 567.34 187.34 574.725 201.209C581.193 196.487 584.065 192.763 587.773 184.286C588.21 181.021 587.367 178.942 585.005 175.037C583.069 171.314 585.015 169.345 586.524 165.756L593.946 177.967C596.346 171.154 597.327 167.114 597.102 158.692L589.68 146.482C589.68 146.482 589.351 141.388 590.966 138.629C594.852 143.225 596.284 146.623 597.92 153.695C600.519 147.488 602.476 144.169 600.725 136.561C598.708 131.109 596.766 129.262 592.952 126.493C592.132 123.496 592.629 121.972 594.121 119.354C598.907 121.593 599.968 123.958 602.127 127.995Z" fill="#F7A688"/>
<path d="M610.634 67.1539C601.575 72.005 597.67 76.2085 593.026 86.5993C615.44 94.0949 628.194 94.2838 651.68 78.8738C646.498 80.0949 644.732 79.73 643.282 77.5257C662.08 74.8377 670.3 71.8455 676.55 61.123C669.969 57.9311 665.883 57.1122 657.985 57.4025C655.435 58.2696 654.367 59.6757 652.747 62.9099C651.046 65.7532 648.674 64.9943 645.361 65.1629L650.408 55.0223C644.349 55.6979 640.974 56.4349 635.066 59.7017L630.019 69.8423C630.019 69.8423 626.542 71.9647 623.769 71.7486C625.127 67.0992 626.846 64.7599 631.089 60.9148C625.364 61.2163 622.021 60.9445 617.452 65.0742C614.556 68.6145 614.198 70.7724 614.11 74.6949C612.375 76.4211 611.039 76.6023 608.428 76.428C607.655 71.96 608.82 70.2822 610.634 67.1539Z" fill="#F7A688"/>
<path d="M639.902 187.113L641.993 206.146C657.873 189.491 660.224 158.398 659.756 148.531C656.246 138.166 642.036 112.42 622.51 96.1517C610.623 92.4255 591.053 86.5768 587.905 97.6067L608.252 119.629L616.324 108.49C615.635 116.123 615.193 120.374 611.316 126.361L617.564 132.724C619.281 126.359 620.884 122.557 623.445 115.886L619.613 139.29L621.804 144.988L629.977 120.515L625.01 150.853L627.343 155.686L635.657 130.346C635.589 146.051 635.065 154.074 630.407 162.417L632.598 168.116C638.755 159.611 641.271 153.77 645.983 143.607C643.531 157.383 642.887 165.52 633.491 175.383L636.413 182.982C644.656 173.19 647.933 166.913 653.408 155.503C649.371 168.425 648 176.086 639.902 187.113Z" fill="#F7A688"/>
<path d="M696.688 137.436L713.314 150.699C711.035 128.608 687.869 103.526 679.677 96.2854C668.98 90.4665 638.604 79.2639 612.103 78.4308C600.896 82.6299 582.674 89.761 589.289 100.028L620.947 104.76L617.656 91.4936C623.266 97.7172 626.35 101.218 628.437 108.075L637.84 109.223C633.954 103.357 632.033 99.5117 628.487 92.9126L644.496 113.012L650.558 116.057L636.704 92.5723L657.456 118.628L662.926 120.928L648.479 96.6986C660.956 108.705 666.991 115.128 670.416 124.243L676.479 127.287C673.963 117.162 671.048 111.222 666.208 100.688C675.495 112.637 681.537 119.217 682.892 132.295L690.976 136.354C688.879 124.013 686.144 117.291 680.838 105.355C688.346 117.591 693.505 124.24 696.688 137.436Z" fill="#F7A688"/>
<path d="M485.037 84.9832L464.521 90.1719C476.164 71.4955 507.625 58.4156 518.041 55.2337C530.058 54.3008 561.866 56.3666 585.721 66.0916C593.827 74.2373 606.874 87.751 596.538 94.2379L566.413 85.9313L575.108 75.4745C567.424 78.7747 563.166 80.6594 558.329 85.9114L549.493 83.2168C555.493 79.5525 558.871 76.9034 564.889 72.4557L541.943 83.9467L535.242 84.251L557.753 68.9099L528.008 83.8056L522.157 83.6843L545.517 67.9176C529.227 73.6306 521.079 76.9398 514.073 83.6645L507.372 83.9688C514.013 75.9896 519.185 71.8764 528.064 64.4533C514.626 71.3749 506.404 74.8202 499.506 85.874L490.571 86.2798C497.806 76.1715 503.159 71.2945 513.061 62.8128C501.076 70.6913 493.606 74.5459 485.037 84.9832Z" fill="#F7A688"/>
<path d="M517.917 171.233L509.017 190.451C498.257 167.391 506.757 133.962 510.725 123.781C518.056 114.151 542.015 92.1663 568.201 81.9937C581.964 82.2776 604.521 83.0449 603.929 95.7192L574.856 111.636L570.329 97.1107C568.359 105.357 567.323 109.97 569.274 117.614L560.487 122.082C560.932 114.803 560.594 110.253 560.264 102.355L556.026 128.244L551.722 133.447L551.791 104.906L546.297 138.466L542.15 142.71L542.376 113.21C536.91 129.701 534.63 138.298 536.568 148.688L532.264 153.891C528.814 142.803 528.238 135.791 526.887 123.474C524.598 138.783 522.404 147.54 528.767 161.194L523.028 168.131C517.846 154.959 516.628 147.223 514.916 133.328C514.588 148.301 513.323 156.817 517.917 171.233Z" fill="#F7A688"/>
<path d="M557.468 41.1717L546.469 33.0472C563.315 29.675 583.636 39.5342 589.59 43.3812C594.613 49.209 604.852 66.9352 607.02 84.3784C604.493 92.762 600.155 106.461 592.003 104.333L586.586 84.3218L596.814 83.5749C591.78 81.2206 588.952 79.944 583.643 80.0729L582.229 74.0725C586.893 75.3591 589.913 75.786 595.112 76.6846L578.976 70.4839L576.32 67.1249L594.893 71.1435L573.975 63.1056L571.918 59.9763L591.088 64.2246C581.28 58.5817 576.07 55.9889 568.975 55.7273L566.319 52.3683C574.126 51.8016 578.79 52.426 587.04 53.3149C577.461 49.7814 572.132 47.2183 562.159 49.2104L558.618 44.7317C568.077 43.3958 573.322 43.7276 582.66 44.6159C572.967 42.3295 567.637 40.3685 557.468 41.1717Z" fill="#F7A688"/>
</g>
<defs>
<clipPath id="clip0">
<rect width="713" height="355" fill="white"/>
</clipPath>
</defs>
</svg>
